<svg width="112" height="100" viewBox="0 0 112 100" fill="none" xmlns="http://www.w3.org/2000/svg">
<path opacity="0.996" fill-rule="evenodd" clip-rule="evenodd" d="M85.5861 14.414C85.6725 14.8671 85.687 15.3233 85.6289 15.7827C83.74 17.7428 81.5301 18.9974 78.9993 19.5466C70.5503 15.995 61.7394 14.3697 52.5664 14.6707C51.6602 14.6512 50.7763 14.7367 49.9146 14.9273C48.7393 14.9922 47.5702 15.1205 46.4073 15.3122C43.6612 15.7889 40.9238 16.3021 38.1952 16.852C35.4342 17.492 32.7538 18.3617 30.1541 19.4611C30.149 19.4146 30.1205 19.3861 30.0686 19.3755C29.4724 19.5601 28.8736 19.7312 28.2721 19.8888C28.2657 18.7359 28.2657 17.5953 28.2721 16.4671C28.2749 15.0876 28.5743 13.7759 29.1703 12.5321C29.4212 12.2571 29.7206 12.0576 30.0686 11.9333C31.1326 9.23174 32.815 7.00762 35.1156 5.26091C35.2464 5.26339 35.3462 5.32045 35.415 5.432C35.4973 6.22849 35.5543 7.02695 35.5861 7.82721C35.607 8.19692 35.7069 8.5391 35.8855 8.85372C36.0307 8.77981 36.1304 8.66579 36.1849 8.51155C36.6622 6.76407 37.4178 5.15304 38.4518 3.67836C38.5897 3.61677 38.718 3.63097 38.8367 3.72113C39.2467 4.6657 39.5888 5.63516 39.8632 6.6296C39.9488 6.74363 40.0343 6.74363 40.1199 6.6296C40.3321 4.72669 40.2609 2.83054 39.906 0.940978C40.0889 0.613262 40.3455 0.55629 40.6759 0.769891C42.3728 2.22472 44.1977 3.49359 46.1507 4.57656C46.1529 4.21035 46.0816 3.83969 45.9368 3.4645C45.7162 2.93781 45.4738 2.42455 45.2097 1.92472C45.2292 1.76245 45.3147 1.64842 45.4663 1.58255C48.0242 2.94791 50.7045 3.91737 53.5074 4.49102C53.3248 3.70325 53.2107 2.90488 53.1652 2.09581C53.3386 2.08195 53.5097 2.09624 53.6785 2.13858C54.2573 2.41711 54.8561 2.64517 55.4749 2.82293C56.6794 3.10984 57.877 3.42344 59.0677 3.7639C59.8392 4.14936 60.552 4.61985 61.2063 5.17537C61.2267 4.49444 61.241 3.8101 61.2491 3.12233C61.2597 2.8426 61.4023 2.7 61.6768 2.69461C66.2846 3.81454 70.8326 5.14046 75.3209 6.67237C77.7728 7.71292 80.1395 8.91052 82.421 10.2652C83.7919 11.4203 84.8469 12.8033 85.5861 14.414Z" fill="#231F20"/>
<path opacity="0.984" fill-rule="evenodd" clip-rule="evenodd" d="M28.2721 16.4671C28.2657 17.5953 28.2657 18.7359 28.2721 19.8888C28.8735 19.7312 29.4723 19.5601 30.0685 19.3755C30.1204 19.3861 30.1489 19.4146 30.154 19.4611C27.9564 20.8166 26.0317 22.499 24.3799 24.5081C24.321 24.5793 24.3353 24.6363 24.4226 24.6792C29.3371 22.8425 34.2415 22.8567 39.1361 24.722C40.2617 25.2416 41.3168 25.869 42.3012 26.6039C44.5672 27.5944 46.7913 28.6779 48.9735 29.8546C49.5302 30.2041 50.0719 30.5749 50.5988 30.9666C51.8095 30.7638 53.0071 30.4787 54.1917 30.1112C55.0471 30.0542 55.9025 30.0542 56.758 30.1112C57.9686 30.4501 59.1805 30.7781 60.3935 31.095C61.2262 30.6287 62.0389 30.1297 62.8315 29.598C64.8561 28.657 66.8805 27.716 68.9051 26.775C71.7594 24.6306 74.9815 23.5329 78.5715 23.4816C79.9211 23.5128 81.2613 23.6412 82.592 23.8666C83.6515 24.0763 84.7065 24.2759 85.7571 24.4654C83.7109 22.531 81.4582 20.8915 78.9992 19.5466C81.5301 18.9974 83.7399 17.7428 85.6288 15.7827C85.687 15.3233 85.6724 14.8671 85.586 14.414C85.6416 14.44 85.6989 14.4685 85.7571 14.4996C87.9205 13.6582 89.9735 13.872 91.9162 15.1412C93.6339 16.7888 94.1899 18.7705 93.5843 21.0864C93.0172 23.0179 92.0899 24.7429 90.8041 26.2618C90.8324 26.2903 90.8615 26.3188 90.8897 26.3473C92.3884 26.6424 93.8717 26.9846 95.3379 27.3738C97.8401 28.2832 100.321 29.2384 102.78 30.2395C102.873 31.8956 102.831 33.5495 102.652 35.201C102.581 35.3864 102.453 35.5147 102.267 35.586C101.462 35.6558 100.678 35.8127 99.9145 36.0565C99.5561 39.7021 98.9 43.295 97.947 46.8349C97.2678 48.8502 96.2977 50.7037 95.0385 52.3952C95.1403 55.9885 95.2832 59.5813 95.4662 63.1737C95.8418 64.2381 96.2413 65.2932 96.6639 66.3388C97.0813 67.7998 96.8101 69.1112 95.8512 70.2737C98.515 71.3456 100.867 72.9427 102.909 75.0642C104.682 77.1001 105.737 79.4662 106.074 82.1642C106.726 82.5817 106.94 83.166 106.715 83.9179C106.811 84.124 106.939 84.3097 107.1 84.4739C107.284 85.1352 107.041 85.5056 106.373 85.586C106.46 86.7511 105.99 87.6065 104.962 88.1523C103.04 91.8015 100.003 93.6262 95.8512 93.627C95.9188 95.5364 95.947 97.4474 95.9367 99.3584C95.509 99.3584 95.0813 99.3584 94.6536 99.3584C94.6784 97.3319 94.6502 95.3071 94.568 93.2849C93.4175 92.9042 92.5903 92.1625 92.0873 91.0607C91.9248 90.3567 91.882 89.6441 91.959 88.9222C92.1805 88.3755 92.4509 87.8623 92.7716 87.3824C93.3106 86.8862 93.8375 86.373 94.3542 85.8426C94.397 84.1317 94.4115 82.4209 94.397 80.71C94.4346 77.6279 94.3781 74.5483 94.2259 71.4713C94.1737 71.4816 94.1455 71.5107 94.1403 71.5569C93.9752 71.6091 93.8324 71.6946 93.7126 71.8135C93.0779 72.0026 92.4509 72.2164 91.8307 72.4551C87.2926 73.568 82.759 74.6946 78.2293 75.834C72.8246 77.0778 67.4924 78.5749 62.2327 80.3251C60.8327 80.7648 59.4071 81.0496 57.9556 81.1805C57.8843 81.1095 57.813 81.0376 57.7417 80.9666C57.7083 80.2857 57.5657 79.6305 57.314 78.9991C57.2825 78.8785 57.2113 78.793 57.1001 78.7425C56.9869 79.7545 56.9869 80.7519 57.1001 81.7365C57.5648 87.6116 58.0496 93.4859 58.5544 99.3584C58.1551 99.3584 57.756 99.3584 57.3568 99.3584C56.8093 93.1138 56.2675 86.8691 55.7314 80.6245C55.7314 80.225 55.7314 79.8263 55.7314 79.4269C54.9296 79.4482 54.1312 79.42 53.3362 79.3413C53.1823 82.5406 52.9542 85.734 52.6519 88.9222C52.2257 92.3875 51.9121 95.8666 51.7109 99.3584C51.2832 99.3584 50.8555 99.3584 50.4278 99.3584C50.4585 98.2438 50.5297 97.1317 50.6416 96.0222C51.2076 91.0462 51.6496 86.0556 51.9675 81.0522C52.066 80.6116 52.0802 80.1557 52.0103 79.6835C51.9671 79.8563 51.9243 80.0274 51.882 80.1967C51.8329 80.4833 51.7759 80.7682 51.7109 81.0522C51.5368 81.1814 51.3372 81.2387 51.1121 81.2233C50.0083 81.0873 48.9247 80.8589 47.8615 80.5389C43.2753 79.0787 38.656 77.7245 34.0035 76.4756C28.4663 75.1625 22.9345 73.8221 17.4081 72.4551C16.5567 72.1711 15.7297 71.8435 14.9273 71.4713C15.0228 76.3336 15.3222 81.1814 15.8255 86.0137C16.6547 86.7896 17.3391 87.6732 17.8786 88.6655C18.3941 90.5997 17.781 92.0539 16.0394 93.0282C15.9539 95.1377 15.9254 97.2472 15.9539 99.3584C15.5261 99.3584 15.0984 99.3584 14.6707 99.3584C14.5243 99.1223 14.4245 98.8657 14.3713 98.5885C14.3285 96.935 14.3142 95.2814 14.3285 93.627C10.1457 93.6732 7.05187 91.8768 5.04709 88.2378C4.67927 87.9555 4.3371 87.6424 4.02057 87.2968C3.68637 86.7776 3.55806 86.207 3.63563 85.586C2.93192 85.5227 2.68955 85.1523 2.90851 84.4739C3.05369 84.2857 3.182 84.0864 3.29346 83.8751C3.09234 83.1523 3.29194 82.568 3.89226 82.1215C4.73426 77.4602 7.1865 73.9247 11.249 71.5141C11.951 71.1206 12.6639 70.7494 13.3876 70.4021C12.6735 69.5141 12.3741 68.5021 12.4894 67.3653C12.7509 65.9196 13.093 64.4942 13.5159 63.0881C13.6798 62.6822 13.9792 62.5111 14.4141 62.5749C14.6849 58.5832 14.9273 54.5912 15.1412 50.5988C14.1208 49.0138 13.3794 47.3029 12.9171 45.4662C12.5914 44.1921 12.3063 42.909 12.0616 41.6168C11.8399 39.5861 11.5833 37.5616 11.2917 35.5432C10.5666 35.2497 9.81099 35.0644 9.02485 34.9872C8.86839 34.9638 8.74008 34.8925 8.63991 34.7733C8.41201 33.0956 8.34073 31.4133 8.42605 29.7263C8.52926 29.5595 8.67181 29.4312 8.85376 29.3413C11.1258 28.5935 13.3785 27.7951 15.6117 26.9461C17.1108 26.5494 18.6221 26.2072 20.1455 25.9196C17.1521 23.4974 16.0258 20.4036 16.7665 16.6382C17.3266 14.9375 18.4814 13.8968 20.231 13.5158C21.9637 13.1475 23.6176 13.3755 25.1925 14.2002C25.6819 14.604 26.1952 14.9747 26.7323 15.3122C27.2349 15.8432 27.7053 16.3992 28.1438 16.9803C28.1601 16.7915 28.2029 16.6204 28.2721 16.4671Z" fill="#1E1F1D"/>
<path fill-rule="evenodd" clip-rule="evenodd" d="M52.5662 14.6706C61.7392 14.3697 70.5502 15.995 78.9991 19.5466C81.4581 20.8914 83.7108 22.5309 85.757 24.4653C84.7065 24.2759 83.6514 24.0763 82.5919 23.8665C81.2612 23.6411 79.921 23.5128 78.5714 23.4816C74.9814 23.5328 71.7593 24.6306 68.905 26.775C66.8804 27.716 64.856 28.657 62.8314 29.5979C62.0388 30.1297 61.2261 30.6286 60.3935 31.0949C59.1804 30.7781 57.9685 30.4501 56.7579 30.1112C55.9024 30.0541 55.047 30.0541 54.1916 30.1112C53.0071 30.4787 51.8094 30.7638 50.5988 30.9666C50.0718 30.5748 49.5301 30.2041 48.9734 29.8546C46.7912 28.6779 44.5671 27.5943 42.3011 26.6039C41.3167 25.8689 40.2616 25.2416 39.136 24.722C34.2414 22.8567 29.337 22.8425 24.4225 24.6792C24.3352 24.6363 24.3209 24.5793 24.3798 24.5081C26.0316 22.499 27.9563 20.8166 30.1539 19.4611C32.7536 18.3617 35.434 17.492 38.195 16.852C40.9236 16.3021 43.661 15.7889 46.4071 15.3122C47.57 15.1205 48.7391 14.9922 49.9144 14.9273C50.8159 14.8966 51.6999 14.8111 52.5662 14.6706Z" fill="#A9C1D4"/>
<path fill-rule="evenodd" clip-rule="evenodd" d="M52.5664 14.6707C51.7 14.8111 50.816 14.8967 49.9146 14.9273C50.7762 14.7367 51.6601 14.6512 52.5664 14.6707Z" fill="#6F7A86"/>
<path fill-rule="evenodd" clip-rule="evenodd" d="M26.9888 18.2634C26.8923 18.5705 26.7497 18.8556 26.5611 19.1189C26.1603 19.3473 25.761 19.3331 25.3635 19.0761C25.1106 18.7271 24.8682 18.3706 24.6364 18.0068C24.5097 18.0899 24.4384 18.2039 24.4225 18.349C24.0983 18.0134 23.7846 18.0134 23.4816 18.349C23.3993 18.5 23.3708 18.671 23.396 18.8622C22.9272 18.9234 22.471 19.0374 22.0273 19.2044C22.1715 19.5358 22.3425 19.7924 22.5406 19.9743C22.0688 19.7695 21.5841 19.5984 21.0863 19.461C20.8774 19.4427 20.7349 19.5283 20.6586 19.7177C20.3688 19.6219 20.1265 19.4509 19.9315 19.2044C19.226 18.2716 18.8981 17.2165 18.9478 16.0393C19.8737 15.0513 21.0142 14.6949 22.3695 14.97C24.4395 15.334 25.9792 16.4319 26.9888 18.2634Z" fill="#AAC1D4"/>
<path fill-rule="evenodd" clip-rule="evenodd" d="M90.2907 24.2515C89.0854 24.2145 88.544 23.5871 88.6654 22.3695C89.0812 22.3968 89.4807 22.3683 89.863 22.284C90.3763 22.3266 90.5619 22.0984 90.4191 21.5996C90.3489 21.4865 90.2497 21.4295 90.1197 21.4285C89.5628 21.3715 88.9922 21.3145 88.4088 21.2575C88.7766 21.1866 89.147 21.1439 89.5209 21.1291C89.6671 20.9544 89.8382 20.8118 90.0341 20.7014C89.4943 20.629 88.952 20.572 88.4088 20.5303C88.0974 20.3759 87.8972 20.1336 87.81 19.8032C87.9323 19.2715 88.0752 18.744 88.2377 18.2207C88.2428 18.0743 88.1855 17.9603 88.0666 17.8785C87.869 17.836 87.6697 17.8218 87.4678 17.8357C87.1522 18.8387 86.7535 19.8082 86.2702 20.7442C86.1 20.702 86.1 20.6022 86.2702 20.4448C85.1203 20.1567 84.7068 19.4296 85.0298 18.2634C85.2612 17.5446 85.5602 16.8603 85.928 16.2104C86.3079 16.0124 86.7073 15.8555 87.1256 15.7399C90.6047 15.2563 92.2446 16.7533 92.0444 20.2309C91.7322 21.6972 91.1479 23.0374 90.2907 24.2515Z" fill="#A9C1D4"/>
<path fill-rule="evenodd" clip-rule="evenodd" d="M18.9477 16.0393C18.8981 17.2166 19.226 18.2716 19.9315 19.2044C20.1264 19.4509 20.3688 19.6219 20.6586 19.7177C20.637 19.9167 20.694 20.0878 20.8297 20.2309C21.7227 20.6061 22.5781 21.0481 23.396 21.5568C23.6936 21.7546 23.9502 21.997 24.1659 22.284C23.4841 23.2338 22.7713 24.1605 22.0273 25.0641C21.9133 25.1212 21.7991 25.1212 21.6851 25.0641C18.9965 23.1912 17.8417 20.6106 18.2206 17.3225C18.3776 16.8365 18.6199 16.4088 18.9477 16.0393Z" fill="#93A7B7"/>
<path fill-rule="evenodd" clip-rule="evenodd" d="M85.9283 16.2104C85.5604 16.8603 85.2615 17.5447 85.0301 18.2635C84.707 19.4296 85.1205 20.1567 86.2704 20.4448C86.1002 20.6022 86.1002 20.7021 86.2704 20.7442C86.0557 21.2445 85.7418 21.6722 85.3295 22.0274C84.2922 21.2821 83.2942 20.498 82.3354 19.6749C83.0338 18.6335 83.8608 17.6926 84.8162 16.852C85.1567 16.5821 85.5274 16.3683 85.9283 16.2104Z" fill="#93A7B6"/>
<path fill-rule="evenodd" clip-rule="evenodd" d="M26.9889 18.2635C27.314 18.5443 27.5278 18.8865 27.6305 19.29C26.7803 19.9261 25.9676 20.6104 25.1925 21.343C24.7089 20.4068 24.4523 19.4087 24.4226 18.349C24.4384 18.2039 24.5098 18.0899 24.6365 18.0068C24.8683 18.3707 25.1106 18.7271 25.3636 19.0761C25.7611 19.3331 26.1603 19.3474 26.5612 19.1189C26.7498 18.8557 26.8924 18.5706 26.9889 18.2635Z" fill="#92A6B6"/>
<path fill-rule="evenodd" clip-rule="evenodd" d="M23.4816 18.349C23.4961 19.0348 23.6101 19.7049 23.8238 20.3593C23.7953 20.4591 23.7667 20.5588 23.7382 20.6587C23.3137 20.4593 22.9144 20.2312 22.5406 19.9743C22.3426 19.7925 22.1715 19.5358 22.0273 19.2044C22.4711 19.0375 22.9273 18.9234 23.396 18.8623C23.3708 18.6711 23.3994 18.5 23.4816 18.349Z" fill="#92A5B5"/>
<path fill-rule="evenodd" clip-rule="evenodd" d="M87.8101 19.8032C87.8973 20.1336 88.0975 20.3759 88.4089 20.5303C88.9521 20.572 89.4944 20.629 90.0342 20.7014C89.8383 20.8118 89.6672 20.9544 89.5209 21.1291C89.1471 21.1439 88.7767 21.1866 88.4089 21.2575C88.9923 21.3145 89.5629 21.3715 90.1197 21.4285C89.1215 21.4285 88.124 21.4285 87.1257 21.4285C87.254 20.8439 87.4824 20.3021 87.8101 19.8032Z" fill="#8EA0AF"/>
<path fill-rule="evenodd" clip-rule="evenodd" d="M89.8631 22.284C89.4807 22.3684 89.0812 22.3968 88.6655 22.3696C88.544 23.5872 89.0855 24.2145 90.2908 24.2515C89.9991 24.6919 89.6851 25.1196 89.3498 25.5347C89.2455 25.6299 89.1308 25.6442 89.0076 25.5774C88.0898 24.6593 87.177 23.7468 86.2703 22.84C86.5662 22.5221 86.9375 22.351 87.3823 22.3268C88.2087 22.284 89.0359 22.2698 89.8631 22.284Z" fill="#91A5B4"/>
<path fill-rule="evenodd" clip-rule="evenodd" d="M33.6613 24.9358C33.1886 24.9084 32.7323 24.9369 32.2926 25.0214C32.0298 25.0485 31.7732 25.02 31.5227 24.9358C32.2491 24.8228 32.9619 24.8228 33.6613 24.9358Z" fill="#80807F"/>
<path fill-rule="evenodd" clip-rule="evenodd" d="M32.2925 25.0214C32.7322 24.9369 33.1885 24.9084 33.6612 24.9359C34.2054 24.976 34.7471 25.0331 35.2865 25.107C35.1355 25.1892 34.9644 25.2178 34.7732 25.1925C33.9422 25.179 33.1153 25.122 32.2925 25.0214Z" fill="#B1B1B1"/>
<path fill-rule="evenodd" clip-rule="evenodd" d="M80.1111 25.107C79.2253 25.0786 78.3414 25.1071 77.4593 25.1925C77.7389 25.277 78.0241 25.3055 78.3147 25.2781C78.3147 25.3066 78.3147 25.3351 78.3147 25.3636C77.1194 25.4795 75.9218 25.5509 74.7219 25.5775C76.4982 25.0461 78.2946 24.8893 80.1111 25.107Z" fill="#999999"/>
<path fill-rule="evenodd" clip-rule="evenodd" d="M80.1113 25.1069C80.3964 25.1069 80.6816 25.1069 80.9667 25.1069C80.8135 25.1762 80.6424 25.2189 80.4535 25.2353C79.7412 25.278 79.0283 25.2922 78.3149 25.278C78.0242 25.3054 77.739 25.2769 77.4595 25.1925C78.3416 25.107 79.2255 25.0785 80.1113 25.1069Z" fill="#CBCBCB"/>
<path opacity="0.996" fill-rule="evenodd" clip-rule="evenodd" d="M35.2865 25.1069C35.5112 25.1587 35.7392 25.2015 35.9708 25.2352C35.5557 25.305 35.1565 25.2907 34.7732 25.1925C34.9644 25.2177 35.1355 25.1891 35.2865 25.1069Z" fill="#6F6F6E"/>
<path opacity="0.992" fill-rule="evenodd" clip-rule="evenodd" d="M80.9665 25.1069C81.2499 25.1536 81.5351 25.1963 81.822 25.2352C80.6558 25.3474 79.4867 25.3902 78.3147 25.3636C78.3147 25.3351 78.3147 25.3065 78.3147 25.278C79.0281 25.2922 79.741 25.278 80.4533 25.2352C80.6422 25.2189 80.8132 25.1761 80.9665 25.1069Z" fill="#4B4B4B"/>
<path fill-rule="evenodd" clip-rule="evenodd" d="M34.2601 28.2721C31.5503 28.251 28.8414 28.2795 26.1335 28.3576C26.3735 28.2876 26.6301 28.2448 26.9034 28.2293C29.3702 28.1583 31.8224 28.1725 34.2601 28.2721Z" fill="#ADADAD"/>
<path fill-rule="evenodd" clip-rule="evenodd" d="M34.26 28.2721C34.8521 28.355 35.4509 28.412 36.0564 28.4432C36.1934 28.5778 36.3645 28.6349 36.5696 28.6143C36.9099 28.6792 37.252 28.7362 37.5962 28.7853C37.7685 28.9072 37.9681 28.9641 38.195 28.9564C39.9015 29.4042 41.5838 29.9175 43.242 30.4962C43.3732 30.6455 43.5442 30.731 43.7553 30.7528C44.1449 30.8842 44.4728 31.1123 44.739 31.4372C45.6057 32.9247 46.29 34.493 46.7921 36.1421C46.863 36.5387 46.9057 36.938 46.9204 37.3397C46.8972 37.7617 46.9542 38.1609 47.0915 38.5373C47.4356 41.7452 46.9509 44.8248 45.6372 47.7759C43.9397 51.284 41.3164 53.8646 37.7673 55.5176C36.4003 55.9309 35.0031 56.1732 33.5756 56.2447C32.1968 56.2738 30.8566 56.0599 29.5551 55.6031C25.8189 54.119 22.7536 51.7665 20.3592 48.5458C17.0943 42.164 17.6075 36.119 21.899 30.4107C22.4489 29.8174 23.0335 29.2757 23.6526 28.7853C23.8999 28.7081 24.1566 28.6796 24.4225 28.6998C24.8383 28.6457 25.2375 28.5601 25.6201 28.4432C25.7856 28.3876 25.9567 28.3591 26.1334 28.3576C28.8412 28.2795 31.5501 28.251 34.26 28.2721Z" fill="#FDFDFD"/>
<path fill-rule="evenodd" clip-rule="evenodd" d="M83.8751 28.5287C83.8751 28.5572 83.8751 28.5857 83.8751 28.6142C81.1083 28.5938 78.3424 28.6223 75.5774 28.6998C75.7886 28.6299 76.0167 28.5871 76.2617 28.5714C78.7994 28.5287 81.3371 28.5144 83.8751 28.5287Z" fill="#A5A5A5"/>
<path fill-rule="evenodd" clip-rule="evenodd" d="M83.875 28.6142C83.875 28.5857 83.875 28.5572 83.875 28.5287C85.9905 28.6153 88.0435 29.0288 90.0341 29.7691C90.8639 30.0869 91.6055 30.5431 92.2582 31.1378C92.4824 31.3179 92.6534 31.5318 92.7715 31.7793C92.1907 31.3557 91.6201 30.9138 91.0606 30.4534C90.4071 30.1977 89.7518 29.9553 89.0931 29.7263C87.3797 29.2126 85.6406 28.8419 83.875 28.6142Z" fill="#3B3B3B"/>
<path fill-rule="evenodd" clip-rule="evenodd" d="M83.8751 28.6142C85.6407 28.8419 87.3798 29.2126 89.0932 29.7263C89.0787 29.8393 89.1069 29.9392 89.1788 30.0257C90.8811 30.8155 92.0924 32.0844 92.8144 33.8323C93.1181 34.6392 93.3465 35.4661 93.4987 36.3131C93.8828 42.2026 92.2575 47.4494 88.6228 52.053C87.6253 53.1362 86.4987 54.063 85.2438 54.8332C83.9921 55.4883 82.7089 56.0443 81.3944 56.5013C81.3373 56.5013 81.2803 56.5013 81.2233 56.5013C80.6108 56.5364 80.012 56.4652 79.4269 56.2874C76.9811 55.521 74.757 54.3518 72.7545 52.7801C71.4631 51.774 70.2797 50.6477 69.2045 49.4012C66.3849 45.0661 65.7575 40.4183 67.3225 35.4577C68.0719 33.6162 69.0414 31.9053 70.231 30.3251C70.443 30.1141 70.6569 29.9145 70.8725 29.7263C71.8464 29.3921 72.8444 29.1641 73.8666 29.0419C74.2897 29.0233 74.689 28.9378 75.0642 28.7853C75.2352 28.7568 75.4063 28.7282 75.5774 28.6997C78.3424 28.6222 81.1083 28.5937 83.8751 28.6142Z" fill="#FDFDFD"/>
<path fill-rule="evenodd" clip-rule="evenodd" d="M75.0641 28.7852C74.6889 28.9378 74.2896 29.0233 73.8665 29.0419C74.2346 28.8605 74.6339 28.775 75.0641 28.7852Z" fill="#979797"/>
<path fill-rule="evenodd" clip-rule="evenodd" d="M23.6527 28.7853C23.0335 29.2756 22.449 29.8174 21.8991 30.4106C17.6076 36.1189 17.0944 42.1639 20.3593 48.5458C22.7537 51.7665 25.819 54.1189 29.5552 55.6031C30.8567 56.0599 32.1969 56.2737 33.5757 56.2446C33.4809 56.3122 33.3668 56.355 33.2335 56.373C30.7494 56.6374 28.3257 56.3807 25.9624 55.6031C25.3205 55.3029 24.6646 55.0178 23.9949 54.7476C22.7402 54.0348 21.4856 53.3219 20.231 52.6091C17.8637 50.0285 16.4951 46.9917 16.1249 43.4987C16.1367 43.0783 16.0797 42.6791 15.9538 42.3011C15.324 38.3485 16.1366 34.7272 18.3918 31.4371C18.8908 30.9951 19.3898 30.5532 19.8888 30.1112C20.1861 29.9338 20.4998 29.8055 20.8298 29.7263C21.0452 29.6609 21.2448 29.5754 21.4286 29.4696C22.1428 29.1555 22.8842 28.9275 23.6527 28.7853Z" fill="#D8D8D8"/>
<path fill-rule="evenodd" clip-rule="evenodd" d="M89.0932 29.7263C89.7519 29.9553 90.4071 30.1977 91.0607 30.4534C91.6201 30.9138 92.1907 31.3557 92.7715 31.7794C94.035 33.4876 94.834 35.398 95.1667 37.5107C95.1864 39.451 95.1582 41.39 95.0812 43.3277C94.9058 45.198 94.4499 46.9944 93.7125 48.7169C93.165 49.7258 92.5945 50.7238 92.0016 51.7109C91.5936 52.1618 91.1659 52.6038 90.7185 53.0368C89.6586 53.5374 88.6612 54.1219 87.7245 54.7905C87.3173 54.8838 86.9469 55.0549 86.6124 55.3037C85.3488 55.7973 84.0656 56.1966 82.763 56.5013C82.7345 56.5013 82.7059 56.5013 82.6774 56.5013C82.2497 56.5013 81.822 56.5013 81.3943 56.5013C82.7088 56.0444 83.992 55.4883 85.2437 54.8332C86.4987 54.063 87.6253 53.1362 88.6227 52.0531C92.2574 47.4494 93.8827 42.2027 93.4986 36.3131C93.3464 35.4662 93.118 34.6392 92.8143 33.8324C92.0923 32.0845 90.881 30.8155 89.1787 30.0257C89.1069 29.9392 89.0786 29.8394 89.0932 29.7263Z" fill="#CBCBCB"/>
<path fill-rule="evenodd" clip-rule="evenodd" d="M70.8725 29.7263C70.6569 29.9146 70.443 30.1142 70.2309 30.3251C69.0414 31.9054 68.0718 33.6162 67.3225 35.4577C65.7575 40.4184 66.3848 45.0662 69.2044 49.4013C70.2797 50.6478 71.463 51.7741 72.7545 52.7802C74.7569 54.3519 76.9811 55.521 79.4268 56.2875C80.0119 56.4652 80.6107 56.5365 81.2232 56.5013C80.3581 56.6485 79.4742 56.7055 78.5714 56.6724C78.0271 56.6804 77.4853 56.6519 76.9461 56.5869C76.9103 56.5251 76.8533 56.4823 76.775 56.4586C76.4912 56.416 76.2061 56.4017 75.9196 56.4158C74.5391 56.2551 73.256 55.8131 72.0701 55.0899C66.1561 51.2599 63.4615 45.7994 63.9863 38.7084C64.277 36.0102 65.1752 33.5437 66.6809 31.3089C68.0069 30.5865 69.4042 30.0591 70.8725 29.7263Z" fill="#D9D9D9"/>
<path fill-rule="evenodd" clip-rule="evenodd" d="M58.8109 35.7998C58.2963 35.6235 57.7831 35.4382 57.2711 35.2438C56.2542 35.038 55.2276 34.9809 54.1915 35.0727C53.3501 35.415 52.4947 35.7144 51.6252 35.9709C51.664 35.889 51.721 35.8176 51.7963 35.7571C52.9914 35.1922 54.246 34.8643 55.5602 34.7733C56.6124 34.7868 57.6104 35.0293 58.5542 35.5004C58.719 35.5365 58.8045 35.6364 58.8109 35.7998Z" fill="#2D3032"/>
<path fill-rule="evenodd" clip-rule="evenodd" d="M29.8118 34.8589C31.9455 34.5916 33.3284 35.4755 33.9607 37.5108C34.1396 39.2183 33.6691 40.7153 32.5492 42.0018C30.2943 43.3807 28.4266 42.9673 26.9461 40.7614C25.9549 38.7645 26.3398 37.0964 28.101 35.7571C28.6684 35.4309 29.2387 35.1315 29.8118 34.8589Z" fill="#1D1D1B"/>
<path fill-rule="evenodd" clip-rule="evenodd" d="M80.9666 34.8589C83.1409 34.5982 84.5239 35.5107 85.1154 37.5962C85.2089 38.9382 84.9238 40.1928 84.26 41.3601C82.8001 43.0195 81.132 43.2619 79.2557 42.0873C77.8135 40.8688 77.3145 39.3432 77.7587 37.5107C78.5115 36.2292 79.5808 35.3453 80.9666 34.8589Z" fill="#1D1D1B"/>
<path fill-rule="evenodd" clip-rule="evenodd" d="M58.811 35.7998C58.9913 35.9332 59.1909 36.0472 59.4098 36.142C59.4146 39.4315 59.771 42.6821 60.479 45.8939C60.727 46.7805 61.0264 47.6502 61.3773 48.503C61.3713 48.5685 61.3428 48.6112 61.2917 48.6313C60.9343 48.3672 60.5351 48.1961 60.0941 48.1181C60.2156 46.9342 59.7593 46.0788 58.7254 45.5518C58.8275 45.5116 58.8845 45.426 58.8965 45.2951C58.691 43.8997 58.5057 42.5024 58.3405 41.1035C57.8817 38.6793 56.5558 36.9257 54.3627 35.8426C53.3568 35.6174 52.4871 35.8597 51.7536 36.5697C51.7163 37.6119 51.645 38.6384 51.5398 39.6493C51.5116 38.4081 51.5401 37.182 51.6253 35.9709C52.4948 35.7144 53.3502 35.415 54.1916 35.0727C55.2277 34.9809 56.2542 35.038 57.2712 35.2438C57.7832 35.4382 58.2964 35.6235 58.811 35.7998Z" fill="#8699A8"/>
<path fill-rule="evenodd" clip-rule="evenodd" d="M58.7255 45.5518C56.6132 44.6341 54.4461 44.4773 52.2242 45.0813C51.673 45.2855 51.1598 45.5564 50.6844 45.8939C50.6559 45.8512 50.6274 45.8084 50.5989 45.7656C50.8588 44.7939 51.0584 43.8102 51.1977 42.8144C51.3474 42.4993 51.4044 42.1571 51.3688 41.7879C51.4258 41.075 51.4828 40.3621 51.5399 39.6493C51.6451 38.6384 51.7163 37.6119 51.7537 36.5697C52.4872 35.8597 53.3569 35.6174 54.3628 35.8426C56.5558 36.9257 57.8818 38.6793 58.3405 41.1035C58.5057 42.5024 58.6911 43.8997 58.8966 45.2951C58.8846 45.426 58.8275 45.5115 58.7255 45.5518Z" fill="#A9C1D4"/>
<path fill-rule="evenodd" clip-rule="evenodd" d="M79.7691 36.3986C81.1095 36.2974 81.5515 36.8677 81.095 38.1095C80.4511 38.6205 79.8809 38.5635 79.3842 37.9384C79.1272 37.3245 79.2555 36.8112 79.7691 36.3986Z" fill="#E7EDF1"/>
<path fill-rule="evenodd" clip-rule="evenodd" d="M95.1668 37.5107C95.2524 39.2353 95.2806 40.9746 95.2524 42.7289C95.1951 42.9284 95.1386 43.1281 95.0813 43.3277C95.1583 41.39 95.1865 39.4509 95.1668 37.5107Z" fill="#929292"/>
<path fill-rule="evenodd" clip-rule="evenodd" d="M51.3686 41.7878C51.4043 42.1571 51.3472 42.4993 51.1975 42.8144C51.1619 42.4451 51.2189 42.1029 51.3686 41.7878Z" fill="#525B62"/>
<path fill-rule="evenodd" clip-rule="evenodd" d="M15.9539 42.3011C16.0798 42.6792 16.1368 43.0784 16.125 43.4988C15.9991 43.1207 15.9421 42.7215 15.9539 42.3011Z" fill="#929291"/>
<path fill-rule="evenodd" clip-rule="evenodd" d="M95.2524 42.7289C95.1746 44.4723 94.8469 46.1831 94.2687 47.8615C94.1455 48.196 93.9599 48.4811 93.7126 48.7169C94.45 46.9944 94.906 45.198 95.0813 43.3277C95.1387 43.1281 95.1951 42.9285 95.2524 42.7289Z" fill="#343434"/>
<path fill-rule="evenodd" clip-rule="evenodd" d="M58.811 35.7998C59.1393 35.8051 59.4387 35.8907 59.7092 36.0564C59.5447 39.1709 59.8014 42.2504 60.4791 45.2951C60.7703 46.3114 61.1125 47.3093 61.5056 48.2891C61.5627 48.4602 61.5627 48.6313 61.5056 48.8024C61.4205 48.754 61.3493 48.6969 61.2918 48.6313C61.3429 48.6112 61.3713 48.5684 61.3773 48.503C61.0265 47.6502 60.7271 46.7805 60.4791 45.8939C59.7711 42.6821 59.4146 39.4315 59.4098 36.142C59.1909 36.0472 58.9914 35.9332 58.811 35.7998Z" fill="#2D2F32"/>
<path fill-rule="evenodd" clip-rule="evenodd" d="M54.2772 46.3216C53.8209 46.5434 53.436 46.857 53.1224 47.2626C52.9095 47.9647 53.0949 48.5493 53.6784 49.0162C54.3271 49.6257 55.097 49.9536 55.9881 50C53.9247 50.4869 52.2851 49.8596 51.0693 48.118C50.9464 47.6412 51.1032 47.2848 51.5398 47.0488C52.376 46.5181 53.2884 46.2758 54.2772 46.3216Z" fill="#434140"/>
<path fill-rule="evenodd" clip-rule="evenodd" d="M55.9881 50C55.0971 49.9536 54.3272 49.6257 53.6785 49.0162C53.095 48.5493 52.9096 47.9647 53.1224 47.2626C53.436 46.8569 53.821 46.5433 54.2773 46.3216C55.692 46.1258 57.0321 46.3682 58.2978 47.0487C58.5343 47.3049 58.6056 47.6043 58.5116 47.9469C58.0144 49.0575 57.1732 49.7419 55.9881 50Z" fill="#585654"/>
<path fill-rule="evenodd" clip-rule="evenodd" d="M56.3301 46.835C57.4161 46.943 57.8724 47.5275 57.6988 48.5886C57.5753 48.6554 57.4613 48.6411 57.3566 48.5458C57.2332 47.9949 56.9195 47.5957 56.4157 47.3482C56.333 47.186 56.3045 47.0149 56.3301 46.835Z" fill="#1D1D1B"/>
<path fill-rule="evenodd" clip-rule="evenodd" d="M56.2446 55.047C56.1436 54.913 56.001 54.8416 55.8169 54.8331C54.4761 54.7909 53.1359 54.7338 51.7963 54.6621C51.153 54.3916 51.0247 53.9497 51.4114 53.3361C51.8531 52.7237 52.4377 52.3103 53.165 52.0958C53.8425 52.0179 54.4983 51.8896 55.1325 51.7108C56.4577 51.6183 57.6267 51.1478 58.6398 50.2994C58.9164 50.0228 59.1873 49.7519 59.4525 49.4867C59.921 49.557 60.3344 49.7424 60.6928 50.0427C61.8289 50.9326 62.4847 52.0875 62.6603 53.5072C62.6308 55.2048 61.7754 55.9319 60.094 55.6886C58.8377 55.3081 57.5546 55.0942 56.2446 55.047Z" fill="#C9BAAA"/>
<path fill-rule="evenodd" clip-rule="evenodd" d="M55.1327 51.7109C54.4985 51.8897 53.8426 52.018 53.1652 52.0958C52.4378 52.3104 51.8533 52.7238 51.4116 53.3362C51.0248 53.9497 51.1532 54.3916 51.7965 54.6621C53.136 54.7339 54.4762 54.7909 55.8171 54.8332C56.0012 54.8417 56.1437 54.913 56.2448 55.0471C55.6453 55.0329 55.0465 55.0471 54.4484 55.0898C53.2564 55.3921 52.0873 55.7628 50.9411 56.2019C50.1175 56.4214 49.3191 56.3643 48.5459 56.0308C48.0301 55.4811 47.802 54.8253 47.8615 54.0633C47.9284 53.1161 48.2278 52.2465 48.7597 51.4543C49.1703 50.9579 49.6123 50.4874 50.0857 50.0428C50.2452 49.9315 50.4163 49.9029 50.5989 49.9572C51.864 51.1595 53.3753 51.744 55.1327 51.7109Z" fill="#93897D"/>
<path fill-rule="evenodd" clip-rule="evenodd" d="M26.5613 58.6399C26.6561 58.7074 26.7702 58.7502 26.9034 58.7682C28.0018 58.8389 29.0854 58.8246 30.1541 58.7254C32.4449 58.7813 34.7261 58.7099 36.9975 58.5116C40.5916 57.8768 43.6569 56.2657 46.1934 53.6784C46.1996 54.6443 46.4135 55.5568 46.835 56.4157C47.0629 57.1137 47.4336 57.7267 47.9471 58.2549C48.5289 58.5441 49.1277 58.8008 49.7435 59.0248C50.1712 59.2244 50.4849 59.5381 50.6845 59.9658C50.7655 60.0071 50.8511 60.0213 50.9411 60.0086C51.1098 60.9163 51.509 61.7146 52.1387 62.4038C52.1988 62.5933 52.3129 62.7501 52.4809 62.8743C54.3608 63.8388 56.2428 63.8388 58.1267 62.8743C58.2399 62.8045 58.2969 62.7046 58.2978 62.5749C58.7507 62.1846 59.0786 61.6998 59.2815 61.1206C59.4103 60.7188 59.5386 60.3197 59.6665 59.923C59.9919 59.6164 60.2342 59.2458 60.3936 58.811C60.5504 58.6542 60.7073 58.4973 60.8641 58.3405C62.0932 58.1327 62.9629 57.4626 63.4732 56.3302C63.5151 56.2196 63.5294 56.1055 63.5159 55.988C63.9988 55.1404 64.2697 54.2279 64.3286 53.2506C66.4389 55.7676 69.0766 57.4784 72.2413 58.3832C72.4886 58.5743 72.7737 58.6883 73.0968 58.7254C77.6068 60.6279 82.1691 60.7562 86.7837 59.1104C87.9539 58.5944 89.0087 57.9101 89.9488 57.0573C91.2174 56.4229 92.3295 55.5818 93.285 54.5338C93.498 55.9216 93.6263 57.3188 93.6699 58.7254C93.7127 60.2934 93.7272 61.8618 93.7127 63.4303C88.6947 65.2027 83.5909 66.6715 78.4005 67.8358C70.4413 69.1873 62.4858 70.5415 54.5339 71.8991C53.1655 71.6339 51.7968 71.3627 50.4278 71.0864C43.2815 70.0941 36.1814 68.8392 29.1276 67.3225C24.7507 66.2926 20.4451 65.0092 16.2105 63.4731C16.1549 63.1379 16.1264 62.7957 16.125 62.4465C16.1971 59.2861 16.3968 56.1353 16.7238 52.994C17.2496 53.6198 17.7915 54.2329 18.3491 54.8332C20.1445 56.2248 22.112 57.3369 24.2516 58.1694C25.0065 58.4087 25.7764 58.5656 26.5613 58.6399Z" fill="#A9C1D4"/>
<path fill-rule="evenodd" clip-rule="evenodd" d="M92.0018 51.7108C91.7511 52.3755 91.3234 52.903 90.7186 53.2934C89.9205 53.7496 89.1215 54.2059 88.3234 54.6621C88.1318 54.7456 87.9325 54.7884 87.7246 54.7904C88.6613 54.1218 89.6587 53.5372 90.7186 53.0367C91.166 52.6037 91.5937 52.1617 92.0018 51.7108Z" fill="#383838"/>
<path fill-rule="evenodd" clip-rule="evenodd" d="M86.6124 55.3037C86.5747 55.4384 86.4892 55.5382 86.3558 55.6031C85.2192 56.1439 84.0216 56.4433 82.7629 56.5013C84.0656 56.1965 85.3487 55.7973 86.6124 55.3037Z" fill="#373737"/>
<path fill-rule="evenodd" clip-rule="evenodd" d="M63.5159 55.988C63.5294 56.1055 63.5151 56.2196 63.4732 56.3302C62.9629 57.4626 62.0932 58.1327 60.8641 58.3405C60.7073 58.4973 60.5504 58.6542 60.3936 58.811C60.2343 59.2458 59.9919 59.6164 59.6665 59.923C59.7236 59.0105 59.7805 58.0981 59.8376 57.1856C61.2707 57.3772 62.4968 56.9779 63.5159 55.988Z" fill="#92A5B5"/>
<path fill-rule="evenodd" clip-rule="evenodd" d="M75.9197 56.4158C76.2062 56.4017 76.4914 56.416 76.7751 56.4586C76.8535 56.4823 76.9104 56.5251 76.9462 56.5869C76.5841 56.5835 76.2419 56.5266 75.9197 56.4158Z" fill="#8E8E8E"/>
<path opacity="0.996" fill-rule="evenodd" clip-rule="evenodd" d="M57.0146 56.5868C56.5584 56.5868 56.1021 56.5868 55.6459 56.5868C55.6459 56.7294 55.6459 56.8719 55.6459 57.0145C55.5637 56.8635 55.5352 56.6924 55.5604 56.5012C56.0615 56.4737 56.5463 56.5022 57.0146 56.5868Z" fill="#727270"/>
<path fill-rule="evenodd" clip-rule="evenodd" d="M46.835 56.4158C47.8581 57.6694 49.1698 58.1256 50.7699 57.7845C50.8479 58.5247 50.9049 59.266 50.941 60.0086C50.851 60.0213 50.7655 60.0071 50.6844 59.9658C50.4848 59.5381 50.1711 59.2244 49.7434 59.0248C49.1277 58.8008 48.5289 58.5442 47.947 58.255C47.4335 57.7267 47.0628 57.1137 46.835 56.4158Z" fill="#90A4B3"/>
<path fill-rule="evenodd" clip-rule="evenodd" d="M57.0146 56.5868C57.4378 56.6054 57.8371 56.6909 58.2122 56.8434C57.8611 56.8207 57.5189 56.8634 57.1857 56.9717C56.5836 57.3875 56.1274 57.9149 55.817 58.5543C55.6838 58.0615 55.6268 57.5482 55.6459 57.0145C55.6459 56.8719 55.6459 56.7294 55.6459 56.5868C56.1021 56.5868 56.5584 56.5868 57.0146 56.5868Z" fill="#B6B6B6"/>
<path fill-rule="evenodd" clip-rule="evenodd" d="M81.2234 56.5012C81.2804 56.5012 81.3374 56.5012 81.3945 56.5012C81.8222 56.5012 82.2499 56.5012 82.6776 56.5012C82.214 56.6333 81.7293 56.7046 81.2234 56.7151C80.3245 56.7857 79.4405 56.7715 78.5715 56.6723C79.4744 56.7054 80.3583 56.6484 81.2234 56.5012Z" fill="#8C8C8B"/>
<path fill-rule="evenodd" clip-rule="evenodd" d="M54.7903 58.2121C54.713 58.1515 54.6845 58.0659 54.7048 57.9555C54.4684 57.9764 54.2832 58.0904 54.1488 58.2977C53.7064 59.0056 53.5638 59.7755 53.7211 60.6074C53.8331 60.9127 53.9044 61.2264 53.9349 61.5483C53.4318 61.4746 53.0469 61.218 52.7801 60.7784C52.4241 59.6652 52.31 58.5246 52.4379 57.3567C53.1167 56.9907 53.8438 56.7626 54.6193 56.6724C54.6523 57.1885 54.7093 57.7018 54.7903 58.2121Z" fill="#B6B6B6"/>
<path fill-rule="evenodd" clip-rule="evenodd" d="M58.2121 56.8435C58.3982 58.2097 58.2413 59.55 57.7416 60.864C57.3905 61.3319 56.9201 61.5885 56.3302 61.6339C56.1876 61.6339 56.045 61.6339 55.9024 61.6339C55.9024 61.5198 55.9024 61.4057 55.9024 61.2917C55.9203 60.3769 55.8917 59.4645 55.8169 58.5543C56.1272 57.915 56.5834 57.3875 57.1856 56.9718C57.5188 56.8635 57.8609 56.8207 58.2121 56.8435Z" fill="#F8F8F8"/>
<path fill-rule="evenodd" clip-rule="evenodd" d="M54.7903 58.2122C54.9588 59.3428 55.0016 60.4835 54.9186 61.6339C54.5715 61.7561 54.2436 61.7276 53.9349 61.5484C53.9043 61.2265 53.8331 60.9128 53.721 60.6074C53.5638 59.7756 53.7064 59.0057 54.1487 58.2977C54.2831 58.0905 54.4684 57.9764 54.7048 57.9556C54.6845 58.066 54.713 58.1515 54.7903 58.2122Z" fill="#F1F1F1"/>
<path fill-rule="evenodd" clip-rule="evenodd" d="M72.2412 58.3832C72.588 58.3838 72.8731 58.4978 73.0966 58.7254C72.7735 58.6882 72.4884 58.5742 72.2412 58.3832Z" fill="#5A656D"/>
<path opacity="0.992" fill-rule="evenodd" clip-rule="evenodd" d="M55.9025 61.2917C55.9025 61.4058 55.9025 61.5199 55.9025 61.6339C56.0451 61.6339 56.1876 61.6339 56.3302 61.6339C56.1793 61.7161 56.0082 61.7447 55.817 61.7195C55.7927 61.5556 55.8212 61.4131 55.9025 61.2917Z" fill="#787877"/>
<path fill-rule="evenodd" clip-rule="evenodd" d="M52.1387 62.4038C52.8961 62.9698 53.7515 63.2264 54.705 63.1737C55.5932 63.1544 56.4772 63.083 57.3568 62.9598C57.6764 62.8392 57.99 62.7109 58.2978 62.5749C58.2968 62.7047 58.2399 62.8045 58.1267 62.8743C56.2428 63.8388 54.3608 63.8388 52.4808 62.8743C52.3128 62.7502 52.1988 62.5934 52.1387 62.4038Z" fill="#8EA1AF"/>
<path fill-rule="evenodd" clip-rule="evenodd" d="M14.5852 64.2002C22.0407 66.9051 29.6825 68.9153 37.5107 70.231C42.9312 71.1292 48.3489 72.0274 53.7639 72.9256C53.7193 73.1882 53.648 73.4448 53.5501 73.6955C52.5911 75.3961 51.7072 77.1352 50.8982 78.9136C50.8182 79.2224 50.7754 79.5364 50.7699 79.8546C50.0724 79.8469 49.3881 79.7468 48.7169 79.5552C44.659 78.2626 40.5814 77.0368 36.4842 75.8768C30.3872 74.3576 24.2852 72.8743 18.178 71.4286C16.9095 71.0933 15.7404 70.5518 14.6707 69.8033C13.8988 68.9983 13.628 68.0428 13.858 66.9376C14.1006 66.024 14.3431 65.1115 14.5852 64.2002Z" fill="#E6E6EF"/>
<path fill-rule="evenodd" clip-rule="evenodd" d="M93.7125 70.2737C93.9221 69.769 94.1069 69.2558 94.2685 68.7339C94.3258 68.2207 94.3258 67.7074 94.2685 67.1942C94.165 67.0616 94.0367 66.9615 93.8836 66.8948C93.4841 66.8092 93.0855 66.7237 92.686 66.6381C93.1667 66.4705 93.5808 66.2002 93.9264 65.8255C94.1051 65.2637 93.9058 65.0071 93.3276 65.0556C93.0547 65.0765 92.7844 65.1049 92.5149 65.1411C93.0795 64.8458 93.6783 64.6176 94.3113 64.4568C94.3686 64.4853 94.4251 64.5138 94.4824 64.5423C95.0239 65.5252 95.366 66.5663 95.5089 67.6647C95.4379 67.9889 95.3669 68.3174 95.295 68.6484C94.9828 69.4029 94.455 69.9444 93.7125 70.2737Z" fill="#B6B6BE"/>
<path fill-rule="evenodd" clip-rule="evenodd" d="M93.7126 70.2737C92.9034 70.8152 92.0197 71.2002 91.0608 71.4286C83.4357 73.1779 75.8509 75.0881 68.3063 77.16C65.9672 77.9016 63.629 78.6433 61.2917 79.3841C60.5181 79.5363 59.7482 79.6929 58.9821 79.8546C58.884 79.8272 58.8126 79.7707 58.7682 79.6835C58.6815 79.2489 58.5674 78.8212 58.426 78.4003C57.938 77.5381 57.496 76.6544 57.1001 75.7485C57.0571 75.3764 57 75.006 56.929 74.6364C56.9261 74.3858 56.9974 74.1574 57.1429 73.9521C57.7949 73.2857 58.5506 72.7724 59.4098 72.4123C59.4781 72.373 59.5065 72.3165 59.4953 72.2412C59.7009 72.2455 59.9005 72.2173 60.0941 72.1557C60.472 72.1753 60.8142 72.0898 61.1207 71.899C67.4514 70.9957 73.7531 69.9264 80.0257 68.6912C84.2581 67.7391 88.4209 66.556 92.515 65.1411C92.7845 65.1049 93.0548 65.0765 93.3277 65.0556C93.9059 65.0071 94.1053 65.2637 93.9265 65.8255C93.5809 66.2002 93.1669 66.4705 92.6861 66.6381C93.0856 66.7237 93.4842 66.8092 93.8837 66.8948C94.0368 66.9615 94.1651 67.0616 94.2687 67.1942C94.326 67.7074 94.326 68.2207 94.2687 68.7339C94.107 69.2558 93.9222 69.769 93.7126 70.2737Z" fill="#E7E7EF"/>
<path fill-rule="evenodd" clip-rule="evenodd" d="M47.8614 80.5389C48.3698 81.2292 49.0542 81.6706 49.9144 81.8648C50.0672 81.9315 50.1955 82.0316 50.2994 82.1642C50.3564 82.6202 50.3564 83.077 50.2994 83.5329C49.8024 85.6142 49.4888 87.7245 49.3584 89.8631C49.3261 92.2455 49.2549 94.6261 49.1445 97.006C49.1588 97.3909 49.173 97.7758 49.1873 98.1608C49.3363 98.5654 49.4931 98.9649 49.6578 99.3584C38.4231 99.3584 27.1884 99.3584 15.9538 99.3584C15.9253 97.2472 15.9538 95.1377 16.0393 93.0282C17.7809 92.0539 18.394 90.5996 17.8785 88.6655C17.339 87.6732 16.6546 86.7895 15.8254 86.0137C15.3221 81.1813 15.0227 76.3336 14.9272 71.4713C15.7296 71.8434 16.5566 72.1711 17.408 72.4551C22.9344 73.822 28.4663 75.1625 34.0034 76.4756C38.6559 77.7245 43.2752 79.0787 47.8614 80.5389Z" fill="#E7E7F0"/>
<path fill-rule="evenodd" clip-rule="evenodd" d="M94.1402 71.5569C94.2326 74.6074 94.3181 77.6587 94.3968 80.71C94.4113 82.4209 94.3968 84.1317 94.354 85.8426C93.8374 86.373 93.3104 86.8862 92.7715 87.3824C93.1077 86.4089 93.3498 85.4106 93.4986 84.3884C93.5268 81.7365 93.5559 79.0847 93.5841 76.4328C93.603 75.0325 93.674 73.6356 93.798 72.2412C93.7971 72.0813 93.7689 71.9384 93.7125 71.8135C93.8322 71.6946 93.9751 71.6091 94.1402 71.5569Z" fill="#B9B9C1"/>
<path fill-rule="evenodd" clip-rule="evenodd" d="M95.6802 71.728C99.3885 73.1403 102.14 75.6211 103.935 79.1703C104.257 80.0009 104.471 80.8563 104.577 81.7366C104.302 81.7631 104.045 81.7349 103.807 81.651C103.945 81.5364 103.987 81.3944 103.935 81.2233C103.714 81.1061 103.501 80.9778 103.294 80.8384C102.389 80.6622 101.477 80.5475 100.556 80.4962C99.1926 80.2165 98.2371 79.432 97.6904 78.1438C96.9402 76.0214 96.2704 73.8829 95.6802 71.728Z" fill="#E7E7EF"/>
<path fill-rule="evenodd" clip-rule="evenodd" d="M93.7125 71.8135C93.769 71.9384 93.7972 72.0812 93.798 72.2412C93.674 73.6355 93.603 75.0325 93.5842 76.4328C93.556 79.0846 93.5269 81.7365 93.4986 84.3883C93.3498 85.4106 93.1077 86.4089 92.7715 87.3823C92.4507 87.8622 92.1804 88.3755 91.9589 88.9221C91.8819 89.6441 91.9246 90.3567 92.0872 91.0607C92.1625 92.0752 92.4619 93.0162 92.9854 93.8836C93.1992 94.2113 93.4704 94.4824 93.798 94.6963C94.0418 94.8066 94.2985 94.8494 94.5679 94.8246C94.5679 96.3361 94.5679 97.8468 94.5679 99.3584C82.5634 99.3584 70.5588 99.3584 58.5542 99.3584C58.0494 93.4858 57.5647 87.6116 57.1 81.7365C57.0729 81.4739 57.1014 81.2172 57.1855 80.9666C57.2357 80.9846 57.2784 81.0128 57.3139 81.0521C57.3719 81.7074 57.4147 82.3635 57.4422 83.0196C57.9442 83.0581 58.4289 82.9871 58.8964 82.8058C65.2732 80.248 71.7175 77.9238 78.2292 75.834C82.7589 74.6946 87.2925 73.568 91.8305 72.4551C92.4507 72.2164 93.0778 72.0025 93.7125 71.8135Z" fill="#E7E7F0"/>
<path fill-rule="evenodd" clip-rule="evenodd" d="M11.9332 81.9076C11.3924 81.6997 10.8221 81.6142 10.2223 81.6509C8.62393 81.6304 7.02714 81.6595 5.43188 81.7365C5.47295 80.745 5.71532 79.8041 6.159 78.9136C7.81268 75.6484 10.3077 73.2823 13.644 71.8135C13.7788 74.8083 13.9071 77.8024 14.029 80.7955C13.7853 81.1984 13.6 81.6261 13.4729 82.0787C12.9506 82.0889 12.4374 82.0325 11.9332 81.9076Z" fill="#E6E6EE"/>
<path fill-rule="evenodd" clip-rule="evenodd" d="M61.1205 71.899C60.814 72.0898 60.4718 72.1754 60.094 72.1557C60.4162 72.0248 60.7584 71.9393 61.1205 71.899Z" fill="#A1A1A6"/>
<path fill-rule="evenodd" clip-rule="evenodd" d="M59.4952 72.2412C59.5064 72.3165 59.4779 72.3729 59.4097 72.4123C58.5505 72.7724 57.7948 73.2857 57.1428 73.9521C56.9972 74.1574 56.926 74.3858 56.9289 74.6364C56.9999 75.006 57.057 75.3764 57.1 75.7485C56.4845 74.917 55.9997 74.0051 55.6458 73.0111C56.9023 72.6356 58.1854 72.3789 59.4952 72.2412Z" fill="#B3B3BA"/>
<path fill-rule="evenodd" clip-rule="evenodd" d="M95.68 71.728C96.2703 73.8829 96.9401 76.0214 97.6903 78.1438C98.2369 79.432 99.1925 80.2165 100.556 80.4962C101.476 80.5475 102.389 80.6622 103.293 80.8384C103.5 80.9778 103.714 81.1061 103.935 81.2233C103.987 81.3944 103.944 81.5364 103.807 81.651C102.295 81.6365 100.784 81.651 99.2729 81.6938C98.4722 81.8084 97.6732 81.9368 96.8777 82.0788C96.769 82.0728 96.6689 82.0445 96.5783 81.9932C96.2865 81.3807 95.9726 80.7819 95.6373 80.1968C95.5663 77.3593 95.5808 74.5364 95.68 71.728Z" fill="#B8B8C0"/>
<path fill-rule="evenodd" clip-rule="evenodd" d="M54.7048 74.2087C55.3026 75.29 55.9014 76.3738 56.5012 77.4594C55.794 78.1745 54.9385 78.4166 53.9349 78.1865C53.5141 78.0496 53.2005 77.793 52.9939 77.4166C53.548 76.3362 54.1183 75.2669 54.7048 74.2087Z" fill="#333332"/>
<path fill-rule="evenodd" clip-rule="evenodd" d="M94.1404 71.5569C94.1455 71.5107 94.1737 71.4816 94.2259 71.4713C94.3782 74.5483 94.4346 77.6279 94.397 80.71C94.3183 77.6587 94.2328 74.6073 94.1404 71.5569Z" fill="#78787B"/>
<path fill-rule="evenodd" clip-rule="evenodd" d="M78.2293 75.834C71.7175 77.9238 65.2733 80.248 58.8965 82.8058C58.429 82.9871 57.9443 83.0581 57.4423 83.0196C57.4148 82.3635 57.372 81.7074 57.3139 81.0521C57.2785 81.0128 57.2358 80.9845 57.1856 80.9666C57.1014 81.2172 57.073 81.4738 57.1001 81.7365C56.9868 80.7519 56.9868 79.7544 57.1001 78.7425C57.2112 78.7929 57.2825 78.8785 57.3139 78.9991C57.5656 79.6304 57.7082 80.2857 57.7417 80.9666C57.8129 81.0376 57.8843 81.1094 57.9555 81.1804C59.407 81.0496 60.8327 80.7647 62.2327 80.325C67.4924 78.5748 72.8245 77.0778 78.2293 75.834Z" fill="#B5B5BD"/>
<path fill-rule="evenodd" clip-rule="evenodd" d="M55.7314 80.6245C55.6614 80.3841 55.6186 80.1275 55.6031 79.8546C55.2278 80.2301 54.8571 80.6005 54.491 80.9666C54.2862 83.5868 54.1436 86.2096 54.0633 88.8366C54.0625 89.4491 53.9769 90.0479 53.8067 90.633C53.7708 90.7331 53.7139 90.8186 53.6356 90.8896C53.5246 90.1078 53.1967 89.4517 52.6519 88.9221C52.9542 85.734 53.1822 82.5406 53.3362 79.3413C54.1312 79.42 54.9296 79.4482 55.7314 79.4269C55.7314 79.8263 55.7314 80.225 55.7314 80.6245Z" fill="#30302F"/>
<path opacity="0.996" fill-rule="evenodd" clip-rule="evenodd" d="M55.7315 80.6245C56.2676 86.8692 56.8093 93.1138 57.3568 99.3585C55.4748 99.3585 53.5929 99.3585 51.7109 99.3585C51.9121 95.8666 52.2257 92.3875 52.6519 88.9222C53.1967 89.4517 53.5246 90.1078 53.6357 90.8897C53.7139 90.8187 53.7709 90.7331 53.8067 90.6331C53.977 90.0479 54.0625 89.4491 54.0634 88.8366C54.1436 86.2096 54.2862 83.5869 54.4911 80.9667C54.8571 80.6006 55.2279 80.2301 55.6032 79.8546C55.6186 80.1275 55.6614 80.3841 55.7315 80.6245Z" fill="#3B3B3B"/>
<path fill-rule="evenodd" clip-rule="evenodd" d="M51.8819 80.1968C51.9656 80.4637 51.9942 80.7494 51.9674 81.0522C51.6494 86.0556 51.2074 91.0462 50.6415 96.0223C50.5296 97.1318 50.4583 98.2438 50.4276 99.3585C50.171 99.3585 49.9144 99.3585 49.6577 99.3585C49.4931 98.965 49.3363 98.5655 49.1872 98.1608C49.173 97.7759 49.1588 97.391 49.1445 97.006C49.2548 94.6262 49.3261 92.2455 49.3583 89.8632C49.4887 87.7246 49.8024 85.6142 50.2993 83.533C50.3564 83.077 50.3564 82.6202 50.2993 82.1643C50.1955 82.0317 50.0671 81.9316 49.9144 81.8649C49.0541 81.6707 48.3698 81.2293 47.8613 80.539C48.9245 80.8589 50.0081 81.0873 51.112 81.2233C51.337 81.2387 51.5367 81.1814 51.7108 81.0522C51.7758 80.7682 51.8328 80.4833 51.8819 80.1968Z" fill="#B8B8C0"/>
<path fill-rule="evenodd" clip-rule="evenodd" d="M51.9674 81.0522C51.9942 80.7493 51.9656 80.4636 51.8818 80.1967C51.9242 80.0274 51.967 79.8563 52.0102 79.6835C52.08 80.1557 52.0658 80.6116 51.9674 81.0522Z" fill="#77777B"/>
<path fill-rule="evenodd" clip-rule="evenodd" d="M10.2224 81.651C10.8222 81.6142 11.3925 81.6998 11.9333 81.9076C11.3437 81.876 10.7735 81.7904 10.2224 81.651Z" fill="#959599"/>
<path opacity="0.992" fill-rule="evenodd" clip-rule="evenodd" d="M8.85361 82.8486C7.70714 82.8297 6.56656 82.8871 5.43188 83.0197C6.56312 82.7622 7.70369 82.7057 8.85361 82.8486Z" fill="#88888B"/>
<path fill-rule="evenodd" clip-rule="evenodd" d="M8.85362 82.8486C10.1783 82.8931 11.49 83.0496 12.7886 83.3191C11.1024 83.5081 9.44857 83.8503 7.8271 84.3456C6.75864 84.7451 5.86044 85.3867 5.13249 86.2703C5.0114 85.9743 4.96863 85.6612 5.00418 85.3293C5.2014 85.2874 5.40101 85.2583 5.60298 85.2438C5.62124 85.1035 5.59273 84.9752 5.51743 84.8588C5.14779 84.8956 4.86265 84.7673 4.662 84.4739C5.15388 84.0428 5.72418 83.7716 6.37287 83.6612C6.99056 83.4961 7.61787 83.3969 8.25482 83.3618C8.25482 83.219 8.25482 83.077 8.25482 82.9341C7.7951 82.9358 7.33887 82.9786 6.88613 83.0624C6.14129 83.2489 5.39991 83.4337 4.662 83.6185C4.63446 83.4286 4.69148 83.2712 4.83309 83.148C5.03092 83.0915 5.23052 83.0488 5.43189 83.0197C6.56656 82.8871 7.70714 82.8298 8.85362 82.8486Z" fill="#DFDFE6"/>
<path fill-rule="evenodd" clip-rule="evenodd" d="M101.839 83.5329C101.67 83.4038 101.471 83.3328 101.24 83.3191C100.58 83.2686 99.9239 83.1831 99.2729 83.0625C99.3209 83.03 99.3491 82.9872 99.3585 82.9341C101.131 82.7921 102.898 82.8349 104.662 83.0625C104.872 83.124 105.071 83.2096 105.261 83.3191C105.375 83.4046 105.375 83.4902 105.261 83.5757C104.756 83.6211 104.257 83.5783 103.764 83.4474C103.518 83.4089 103.361 83.509 103.293 83.7468C103.208 83.7613 103.122 83.775 103.037 83.7896C102.642 83.6818 102.242 83.5962 101.839 83.5329Z" fill="#DCDCE3"/>
<path fill-rule="evenodd" clip-rule="evenodd" d="M99.3583 82.9341C99.3489 82.9871 99.3207 83.0299 99.2728 83.0624C99.9237 83.183 100.58 83.2686 101.24 83.319C101.47 83.3327 101.67 83.4037 101.839 83.5329C101.298 83.5329 100.755 83.5329 100.214 83.5329C100.214 83.6184 100.214 83.704 100.214 83.7895C99.1983 83.6971 98.2001 83.526 97.2197 83.2763C97.2377 83.2258 97.2659 83.183 97.3053 83.1479C97.9905 83.0675 98.6748 82.9957 99.3583 82.9341Z" fill="#A8A8B0"/>
<path fill-rule="evenodd" clip-rule="evenodd" d="M101.754 84.0462C101.759 84.1412 101.787 84.2267 101.839 84.3029C101.491 84.2293 101.149 84.1301 100.813 84.0035C101.143 83.9342 101.456 83.9487 101.754 84.0462Z" fill="#9A9A9D"/>
<path fill-rule="evenodd" clip-rule="evenodd" d="M103.978 83.8751C104.378 83.994 104.778 84.1223 105.175 84.2601C105.352 84.3619 105.366 84.4611 105.218 84.5595C104.832 84.3978 104.447 84.2267 104.063 84.0462C103.995 84.0069 103.967 83.9504 103.978 83.8751Z" fill="#BBBBBE"/>
<path fill-rule="evenodd" clip-rule="evenodd" d="M101.754 84.0461C102.844 84.1043 103.871 84.39 104.833 84.9016C104.947 85.3866 104.947 85.8708 104.833 86.3558C104.067 85.3327 103.068 84.6484 101.839 84.3028C101.787 84.2266 101.759 84.1411 101.754 84.0461Z" fill="#DBDBE2"/>
<path fill-rule="evenodd" clip-rule="evenodd" d="M12.0189 84.5595C12.3966 84.5433 12.7674 84.586 13.131 84.6878C14.0763 85.947 15.1171 87.1309 16.2533 88.2379C16.9256 89.1942 16.9827 90.1925 16.4244 91.2319C15.4328 92.1985 14.2495 92.5261 12.8744 92.2156C9.80397 91.8572 7.56562 90.3029 6.15923 87.5535C6.1022 87.3542 6.1022 87.154 6.15923 86.9547C7.04629 85.9761 8.1441 85.3636 9.45264 85.1155C10.3136 84.9 11.1691 84.7143 12.0189 84.5595Z" fill="#A9C1D4"/>
<path fill-rule="evenodd" clip-rule="evenodd" d="M100.813 85.3294C100.156 85.3148 99.5003 85.3294 98.845 85.3722C97.1701 86.3619 95.7304 87.6305 94.5251 89.1788C94.0974 89.9213 93.9118 90.7195 93.9691 91.574C93.6791 91.3833 93.4652 91.1267 93.3275 90.8042C93.0589 89.9102 93.1727 89.083 93.6697 88.3234C94.8382 87.2122 95.8793 86.0009 96.792 84.6878C98.1795 84.6579 99.5191 84.8717 100.813 85.3294Z" fill="#93A7B6"/>
<path fill-rule="evenodd" clip-rule="evenodd" d="M100.813 85.3293C101.979 85.4919 102.963 86.0051 103.764 86.8691C103.838 86.9863 103.881 87.1146 103.892 87.254C102.029 91.0522 98.9785 92.6775 94.739 92.13C94.443 91.9897 94.1864 91.8041 93.9691 91.574C93.9118 90.7194 94.0974 89.9213 94.5252 89.1788C95.7305 87.6304 97.1702 86.3618 98.8451 85.3721C99.5003 85.3293 100.156 85.3148 100.813 85.3293Z" fill="#A9C1D4"/>
<path opacity="0.999" fill-rule="evenodd" clip-rule="evenodd" d="M92.0872 91.0608C92.5902 92.1626 93.4174 92.9042 94.5679 93.2849C94.65 95.3072 94.6783 97.332 94.6535 99.3585C94.6252 99.3585 94.5961 99.3585 94.5679 99.3585C94.5679 97.8469 94.5679 96.3362 94.5679 94.8247C94.2984 94.8495 94.0418 94.8067 93.798 94.6964C93.4704 94.4825 93.1992 94.2113 92.9854 93.8837C92.4618 93.0163 92.1624 92.0753 92.0872 91.0608Z" fill="#A9A9B0"/>
</svg>
