<svg width="201" height="201" viewBox="0 0 201 201" fill="none" xmlns="http://www.w3.org/2000/svg">
<g clip-path="url(#clip0_781_376)">
<path fill-rule="evenodd" clip-rule="evenodd" d="M194.875 56.125C194.776 56.6629 194.915 57.0796 195.292 57.375C196.029 58.0471 196.515 58.8804 196.75 59.875C197.523 64.9088 198.426 69.9088 199.458 74.875C201.406 90.8804 197.726 105.325 188.417 118.208C188.538 136.054 188.746 153.901 189.042 171.75C189.057 180.16 188.848 188.562 188.417 196.958C188.202 199.68 187.299 202.11 185.708 204.25C184.829 204.602 183.995 204.949 183.208 205.292C180.684 205.394 178.184 205.255 175.708 204.875C125.708 204.805 75.7082 204.875 25.7082 205.083C22.314 206.033 18.9807 205.894 15.7082 204.667C14.1847 202.798 13.2819 200.645 12.9999 198.208C12.6908 185.015 12.4824 171.821 12.3749 158.625C12.5707 144.316 12.7791 130.01 12.9999 115.708C12.3335 113.989 11.3613 112.461 10.0832 111.125C9.22694 108.28 8.0464 105.571 6.54153 103C5.48669 100.239 4.79223 97.3917 4.45819 94.4584C4.48407 92.5517 4.20632 90.7463 3.62486 89.0417C3.07873 82.2821 3.28707 75.4763 4.24986 68.625C5.2379 64.9663 6.14069 61.2859 6.95819 57.5834C7.50569 56.3538 8.13069 55.1734 8.83319 54.0417C11.7576 50.5596 14.5354 46.9484 17.1665 43.2083C17.2094 38.2821 17.765 33.4213 18.8332 28.625C20.8219 25.2996 23.669 23.0079 27.3749 21.75C31.5474 21.4588 35.714 21.5279 39.8749 21.9584C43.7744 22.8654 47.1078 24.7404 49.8749 27.5834C50.5694 27.8613 51.2636 27.8613 51.9582 27.5834C57.7044 25.5063 63.5378 23.6313 69.4582 21.9584C69.7182 17.2383 70.0653 12.5161 70.4999 7.79168C71.3844 6.09172 72.4261 4.49452 73.6249 3.00002C78.0382 1.84602 82.4828 1.7071 86.9582 2.58335C92.4849 4.21893 97.4849 6.78835 101.958 10.2917C109.592 3.92727 118.342 1.21893 128.208 2.16668C130.332 2.76372 131.791 4.08314 132.583 6.12502C133.211 7.87431 133.628 9.67989 133.833 11.5417C134.042 15.5671 134.111 19.5949 134.042 23.625C136.6 23.9571 139.1 24.5821 141.542 25.5C144.475 26.6909 147.392 27.8713 150.292 29.0417C150.708 28.9721 151.125 28.9029 151.542 28.8333C159.372 22.0592 168.122 20.6702 177.792 24.6667C179.802 26.1221 181.539 27.8583 183 29.875C183.407 31.8646 183.963 33.8092 184.667 35.7083C184.717 38.5192 184.995 41.2971 185.5 44.0417C187.26 45.7904 189.274 47.1792 191.542 48.2084C192.503 50.6659 193.337 53.1659 194.042 55.7084C194.326 55.8596 194.604 55.9984 194.875 56.125Z" fill="#FBFBFB"/>
<path fill-rule="evenodd" clip-rule="evenodd" d="M184.042 29.0418C180.704 24.6613 176.26 22.0922 170.708 21.3334C163.156 20.1938 156.767 22.2772 151.542 27.5834C147.756 27.2676 144.284 26.0176 141.125 23.8334C139.114 23.5684 137.169 23.0826 135.292 22.3751C134.972 17.5113 134.625 12.6502 134.25 7.79175C132.929 3.34504 129.943 1.05338 125.292 0.916753C121.93 0.715878 118.597 0.924211 115.292 1.54175C115.45 0.945461 115.867 0.598211 116.542 0.500086C121.232 0.193086 125.816 0.331961 130.292 0.916753C131.165 1.6525 132.137 2.20804 133.208 2.58342C132.93 2.72229 132.653 2.86121 132.375 3.00009C133.641 4.02184 134.614 5.27184 135.292 6.75009C134.803 7.52859 134.873 8.29246 135.5 9.04175C135.454 13.424 135.801 17.7295 136.542 21.9584C137.769 22.3005 139.019 22.5088 140.292 22.5834C140.153 22.7222 140.014 22.8613 139.875 23.0001C141.786 22.9151 143.314 23.6093 144.458 25.0834C146.307 25.6672 148.182 26.1534 150.083 26.5418C152.9 24.7159 155.887 23.1184 159.042 21.7501C162.751 20.9418 166.431 20.4555 170.083 20.2918C172.482 20.9822 174.912 21.6072 177.375 22.1668C179.759 23.5751 181.912 25.3113 183.833 27.3751C184.037 27.9138 184.107 28.4697 184.042 29.0418Z" fill="#EBEBEB"/>
<path fill-rule="evenodd" clip-rule="evenodd" d="M115.292 1.54178C118.597 0.924234 121.93 0.715901 125.292 0.916776C129.943 1.0534 132.929 3.34507 134.25 7.79178C134.625 12.6502 134.972 17.5114 135.292 22.3751C137.169 23.0826 139.114 23.5684 141.125 23.8334C144.284 26.0176 147.756 27.2676 151.542 27.5834C156.768 22.2772 163.156 20.1938 170.708 21.3334C176.26 22.0922 180.704 24.6614 184.042 29.0418C185.343 33.3814 185.968 37.8255 185.917 42.3751C186.625 43.9189 187.805 44.8218 189.458 45.0834C190.699 46.0464 191.81 47.1576 192.792 48.4168C193.379 51.0114 194.212 53.5114 195.292 55.9168C195.197 56.083 195.058 56.1522 194.875 56.1251C194.604 55.9984 194.326 55.8597 194.042 55.7084C193.337 53.1659 192.503 50.6659 191.542 48.2084C189.274 47.1793 187.26 45.7905 185.5 44.0418C184.995 41.2972 184.717 38.5193 184.667 35.7084C183.963 33.8093 183.407 31.8647 183 29.8751C181.539 27.8584 179.803 26.1222 177.792 24.6668C168.122 20.6703 159.372 22.0593 151.542 28.8334C151.125 28.903 150.708 28.9722 150.292 29.0418C147.392 27.8714 144.475 26.6909 141.542 25.5001C139.1 24.5822 136.6 23.9572 134.042 23.6251C134.111 19.5949 134.042 15.5672 133.833 11.5418C133.628 9.67998 133.211 7.8744 132.583 6.12511C131.791 4.08323 130.333 2.76382 128.208 2.16678C118.343 1.21903 109.593 3.92736 101.958 10.2918C97.4851 6.78844 92.4851 4.21903 86.9584 2.58344C82.483 1.70719 78.0384 1.84611 73.6251 3.00011C72.4263 4.49461 71.3846 6.09182 70.5001 7.79178C70.0655 12.5162 69.7184 17.2384 69.4584 21.9584C63.538 23.6314 57.7046 25.5064 51.9584 27.5834C51.2638 27.8614 50.5696 27.8614 49.8751 27.5834C47.108 24.7405 43.7746 22.8655 39.8751 21.9584C35.7142 21.528 31.5476 21.4589 27.3751 21.7501C23.6692 23.008 20.8221 25.2997 18.8334 28.6251C17.7652 33.4214 17.2096 38.2822 17.1667 43.2084C14.5356 46.9484 11.7578 50.5597 8.83339 54.0418C8.13089 55.1734 7.50589 56.3539 6.95839 57.5834C6.14089 61.2859 5.2381 64.9664 4.25005 68.6251C3.28726 75.4764 3.07893 82.2822 3.62505 89.0418C3.59201 91.1218 3.17535 91.1218 2.37505 89.0418C1.88926 84.1868 1.81985 79.3255 2.16672 74.4584C3.41626 68.4884 4.66626 62.5164 5.91672 56.5418C7.02785 54.8751 8.13893 53.2084 9.25005 51.5418C9.66097 50.5926 10.0082 49.6205 10.2917 48.6251C12.4998 47.0422 14.5137 45.2368 16.3334 43.2084C16.2033 39.603 16.2033 35.9918 16.3334 32.3751C18.838 23.3547 24.8105 19.1881 34.2501 19.8751C37.0721 19.6966 39.7805 20.1132 42.3751 21.1251C43.9663 21.8772 45.633 22.5718 47.3751 23.2084C48.1392 25.0822 49.5284 26.1934 51.5417 26.5418C55.2067 25.1351 58.9567 23.8155 62.7917 22.5834C64.9463 22.3355 67.0296 21.8497 69.0417 21.1251C68.9384 16.5267 69.1467 11.9433 69.6667 7.37511C70.1817 4.49944 71.7788 2.48557 74.4584 1.33344C84.1667 -0.450224 92.778 1.77198 100.292 8.00011C101.264 8.2779 102.236 8.2779 103.208 8.00011C104.489 7.0469 105.808 6.14411 107.167 5.29178C109.895 4.00819 112.604 2.75819 115.292 1.54178Z" fill="#D8D8D8"/>
<path fill-rule="evenodd" clip-rule="evenodd" d="M115.292 1.54156C112.604 2.75798 109.895 4.00798 107.167 5.29156C105.808 6.14389 104.489 7.04668 103.208 7.99989C102.236 8.27768 101.264 8.27768 100.292 7.99989C92.7779 1.77177 84.1667 -0.450442 74.4583 1.33322C71.7787 2.48535 70.1817 4.49922 69.6667 7.37489C69.1467 11.9431 68.9383 16.5264 69.0417 21.1249C67.0296 21.8495 64.9462 22.3353 62.7917 22.5832C58.9567 23.8153 55.2067 25.1349 51.5417 26.5416C49.5283 26.1932 48.1392 25.082 47.375 23.2082C45.6329 22.5716 43.9662 21.877 42.375 21.1249C45.3796 21.1332 47.6712 22.3832 49.25 24.8749C49.3887 24.7361 49.5279 24.597 49.6667 24.4582C50.28 25.2674 51.1133 25.6841 52.1667 25.7082C57.0554 23.387 62.0554 21.7203 67.1667 20.7082C67.5621 15.972 68.1871 11.2498 69.0417 6.54156C69.7292 5.52077 70.2154 4.40968 70.5 3.20823C71.4233 2.03914 72.6037 1.20581 74.0417 0.708225C80.6258 -0.811067 87.0146 -0.186067 93.2083 2.58323C96.2133 4.26677 99.2687 5.86402 102.375 7.37489C104.055 6.22393 105.999 4.97393 108.208 3.62489C110.51 2.70956 112.87 2.0151 115.292 1.54156Z" fill="#ECECEC"/>
<path fill-rule="evenodd" clip-rule="evenodd" d="M36.5418 27.7918C34.1656 27.7397 31.8043 27.8784 29.4585 28.2084C30.7193 27.5755 32.1081 27.298 33.6252 27.3751C34.6772 27.3764 35.6497 27.5155 36.5418 27.7918Z" fill="#525252"/>
<path fill-rule="evenodd" clip-rule="evenodd" d="M127.375 25.7083C127.375 26.5416 127.375 27.3749 127.375 28.2083C127.913 28.1095 128.33 28.2483 128.625 28.6249C128.07 28.6249 127.514 28.6249 126.958 28.6249C126.833 27.5587 126.972 26.5862 127.375 25.7083Z" fill="#959093"/>
<path fill-rule="evenodd" clip-rule="evenodd" d="M169.875 29.0417C167.776 29.0055 165.693 29.1442 163.625 29.4584C164.744 28.8372 165.994 28.5597 167.375 28.6251C168.29 28.6272 169.123 28.7659 169.875 29.0417Z" fill="#858788"/>
<path fill-rule="evenodd" clip-rule="evenodd" d="M178.208 36.5417C178.485 37.5042 178.624 38.5459 178.625 39.6667C178.707 41.2522 178.429 42.7105 177.792 44.0417C178.128 41.5567 178.267 39.0567 178.208 36.5417Z" fill="#AAAAA8"/>
<path fill-rule="evenodd" clip-rule="evenodd" d="M192.792 73.2083C193.417 75.6083 193.694 78.1083 193.625 80.7083C193.624 82.4503 193.486 84.117 193.208 85.7083C193.246 81.5341 193.107 77.3674 192.792 73.2083Z" fill="#4C4C4A"/>
<path fill-rule="evenodd" clip-rule="evenodd" d="M11.125 94.875C11.7182 95.7146 11.996 96.6867 11.9583 97.7917C11.365 96.9521 11.0873 95.98 11.125 94.875Z" fill="#A1A19F"/>
<path fill-rule="evenodd" clip-rule="evenodd" d="M179.458 154.875C179.458 167.375 179.458 179.875 179.458 192.375C179.083 194.572 178.944 196.794 179.042 199.042C178.903 199.042 178.764 199.042 178.625 199.042C166.967 198.212 155.161 197.934 143.208 198.208C143.208 197.93 143.208 197.653 143.208 197.375C144.319 197.097 144.319 196.82 143.208 196.542C143.208 196.403 143.208 196.264 143.208 196.125C143.466 193.788 143.327 191.426 142.792 189.042C142.106 188.031 141.62 186.92 141.333 185.708C140.287 178.327 138.273 171.244 135.292 164.458C134.796 164.071 134.241 163.933 133.625 164.042C142.37 162.267 151.259 161.087 160.292 160.5C163.081 150.952 160.442 143.175 152.375 137.167C151.68 136.889 150.986 136.889 150.292 137.167C144.975 138.855 139.558 140.105 134.042 140.917C130.242 141.928 126.631 143.386 123.208 145.292C122.299 141.084 121.257 136.918 120.083 132.792C119.145 132.01 118.104 131.385 116.958 130.917C114.319 130.639 111.68 130.639 109.042 130.917C96.3945 132.863 83.8945 135.502 71.5416 138.833C69.3578 139.35 67.6216 140.53 66.3332 142.375C66.3999 144.182 66.6082 145.988 66.9582 147.792C66.9582 148.486 66.9582 149.18 66.9582 149.875C65.6195 149.746 64.3695 149.885 63.2082 150.292C56.5191 151.027 49.9911 152.485 43.6249 154.667C40.6828 162.768 41.0299 170.754 44.6666 178.625C45.0016 179.168 45.4878 179.446 46.1249 179.458C49.2066 178.015 52.4011 176.903 55.7082 176.125C54.5599 178.492 53.7961 180.992 53.4166 183.625C53.1045 187.788 52.8961 191.955 52.7916 196.125C52.2361 196.125 51.9582 196.403 51.9582 196.958C42.3707 196.82 32.7874 196.958 23.2082 197.375C32.1649 197.653 41.0536 197.93 49.8749 198.208C40.677 198.074 31.5103 198.213 22.3749 198.625C22.2811 189.18 22.142 179.735 21.9582 170.292C21.8886 158.902 21.9582 147.513 22.1666 136.125C22.207 129.715 22.5545 123.326 23.2082 116.958C29.5024 123.888 37.3495 127.082 46.7499 126.542C60.9782 126.678 73.1307 121.818 83.2082 111.958C85.1253 115.666 88.1811 117.193 92.3749 116.542C92.202 125.84 96.6466 129.243 105.708 126.75C107.762 125.947 109.081 124.489 109.667 122.375C110.043 120.027 110.252 117.666 110.292 115.292C114.024 115.578 116.941 114.189 119.042 111.125C127.011 119.833 136.872 125.041 148.625 126.75C157.242 127.969 165.436 126.719 173.208 123C175.054 121.918 176.721 120.599 178.208 119.042C178.552 120.41 178.76 121.799 178.833 123.208C178.989 133.766 179.197 144.322 179.458 154.875Z" fill="#FCCAC9"/>
<path fill-rule="evenodd" clip-rule="evenodd" d="M127.375 25.7084C126.972 26.5863 126.833 27.5588 126.958 28.6251C127.514 28.6251 128.07 28.6251 128.625 28.6251C136.056 30.3947 143.139 33.103 149.875 36.7501C151.264 37.028 152.653 37.028 154.042 36.7501C156.594 33.4284 159.789 30.9976 163.625 29.4584C165.693 29.1442 167.776 29.0055 169.875 29.0417C174.237 29.8263 177.015 32.3263 178.208 36.5417C178.267 39.0567 178.128 41.5567 177.792 44.0417C177.328 44.6442 177.258 45.3388 177.583 46.1251C179.754 48.0038 181.768 50.0176 183.625 52.1667C184.542 51.9234 185.445 51.9926 186.333 52.3751C186.439 53.5001 186.439 54.6113 186.333 55.7084C187.678 58.4747 189.276 61.0442 191.125 63.4167C190.986 63.8334 190.847 64.2501 190.708 64.6667C191.633 67.4634 192.328 70.3109 192.792 73.2084C193.107 77.3676 193.246 81.5342 193.208 85.7084C192.398 96.768 188.578 106.629 181.75 115.292C182.263 140.982 182.402 166.676 182.167 192.375C182.028 194.597 181.889 196.82 181.75 199.042C180.795 200.139 179.892 200.139 179.042 199.042C178.945 196.794 179.083 194.572 179.458 192.375C180.014 186.965 180.291 181.41 180.292 175.708C180.222 170.153 180.153 164.597 180.083 159.042C180.009 157.573 179.801 156.184 179.458 154.875C179.198 144.322 178.989 133.766 178.833 123.208C178.76 121.799 178.552 120.41 178.208 119.042C176.721 120.599 175.055 121.918 173.208 123C165.436 126.719 157.242 127.969 148.625 126.75C136.873 125.041 127.011 119.833 119.042 111.125C116.941 114.189 114.025 115.578 110.292 115.292C110.252 117.666 110.043 120.027 109.667 122.375C109.081 124.489 107.762 125.947 105.708 126.75C96.6468 129.243 92.2022 125.84 92.3751 116.542C88.1814 117.193 85.1255 115.666 83.2085 111.958C73.131 121.818 60.9785 126.678 46.7501 126.542C37.3497 127.082 29.5026 123.888 23.2085 116.958C22.5547 123.326 22.2072 129.715 22.1668 136.125C21.9585 147.513 21.8889 158.902 21.9585 170.292C21.4989 153.277 21.4989 136.194 21.9585 119.042C21.403 119.042 20.8472 119.042 20.2918 119.042C20.2922 122.38 20.431 125.713 20.7085 129.042C20.5697 130.153 20.4305 131.264 20.2918 132.375C20.0139 130.368 19.736 128.424 19.4585 126.542C19.4676 122.072 19.676 117.628 20.0835 113.208C16.5433 108.476 13.8349 103.338 11.9585 97.7917C11.9962 96.6867 11.7184 95.7147 11.1251 94.8751C8.3508 83.6097 9.04522 72.568 13.2085 61.7501C12.3255 59.9292 12.881 58.8876 14.8751 58.6251C17.4359 53.7726 20.8389 49.6059 25.0835 46.1251C24.9335 44.4217 24.5168 42.7551 23.8335 41.1251C22.5739 36.1555 23.893 32.058 27.7918 28.8334C28.3105 28.5038 28.866 28.2955 29.4585 28.2084C31.8043 27.8784 34.1655 27.7397 36.5418 27.7917C38.8118 28.2317 40.8951 29.1342 42.7918 30.5001C44.988 32.4905 46.9322 34.643 48.6251 36.9584C57.3889 32.1855 66.6943 28.9909 76.5418 27.3751C76.1747 21.8234 76.1055 16.2677 76.3335 10.7084C77.1743 8.88758 78.563 7.91537 80.5001 7.79175C88.9993 9.64558 96.1522 13.8122 101.958 20.2917C107.885 13.2328 115.385 9.13562 124.458 8.00008C125.588 8.52533 126.491 9.28925 127.167 10.2917C127.375 15.4287 127.445 20.5677 127.375 25.7084Z" fill="#21201D"/>
<path fill-rule="evenodd" clip-rule="evenodd" d="M102.375 119.042C102.529 120.82 102.945 122.487 103.625 124.042C103.33 124.418 102.913 124.557 102.375 124.458C102.375 122.653 102.375 120.847 102.375 119.042Z" fill="#8B8B89"/>
<path fill-rule="evenodd" clip-rule="evenodd" d="M98.6251 114.042C99.1805 114.042 99.7363 114.042 100.292 114.042C100.552 117.508 100.69 120.98 100.708 124.458C97.6834 124.698 95.9472 123.31 95.5001 120.292C95.2922 118.631 95.2226 116.964 95.2917 115.292C96.5984 115.249 97.7092 114.832 98.6251 114.042Z" fill="#F0F0EE"/>
<path fill-rule="evenodd" clip-rule="evenodd" d="M103.625 124.042C102.946 122.487 102.529 120.82 102.375 119.042C102.099 117.389 101.961 115.722 101.958 114.042C103.493 113.973 105.02 114.042 106.542 114.25C107.621 117.254 107.413 120.24 105.917 123.208C105.257 123.775 104.493 124.053 103.625 124.042Z" fill="#F9F9F7"/>
<path fill-rule="evenodd" clip-rule="evenodd" d="M145.708 41.125C147.796 41.0558 149.88 41.1254 151.958 41.3333C154.392 42.8975 156.754 44.5642 159.042 46.3333C135.648 42.3837 121.273 51.8975 115.917 74.875C114.545 89.1062 119.059 100.981 129.458 110.5C139.582 117.632 150.832 120.27 163.208 118.417C169.082 117.426 173.944 114.718 177.792 110.292C178.27 111.235 178.339 112.207 178 113.208C170.417 121.477 161.042 124.602 149.875 122.583C129.902 119.832 117.61 108.652 113 89.0417C110.055 72.9596 114.569 59.4179 126.542 48.4167C132.297 44.2083 138.686 41.7775 145.708 41.125Z" fill="#F4C5C5"/>
<path fill-rule="evenodd" clip-rule="evenodd" d="M109.458 99.875C110.698 99.7946 111.74 100.211 112.583 101.125C113.695 103.07 114.806 105.014 115.917 106.958C116.634 110.385 115.245 112.191 111.75 112.375C107.444 111.242 103.069 110.895 98.6251 111.333C96.0943 112.29 93.5247 113.054 90.9168 113.625C87.0756 113.531 85.5476 111.587 86.3335 107.792C87.7751 105.254 89.3726 102.824 91.1251 100.5C92.8576 101.789 94.8022 102.9 96.9585 103.833C101.947 104.878 106.113 103.559 109.458 99.875Z" fill="#F2CFA1"/>
<path fill-rule="evenodd" clip-rule="evenodd" d="M185.292 66.1249C185.843 66.0541 186.329 66.1928 186.75 66.5416C190.426 77.402 190.288 88.2353 186.333 99.0416C184.876 102.377 183.14 105.572 181.125 108.625C180.654 107.969 180.584 107.274 180.917 106.542C189.348 93.8016 190.806 80.3291 185.292 66.1249Z" fill="#D2D2D0"/>
<path fill-rule="evenodd" clip-rule="evenodd" d="M90.7085 76.5417C90.7948 81.0126 90.5173 85.4567 89.8752 89.8751C84.4694 109.098 71.8306 119.862 51.9585 122.167C40.3119 124.03 30.9369 120.349 23.8335 111.125C23.4927 109.989 23.5619 108.878 24.0419 107.792C26.0519 110.149 28.274 112.301 30.7085 114.25C31.574 114.961 32.546 115.447 33.6252 115.708C36.156 117.223 38.9335 118.126 41.9585 118.417C45.2273 118.759 48.4215 118.69 51.5419 118.208C70.1452 116.612 82.0202 106.89 87.1669 89.0417C90.3394 73.1359 85.6869 60.1501 73.2085 50.0834C63.5998 44.5138 53.461 43.3334 42.7919 46.5417C42.3665 46.3326 42.2969 46.0551 42.5835 45.7084C44.3198 44.2501 46.0556 42.7917 47.7919 41.3334C69.336 39.2876 83.2944 48.5238 89.6669 69.0417C90.331 71.4997 90.6785 73.9997 90.7085 76.5417Z" fill="#F2C4C4"/>
<path fill-rule="evenodd" clip-rule="evenodd" d="M33.625 115.708C36.86 116.27 40.0546 116.965 43.2083 117.792C45.9725 118.207 48.75 118.346 51.5417 118.208C48.4212 118.69 45.2271 118.759 41.9583 118.417C38.9333 118.126 36.1558 117.223 33.625 115.708Z" fill="#3E2D2C"/>
<path fill-rule="evenodd" clip-rule="evenodd" d="M90.7083 76.5417C91.1896 79.523 91.2592 82.5784 90.9167 85.7084C90.7871 87.2042 90.44 88.593 89.875 89.8751C90.5171 85.4567 90.7946 81.0126 90.7083 76.5417Z" fill="#483A35"/>
<path fill-rule="evenodd" clip-rule="evenodd" d="M98.6248 80.7084C102.095 80.315 105.22 81.1484 108 83.2084C108.261 86.0263 108.747 88.8042 109.458 91.5417C109.319 91.8196 109.18 92.0971 109.042 92.375C104.209 90.0938 99.2094 89.6771 94.0415 91.125C94.4465 88.3588 94.7936 85.5809 95.0832 82.7917C96.2007 81.9229 97.3815 81.2284 98.6248 80.7084Z" fill="#F6C7C7"/>
<path fill-rule="evenodd" clip-rule="evenodd" d="M109.458 67.7917C108.449 71.0447 108.033 74.378 108.208 77.7917C104.684 76.6509 101.073 76.3038 97.375 76.7501C96.6596 77.3997 95.8263 77.7467 94.875 77.7917C94.875 76.6805 94.875 75.5697 94.875 74.4584C95.2713 75.0497 95.41 75.7438 95.2917 76.5417C98.0646 76.0701 100.843 75.6534 103.625 75.2917C104.747 76.0292 105.997 76.3072 107.375 76.1251C107.583 74.0451 107.791 71.9617 108 69.8751C108.29 69.0067 108.777 68.3122 109.458 67.7917Z" fill="#DFBBBC"/>
<path fill-rule="evenodd" clip-rule="evenodd" d="M16.9584 64.0417C17.8732 64.0688 18.7067 64.3467 19.4584 64.8751C16.0231 71.3984 14.7036 78.3426 15.5 85.7084C16.085 91.8013 17.8906 97.4955 20.9167 102.792C21.16 103.94 21.0209 105.051 20.5 106.125C12.9849 92.6201 11.8043 78.5922 16.9584 64.0417Z" fill="#E8E8E7"/>
<path fill-rule="evenodd" clip-rule="evenodd" d="M181.125 57.7917C181.912 57.7071 182.537 57.9846 183 58.625C183.925 59.8917 184.55 61.2804 184.875 62.7917C183.949 62.9258 183.185 62.6479 182.583 61.9583C181.738 60.9046 180.974 59.7933 180.292 58.625C180.601 58.3408 180.879 58.0629 181.125 57.7917Z" fill="#E8E8E6"/>
<path fill-rule="evenodd" clip-rule="evenodd" d="M20.7083 56.9583C21.8246 57.0303 22.7971 57.447 23.625 58.2083C22.8283 59.107 22.1337 60.0795 21.5417 61.1249C20.6071 61.5308 19.635 61.6699 18.625 61.5416C19.2029 59.9687 19.8971 58.4412 20.7083 56.9583Z" fill="#E9E9E7"/>
<path fill-rule="evenodd" clip-rule="evenodd" d="M27.375 49.875C27.8133 49.813 28.23 49.8821 28.625 50.0834C28.9604 50.905 29.5163 51.53 30.2917 51.9584C28.9004 53.2796 27.4421 54.5296 25.9167 55.7084C24.7746 55.5225 24.0104 54.8975 23.625 53.8334C24.6733 52.2992 25.9233 50.98 27.375 49.875Z" fill="#EDEDEB"/>
<path fill-rule="evenodd" clip-rule="evenodd" d="M174.458 49.875C176.463 50.8279 178.199 52.2167 179.667 54.0417C179.952 54.5767 179.882 55.0629 179.458 55.5C178.625 55.7779 177.792 55.7779 176.958 55.5C175.708 54.4583 174.458 53.4167 173.208 52.375C173.65 51.5275 174.066 50.6942 174.458 49.875Z" fill="#EBEAE9"/>
<path fill-rule="evenodd" clip-rule="evenodd" d="M145.292 49.4583C165.452 47.3458 177.744 56.0958 182.167 75.7083C183.862 89.9858 179.487 102 169.042 111.75C163.157 115.326 156.768 116.576 149.875 115.5C134.944 113.068 125.152 104.665 120.5 90.2916C116.882 75.167 121.257 63.0141 133.625 53.8333C137.33 51.7674 141.219 50.3091 145.292 49.4583Z" fill="#FDFDFD"/>
<path fill-rule="evenodd" clip-rule="evenodd" d="M150.292 55.7083C158.509 55.8845 160.94 59.7733 157.583 67.3749C155.039 70.1216 151.914 71.0241 148.208 70.0833C143.954 68.0308 142.635 64.7666 144.25 60.2916C145.877 58.1683 147.891 56.6408 150.292 55.7083Z" fill="#1F201E"/>
<path fill-rule="evenodd" clip-rule="evenodd" d="M148.208 57.375C151.178 57.4608 151.873 58.7804 150.292 61.3333C148.248 62.065 147.136 61.3704 146.958 59.25C146.982 58.3296 147.399 57.7046 148.208 57.375Z" fill="#E6EAEB"/>
<path fill-rule="evenodd" clip-rule="evenodd" d="M46.9582 49.0417C60.6286 47.3072 71.5315 51.8905 79.6665 62.7917C85.7274 74.1726 86.0049 85.7005 80.4999 97.3751C74.267 107.614 65.1699 113.517 53.2082 115.083C42.9861 116.825 34.8611 113.562 28.8332 105.292C20.7028 93.3767 19.0361 80.5988 23.8332 66.9584C28.3565 56.803 36.0649 50.8309 46.9582 49.0417Z" fill="#FDFDFD"/>
<path fill-rule="evenodd" clip-rule="evenodd" d="M46.9583 56.1251C54.7421 55.0893 57.8671 58.4226 56.3333 66.1251C53.3916 72.5438 49.0862 73.6547 43.4166 69.4584C39.4291 63.6209 40.6096 59.1768 46.9583 56.1251Z" fill="#20201E"/>
<path fill-rule="evenodd" clip-rule="evenodd" d="M45.2918 59.0416C47.9943 58.3479 49.1747 59.32 48.8335 61.9583C46.9227 63.8233 45.4643 63.5454 44.4585 61.125C44.626 60.375 44.9039 59.6804 45.2918 59.0416Z" fill="#E1E6E8"/>
<path fill-rule="evenodd" clip-rule="evenodd" d="M164.458 45.2917C167.223 45.0054 169.723 45.7 171.958 47.375C172.41 47.7354 172.479 48.1521 172.167 48.625C171.558 49.4442 170.864 50.1383 170.083 50.7083C168.927 50.1646 167.746 49.6787 166.542 49.25C165.639 48.3471 164.736 47.4446 163.833 46.5417C163.734 46.005 163.942 45.5883 164.458 45.2917Z" fill="#F1C6C6"/>
<path fill-rule="evenodd" clip-rule="evenodd" d="M36.5415 44.0417C38.0119 43.7871 38.7757 44.3429 38.8332 45.7083C37.4982 46.9038 36.3178 48.2229 35.2915 49.6667C34.5144 50.2088 33.6811 50.3479 32.7915 50.0833C31.769 49.3583 31.144 48.4554 30.9165 47.375C32.6594 45.985 34.5344 44.8738 36.5415 44.0417Z" fill="#F1C5C5"/>
<path fill-rule="evenodd" clip-rule="evenodd" d="M159.458 42.375C160.583 42.6429 161.694 42.99 162.792 43.4167C162.584 43.8992 162.237 44.2462 161.75 44.4583C160.638 44.0871 159.875 43.3929 159.458 42.375Z" fill="#D6B9BE"/>
<path fill-rule="evenodd" clip-rule="evenodd" d="M127.792 31.5417C127.109 33.3804 126.692 35.3246 126.542 37.375C126.542 35.2917 126.542 33.2084 126.542 31.125C127.079 31.0263 127.496 31.165 127.792 31.5417Z" fill="#A98D8D"/>
<path fill-rule="evenodd" clip-rule="evenodd" d="M79.4585 25.7083C79.5973 25.7083 79.7365 25.7083 79.8752 25.7083C80.0144 29.5995 80.2227 33.4883 80.5002 37.3749C80.9373 37.7987 81.4235 37.8683 81.9585 37.5833C83.0248 36.8428 84.136 36.2178 85.2919 35.7083C85.404 36.512 85.1956 37.2062 84.6669 37.7916C83.5044 37.2574 82.6015 37.6049 81.9585 38.8333C81.4198 39.0374 80.864 39.107 80.2919 39.0416C80.3702 38.3737 80.1619 37.8178 79.6669 37.3749C79.4585 33.4887 79.3894 29.5995 79.4585 25.7083Z" fill="#2B2613"/>
<path fill-rule="evenodd" clip-rule="evenodd" d="M164.875 31.9583C171.799 30.9037 175.341 33.8204 175.5 40.7083C175.12 41.6079 174.773 42.5104 174.458 43.4167C174.042 43.6946 173.625 43.6946 173.208 43.4167C171.318 42.055 169.235 41.1521 166.958 40.7083C167.052 39.1754 167.191 37.6475 167.375 36.125C166.824 36.0542 166.338 36.1929 165.917 36.5417C165.808 38.1733 164.975 39.0067 163.417 39.0417C162.227 38.8871 161.046 38.6787 159.875 38.4167C158.979 38.3062 158.284 37.8896 157.792 37.1667C159.63 34.7008 161.991 32.9646 164.875 31.9583Z" fill="#F4C6C6"/>
<path fill-rule="evenodd" clip-rule="evenodd" d="M126.542 37.3749C126.692 35.3245 127.109 33.3803 127.792 31.5416C133.237 32.9633 138.515 34.8383 143.625 37.1666C125.739 40.122 114.35 50.3303 109.458 67.7916C108.777 68.312 108.29 69.0066 108 69.8749C107.791 71.9616 107.583 74.0449 107.375 76.1249C105.997 76.307 104.747 76.0291 103.625 75.2916C100.842 75.6533 98.0646 76.0699 95.2917 76.5416C95.41 75.7437 95.2712 75.0495 94.875 74.4583C91.8033 52.4283 79.3033 39.7199 57.375 36.3333C63.5929 33.3583 70.1208 31.3441 76.9583 30.2916C76.9221 33.2249 77.1304 36.1416 77.5833 39.0416C78.0587 39.9203 78.6837 40.6841 79.4583 41.3333C81.56 41.6987 83.5046 41.282 85.2917 40.0833C90.7737 36.0224 96.3296 32.0641 101.958 28.2083C108.151 32.6645 114.401 37.0395 120.708 41.3333C124.162 42.257 126.106 40.9374 126.542 37.3749Z" fill="#FBC9C9"/>
<path fill-rule="evenodd" clip-rule="evenodd" d="M31.1251 30.2917C35.8085 29.8858 39.7668 31.4137 43.0001 34.875C43.783 35.7196 44.2693 36.6917 44.4585 37.7917C42.7435 37.8087 41.0768 38.0862 39.4585 38.625C39.5651 37.62 39.1485 36.9254 38.2085 36.5417C37.7001 36.7029 37.4222 37.05 37.3751 37.5833C37.6451 38.1833 37.7839 38.8083 37.7918 39.4583C36.7897 39.6108 35.8176 39.8887 34.8751 40.2917C33.9326 39.8887 32.9605 39.6108 31.9585 39.4583C31.8693 40.1433 32.0085 40.7683 32.3751 41.3333C31.083 42.1525 29.7635 42.9167 28.4168 43.625C27.2551 42.8433 26.6993 41.7321 26.7501 40.2917C25.6168 35.7575 27.0751 32.4242 31.1251 30.2917Z" fill="#F5C7C6"/>
<path fill-rule="evenodd" clip-rule="evenodd" d="M96.5415 26.9584C95.7082 26.9584 94.8748 26.9584 94.0415 26.9584C95.2298 25.7876 96.6186 25.5097 98.2082 26.1251C97.7594 26.6272 97.204 26.9051 96.5415 26.9584Z" fill="#C9BC7F"/>
<path fill-rule="evenodd" clip-rule="evenodd" d="M82.7917 12.375C87.0312 13.6614 90.92 15.6058 94.4583 18.2083C94.4583 18.625 94.4583 19.0417 94.4583 19.4583C92.1946 19.4042 89.9725 19.1959 87.7917 18.8333C87.9304 18.9722 88.0696 19.1111 88.2083 19.25C87.1187 19.5811 86.2854 20.2061 85.7083 21.125C86.3071 21.9904 86.585 22.9625 86.5417 24.0417C87.52 23.9708 88.4925 23.8321 89.4583 23.625C90.65 23.6479 91.6221 24.0646 92.375 24.875C91.6971 25.7625 90.9333 26.5958 90.0833 27.375C89.8775 28.0558 89.8083 28.7504 89.875 29.4583C90.3133 29.5204 90.73 29.4513 91.125 29.25C91.9337 28.2275 92.9062 27.4638 94.0417 26.9583C94.875 26.9583 95.7083 26.9583 96.5417 26.9583C92.8671 29.9758 89.1171 32.8925 85.2917 35.7083C84.1358 36.2179 83.0246 36.8429 81.9583 37.5833C81.4233 37.8683 80.9371 37.7988 80.5 37.375C80.2225 33.4883 80.0142 29.5996 79.875 25.7083C79.875 21.2638 79.875 16.8195 79.875 12.375C80.8471 12.375 81.8196 12.375 82.7917 12.375Z" fill="#FBE687"/>
<path fill-rule="evenodd" clip-rule="evenodd" d="M109.875 22.375C112.09 23.0984 114.312 23.9317 116.542 24.875C113.947 24.1921 111.308 23.7059 108.625 23.4167C108.07 23.1388 108.07 22.8613 108.625 22.5834C109.02 22.3821 109.437 22.313 109.875 22.375Z" fill="#B5B16A"/>
<path fill-rule="evenodd" clip-rule="evenodd" d="M94.4585 18.2083C94.8752 18.486 95.2918 18.7638 95.7085 19.0416C95.9864 19.4583 96.2639 19.8749 96.5418 20.2916C96.5418 20.5694 96.4031 20.7083 96.1252 20.7083C93.5347 19.9716 90.896 19.7633 88.2085 20.0833C86.7239 21.0133 86.6543 21.9158 88.0002 22.7916C90.8181 21.5924 93.5264 21.8008 96.1252 23.4166C95.4727 23.6699 94.9168 24.0174 94.4585 24.4583C93.7847 24.6824 93.0902 24.8212 92.3752 24.8749C91.6222 24.0645 90.6502 23.6478 89.4585 23.6249C88.4927 23.832 87.5202 23.9708 86.5418 24.0416C86.5852 22.9624 86.3072 21.9903 85.7085 21.1249C86.2856 20.206 87.1189 19.581 88.2085 19.2499C88.0697 19.111 87.9306 18.9721 87.7918 18.8333C89.9727 19.1958 92.1947 19.4041 94.4585 19.4583C94.4585 19.0416 94.4585 18.6249 94.4585 18.2083Z" fill="#ECDB8A"/>
<path fill-rule="evenodd" clip-rule="evenodd" d="M95.7084 19.0416C96.6905 18.9736 97.6626 19.043 98.6251 19.2499C99.8622 21.4345 99.168 22.6149 96.5417 22.7916C96.5417 23.347 96.5417 23.9029 96.5417 24.4583C95.8472 24.4583 95.153 24.4583 94.4584 24.4583C94.9167 24.0174 95.4726 23.6699 96.1251 23.4166C93.5263 21.8008 90.818 21.5924 88.0001 22.7916C86.6542 21.9158 86.7238 21.0133 88.2084 20.0833C90.8959 19.7633 93.5347 19.9716 96.1251 20.7083C96.4422 21.0795 96.8588 21.3574 97.3751 21.5416C97.8497 20.7517 97.5722 20.3351 96.5417 20.2916C96.2638 19.8749 95.9863 19.4583 95.7084 19.0416Z" fill="#252117"/>
<path fill-rule="evenodd" clip-rule="evenodd" d="M120.708 12.375C121.82 12.375 122.931 12.375 124.042 12.375C124.042 16.8195 124.042 21.2638 124.042 25.7083C123.712 29.7308 123.434 33.7588 123.208 37.7917C122.037 37.6558 120.926 37.3088 119.875 36.75C115.212 33.1283 110.49 29.5867 105.708 26.125C107.918 25.6404 110.14 25.5713 112.375 25.9167C114.092 26.7079 115.898 27.055 117.792 26.9583C118.035 25.7979 117.618 25.1033 116.542 24.875C114.312 23.9317 112.09 23.0983 109.875 22.375C111.352 21.6775 112.949 21.2608 114.667 21.125C116.22 21.3258 117.678 21.6733 119.042 22.1667C119.466 20.7569 118.911 19.7847 117.375 19.25C113.633 18.5473 110.161 19.1723 106.958 21.125C106.82 20.9863 106.681 20.8472 106.542 20.7083C110.481 16.6536 115.203 13.8758 120.708 12.375Z" fill="#F8E487"/>
<path fill-rule="evenodd" clip-rule="evenodd" d="M96.5417 20.2917C97.5721 20.3352 97.8496 20.7519 97.375 21.5417C96.8588 21.3576 96.4421 21.0797 96.125 20.7084C96.4029 20.7084 96.5417 20.5695 96.5417 20.2917Z" fill="#91907C"/>
<path fill-rule="evenodd" clip-rule="evenodd" d="M124.042 25.7083C124.042 21.2637 124.042 16.8194 124.042 12.375C122.931 12.375 121.82 12.375 120.708 12.375C121.793 11.562 122.973 11.4232 124.25 11.9583C124.594 16.6144 124.525 21.1975 124.042 25.7083Z" fill="#9F9263"/>
<path fill-rule="evenodd" clip-rule="evenodd" d="M82.7916 12.3751C81.8195 12.3751 80.847 12.3751 79.8749 12.3751C79.8749 16.8195 79.8749 21.2638 79.8749 25.7084C79.7361 25.7084 79.597 25.7084 79.4582 25.7084C79.3886 21.123 79.4582 16.5396 79.6666 11.9584C80.8024 11.462 81.8441 11.6009 82.7916 12.3751Z" fill="#CCC384"/>
<path fill-rule="evenodd" clip-rule="evenodd" d="M133.625 164.042C131.068 164.176 128.568 163.898 126.125 163.208C126.926 166.207 127.482 169.263 127.792 172.375C127.972 174.823 127.138 176.837 125.292 178.417C110.325 181.66 95.3251 184.855 80.2917 188C77.9871 188.566 75.973 188.08 74.2501 186.542C72.4805 181.825 71.3001 176.964 70.7084 171.958C65.6076 173.105 60.6075 174.494 55.7084 176.125C52.4013 176.903 49.2067 178.015 46.125 179.458C45.488 179.446 45.0017 179.168 44.6667 178.625C41.03 170.754 40.683 162.768 43.625 154.667C49.9913 152.485 56.5192 151.027 63.2084 150.292C64.5971 150.292 65.9863 150.292 67.375 150.292C67.498 149.36 67.3588 148.527 66.9584 147.792C66.6084 145.988 66.4 144.182 66.3334 142.375C67.6217 140.53 69.358 139.35 71.5417 138.833C83.8946 135.502 96.3946 132.863 109.042 130.917C111.68 130.639 114.32 130.639 116.958 130.917C118.104 131.385 119.145 132.01 120.083 132.792C121.258 136.918 122.299 141.084 123.208 145.292C126.631 143.386 130.243 141.928 134.042 140.917C139.558 140.105 144.975 138.855 150.292 137.167C150.986 136.889 151.68 136.889 152.375 137.167C160.442 143.175 163.081 150.952 160.292 160.5C151.26 161.087 142.37 162.267 133.625 164.042Z" fill="#0B0807"/>
<path fill-rule="evenodd" clip-rule="evenodd" d="M115.708 134.875C116.345 134.845 116.761 135.123 116.958 135.708C116.689 136.031 116.55 136.448 116.542 136.958C117.076 139.583 117.492 142.222 117.792 144.875C114.457 145.292 111.124 145.709 107.792 146.125C107.48 142.934 107.202 139.739 106.958 136.542C109.956 136.136 112.873 135.58 115.708 134.875Z" fill="#3C3E40"/>
<path fill-rule="evenodd" clip-rule="evenodd" d="M99.0418 137.792C99.3197 137.792 99.5972 137.792 99.8752 137.792C104.565 140.332 106.371 144.22 105.292 149.458C104.991 149.284 104.783 149.007 104.667 148.625C103.839 152.23 101.687 154.383 98.2085 155.083C103.826 152.387 105.423 148.15 103 142.375C100.837 139.615 97.9902 138.296 94.4585 138.417C96.0218 138.317 97.5497 138.108 99.0418 137.792Z" fill="#A0ADB0"/>
<path fill-rule="evenodd" clip-rule="evenodd" d="M99.0418 137.792C97.5497 138.108 96.0218 138.317 94.4585 138.417C97.9901 138.296 100.837 139.615 103 142.375C105.423 148.15 103.826 152.387 98.2085 155.083C101.687 154.383 103.839 152.23 104.667 148.625C104.783 149.007 104.991 149.284 105.292 149.458C104.305 152.945 102.083 155.168 98.6251 156.125C95.6843 156.085 92.9064 155.321 90.2918 153.833C89.9785 153.554 89.8393 153.207 89.8751 152.792C91.533 154.1 93.408 154.933 95.5001 155.292C96.0735 155.215 96.4205 154.937 96.5418 154.458C100.783 153.897 103.144 151.467 103.625 147.167C102.896 141.375 99.5622 138.667 93.6251 139.042C93.063 139.186 92.5072 139.325 91.9585 139.458C92.2943 138.947 92.711 138.53 93.2085 138.208C95.1651 137.387 97.1093 137.248 99.0418 137.792Z" fill="#859296"/>
<path fill-rule="evenodd" clip-rule="evenodd" d="M127.792 159.458C123.481 158.971 121.329 156.61 121.334 152.375C121.941 151.35 122.705 150.447 123.625 149.667C126.747 147.69 130.08 146.162 133.625 145.083C138.664 144.153 143.664 143.112 148.625 141.958C149.31 142.048 149.935 141.908 150.5 141.542C151.154 142.923 152.057 144.103 153.209 145.083C152.375 147.126 152.306 149.14 153 151.125C153.394 150.807 153.602 150.39 153.625 149.875C153.22 148.64 153.151 147.39 153.417 146.125C153.91 145.612 154.396 145.612 154.875 146.125C155.179 147.212 155.388 148.323 155.5 149.458C155.673 149.649 155.881 149.788 156.125 149.875C156.555 151.678 156.764 153.484 156.75 155.292C151.089 156.956 145.395 157.512 139.667 156.958C138.885 157.425 138.538 158.119 138.625 159.042C135.026 159.392 131.415 159.53 127.792 159.458Z" fill="#F4D1A1"/>
<path fill-rule="evenodd" clip-rule="evenodd" d="M21.9584 170.292C22.1421 179.735 22.2813 189.18 22.375 198.625C22.375 198.764 22.375 198.903 22.375 199.042C21.4175 200.145 20.445 200.145 19.4584 199.042C18.913 174.87 18.913 150.703 19.4584 126.542C19.7359 128.424 20.0138 130.368 20.2917 132.375C20.4305 131.264 20.5696 130.153 20.7084 129.042C20.4309 125.713 20.2921 122.38 20.2917 119.042C20.8471 119.042 21.403 119.042 21.9584 119.042C21.4988 136.194 21.4988 153.277 21.9584 170.292Z" fill="#252323"/>
<path fill-rule="evenodd" clip-rule="evenodd" d="M93.2081 138.208C92.7106 138.53 92.2939 138.947 91.9581 139.458C90.8898 140.52 89.8481 141.631 88.8331 142.792C88.201 145.117 88.0618 147.478 88.4164 149.875C89.1268 150.741 89.6131 151.713 89.8748 152.792C89.8389 153.207 89.9781 153.554 90.2914 153.833C92.906 155.321 95.6839 156.086 98.6248 156.125C89.8131 157.105 85.8548 153.077 86.7498 144.042C87.4831 142.153 88.5248 140.486 89.8748 139.042C90.8673 138.398 91.9785 138.12 93.2081 138.208Z" fill="#778183"/>
<path fill-rule="evenodd" clip-rule="evenodd" d="M115.708 134.875C112.873 135.58 109.956 136.136 106.958 136.542C107.202 139.739 107.48 142.934 107.792 146.125C111.124 145.709 114.457 145.292 117.792 144.875C117.492 142.222 117.075 139.583 116.542 136.958C116.55 136.447 116.689 136.031 116.958 135.708C117.787 139.675 118.62 143.702 119.458 147.792C116.427 151.216 116.219 154.827 118.833 158.625C119.535 159.257 120.16 159.952 120.708 160.708C114.877 161.958 109.044 163.208 103.208 164.458C102.703 164.355 102.425 164.077 102.375 163.625C101.68 161.125 100.986 158.625 100.292 156.125C105.147 153.772 107.022 149.883 105.917 144.458C105.034 141.287 103.159 138.926 100.292 137.375C100.065 137.35 99.9267 137.211 99.875 136.958C105.047 135.513 110.325 134.819 115.708 134.875Z" fill="#7C8183"/>
<path fill-rule="evenodd" clip-rule="evenodd" d="M110.708 137.792C114.523 137.37 116.121 139.037 115.5 142.792C113.364 144.986 111.211 144.986 109.042 142.792C108.511 141.757 108.511 140.715 109.042 139.667C108.873 139.273 108.595 138.995 108.208 138.833C109.088 138.481 109.921 138.134 110.708 137.792Z" fill="#1E2020"/>
<path fill-rule="evenodd" clip-rule="evenodd" d="M111.125 139.875C111.82 139.875 112.514 139.875 113.208 139.875C113.349 141.396 112.655 142.09 111.125 141.958C111.125 141.264 111.125 140.57 111.125 139.875Z" fill="#6FA2C4"/>
<path fill-rule="evenodd" clip-rule="evenodd" d="M88.2082 139.042C88.5161 138.987 88.794 139.057 89.0415 139.25C84.4128 144.874 84.6903 150.291 89.8748 155.5C91.6398 156.732 93.5844 157.357 95.7082 157.375C95.7082 157.792 95.7082 158.208 95.7082 158.625C94.2019 159.259 93.1603 160.37 92.5832 161.958C92.1044 163.164 91.8961 164.414 91.9582 165.708C92.3748 165.708 92.7915 165.708 93.2082 165.708C88.1898 167.018 83.0507 167.782 77.7915 168C80.3753 165.833 82.1111 163.125 82.9998 159.875C83.9903 158.475 84.8928 157.295 85.7082 156.333C84.7673 154.421 83.2394 153.31 81.1248 153C80.7082 152.583 80.2915 152.167 79.8748 151.75C77.2053 150.597 74.4278 149.833 71.5415 149.458C71.214 147.774 70.7973 146.107 70.2915 144.458C70.4303 144.18 70.5694 143.903 70.7082 143.625C76.3311 141.317 82.1644 139.789 88.2082 139.042Z" fill="#63676A"/>
<path fill-rule="evenodd" clip-rule="evenodd" d="M78.2082 143.625C78.6595 143.641 79.0762 143.78 79.4582 144.042C79.8682 145.262 80.007 146.512 79.8749 147.792C77.6528 147.93 75.4303 148.07 73.2082 148.208C73.0966 147.117 73.2353 146.075 73.6249 145.083C75.3391 145.035 76.867 144.549 78.2082 143.625Z" fill="#07080A"/>
<path fill-rule="evenodd" clip-rule="evenodd" d="M66.9585 147.792C67.3589 148.527 67.4981 149.36 67.3752 150.292C65.9864 150.292 64.5972 150.292 63.2085 150.292C64.3697 149.885 65.6197 149.746 66.9585 149.875C66.9585 149.18 66.9585 148.486 66.9585 147.792Z" fill="#7F6768"/>
<path fill-rule="evenodd" clip-rule="evenodd" d="M110.708 149.458C113.293 149.381 113.849 150.423 112.375 152.583C109.83 152.616 109.275 151.574 110.708 149.458Z" fill="#222629"/>
<path fill-rule="evenodd" clip-rule="evenodd" d="M75.7082 154.458C70.9861 154.458 66.2636 154.458 61.5415 154.458C64.0078 153.815 66.5773 153.537 69.2498 153.625C71.1248 153.695 72.9998 153.764 74.8748 153.833C75.2565 153.949 75.534 154.157 75.7082 154.458Z" fill="#DFC6A3"/>
<path fill-rule="evenodd" clip-rule="evenodd" d="M82.375 154.042C83.0071 154.046 83.4933 154.324 83.8333 154.875C84.1975 156.075 84.0583 157.185 83.4167 158.208C83.2887 156.73 82.9417 155.342 82.375 154.042Z" fill="#931C24"/>
<path fill-rule="evenodd" clip-rule="evenodd" d="M197.792 103.625C195.932 107.625 194.057 111.653 192.167 115.708C191.337 116.953 190.365 118.065 189.25 119.042C189.396 136.609 189.604 154.179 189.875 171.75C190.004 181.7 189.657 191.631 188.833 201.542C186.677 206.461 182.997 207.988 177.792 206.125C179.659 205.847 181.465 205.569 183.208 205.292C183.995 204.949 184.829 204.602 185.708 204.25C187.299 202.111 188.202 199.68 188.417 196.958C188.848 188.562 189.057 180.16 189.042 171.75C188.746 153.901 188.538 136.054 188.417 118.208C197.726 105.325 201.406 90.8805 199.458 74.8751C198.426 69.9088 197.523 64.9088 196.75 59.8751C196.515 58.8805 196.029 58.0472 195.292 57.3751C195.237 57.0101 195.376 56.7322 195.708 56.5417C196.292 57.2822 196.917 57.9767 197.583 58.6251C198.694 63.8997 199.805 69.1776 200.917 74.4584C201.23 81.1342 201.091 87.8009 200.5 94.4584C199.463 97.4955 198.561 100.551 197.792 103.625Z" fill="#D6D6D6"/>
<path fill-rule="evenodd" clip-rule="evenodd" d="M100.291 137.375C103.159 138.926 105.034 141.287 105.916 144.458C107.022 149.883 105.147 153.772 100.291 156.125C100.986 158.625 101.68 161.125 102.375 163.625C102.097 164.042 101.819 164.458 101.541 164.875C101.541 164.32 101.541 163.764 101.541 163.208C101.385 162.292 101.107 161.459 100.708 160.708C100.484 159.588 100.206 158.477 99.8748 157.375C98.9848 156.836 98.1515 156.836 97.3748 157.375C96.6765 157.66 96.3986 158.215 96.5415 159.042C96.5415 159.458 96.5415 159.875 96.5415 160.292C96.4027 160.292 96.2636 160.292 96.1248 160.292C95.819 159.788 95.6802 159.233 95.7081 158.625C95.7081 158.208 95.7081 157.792 95.7081 157.375C93.5844 157.357 91.6398 156.732 89.8748 155.5C84.6902 150.291 84.4127 144.874 89.0415 139.25C88.794 139.057 88.5161 138.987 88.2081 139.042C88.7636 138.486 89.3194 138.486 89.8748 139.042C88.5248 140.486 87.4831 142.153 86.7498 144.042C85.8548 153.077 89.8131 157.105 98.6248 156.125C102.082 155.167 104.304 152.945 105.291 149.458C106.37 144.22 104.565 140.332 99.8748 137.792C100.153 137.792 100.291 137.653 100.291 137.375Z" fill="#1C2124"/>
<path fill-rule="evenodd" clip-rule="evenodd" d="M96.5416 154.458C96.4204 154.937 96.0733 155.215 95.4999 155.292C93.4079 154.933 91.5329 154.1 89.8749 152.792C89.6133 151.712 89.127 150.74 88.4166 149.875C88.062 147.478 88.2012 145.117 88.8333 142.792C89.8483 141.631 90.8899 140.52 91.9583 139.458C92.507 139.324 93.0629 139.186 93.6249 139.042C99.562 138.667 102.895 141.375 103.625 147.167C103.144 151.467 100.783 153.897 96.5416 154.458Z" fill="#647072"/>
<path fill-rule="evenodd" clip-rule="evenodd" d="M93.2083 142.792C93.3471 143.07 93.4863 143.347 93.625 143.625C91.3279 146.104 91.4671 148.465 94.0417 150.708C94.0113 151.345 94.2892 151.761 94.875 151.958C95.2671 152.905 95.8225 153.738 96.5417 154.458C91.4254 154.343 88.7867 151.703 88.625 146.542C88.8379 143.34 90.4354 141.118 93.4167 139.875C93.5558 140.853 93.4863 141.825 93.2083 142.792Z" fill="#556063"/>
<path fill-rule="evenodd" clip-rule="evenodd" d="M94.0416 150.708C91.4671 148.465 91.3279 146.104 93.625 143.625C98.1666 142.12 100.18 143.787 99.6666 148.625C98.3325 150.785 96.4575 151.48 94.0416 150.708Z" fill="#ACBCC1"/>
<path fill-rule="evenodd" clip-rule="evenodd" d="M94.8752 151.958C94.2893 151.761 94.0114 151.345 94.0418 150.708C96.4577 151.48 98.3327 150.785 99.6668 148.625C100.181 143.787 98.1668 142.12 93.6252 143.625C93.4864 143.347 93.3472 143.07 93.2085 142.792C98.5518 141.122 100.983 143.067 100.5 148.625C99.4502 151.062 97.5752 152.173 94.8752 151.958Z" fill="#89989C"/>
<path fill-rule="evenodd" clip-rule="evenodd" d="M61.5416 154.458C66.2637 154.458 70.9862 154.458 75.7083 154.458C77.8478 154.723 79.0978 155.904 79.4583 158C79.282 159.362 78.9349 160.682 78.4166 161.958C75.0703 165.612 70.9728 168.043 66.1249 169.25C59.7937 170.62 53.6128 172.495 47.5833 174.875C47.2616 174.815 46.9837 174.676 46.7499 174.458C45.1749 169.114 44.897 163.697 45.9166 158.208C48.4766 156.943 51.1849 156.04 54.0416 155.5C56.5266 155.016 59.0266 154.669 61.5416 154.458Z" fill="#F3D0A1"/>
<path fill-rule="evenodd" clip-rule="evenodd" d="M127.792 159.458C131.414 159.53 135.026 159.392 138.625 159.042C138.538 158.119 138.885 157.424 139.667 156.958C145.395 157.512 151.089 156.956 156.75 155.292C156.763 153.484 156.555 151.678 156.125 149.875C155.881 149.788 155.672 149.649 155.5 149.458C155.387 148.323 155.179 147.212 154.875 146.125C154.395 145.612 153.909 145.612 153.417 146.125C153.151 147.39 153.22 148.64 153.625 149.875C153.602 150.39 153.393 150.807 153 151.125C152.306 149.139 152.375 147.126 153.208 145.083C152.057 144.103 151.154 142.923 150.5 141.542C149.935 141.908 149.31 142.047 148.625 141.958C149.469 141.297 150.442 141.088 151.542 141.333C156.225 145.494 158.309 150.702 157.792 156.958C150.907 157.226 144.102 158.129 137.375 159.667C134.106 160.009 130.912 159.94 127.792 159.458Z" fill="#E4C79F"/>
<path fill-rule="evenodd" clip-rule="evenodd" d="M97.7915 157.792C98.2065 157.756 98.5536 157.895 98.8332 158.208C99.1094 159.657 99.3178 161.115 99.4582 162.583C99.4294 163.411 99.1519 164.036 98.6248 164.458C98.8665 162.73 98.589 161.202 97.7915 159.875C97.7915 159.18 97.7915 158.486 97.7915 157.792Z" fill="#EAD53C"/>
<path fill-rule="evenodd" clip-rule="evenodd" d="M97.375 157.375C98.1517 156.836 98.985 156.836 99.875 157.375C100.206 158.477 100.484 159.588 100.708 160.708C100.708 161.542 100.708 162.375 100.708 163.208C100.3 161.438 99.8133 159.633 99.25 157.792C98.8288 157.443 98.3425 157.304 97.7917 157.375C97.6529 157.375 97.5138 157.375 97.375 157.375Z" fill="#47886B"/>
<path fill-rule="evenodd" clip-rule="evenodd" d="M97.3751 157.375C97.5139 157.375 97.653 157.375 97.7918 157.375C97.7918 157.514 97.7918 157.653 97.7918 157.792C97.7918 158.486 97.7918 159.18 97.7918 159.875C97.808 161.639 98.0855 163.305 98.6251 164.875C98.7639 164.875 98.903 164.875 99.0418 164.875C98.7464 165.252 98.3297 165.39 97.7918 165.292C97.6097 163.11 97.193 161.027 96.5418 159.042C96.3989 158.215 96.6768 157.66 97.3751 157.375Z" fill="#D97A45"/>
<path fill-rule="evenodd" clip-rule="evenodd" d="M96.5415 159.042C97.1928 161.027 97.6094 163.11 97.7915 165.292C97.3748 165.292 96.9582 165.292 96.5415 165.292C96.5415 163.625 96.5415 161.958 96.5415 160.292C96.5415 159.875 96.5415 159.458 96.5415 159.042Z" fill="#9A3F60"/>
<path fill-rule="evenodd" clip-rule="evenodd" d="M100.708 160.708C101.108 161.459 101.386 162.292 101.542 163.208C101.264 163.208 100.986 163.208 100.708 163.208C100.708 162.375 100.708 161.542 100.708 160.708Z" fill="#26697C"/>
<path fill-rule="evenodd" clip-rule="evenodd" d="M95.7084 158.625C95.6805 159.233 95.8193 159.788 96.1251 160.292C96.1251 162.097 96.1251 163.903 96.1251 165.708C95.153 165.708 94.1805 165.708 93.2084 165.708C92.7918 165.708 92.3751 165.708 91.9584 165.708C91.8964 164.414 92.1047 163.164 92.5834 161.958C93.1605 160.37 94.2022 159.259 95.7084 158.625Z" fill="#7C8184"/>
<path fill-rule="evenodd" clip-rule="evenodd" d="M97.7915 159.875C98.589 161.202 98.8665 162.73 98.6248 164.458C98.6248 164.597 98.6248 164.736 98.6248 164.875C98.0853 163.305 97.8078 161.639 97.7915 159.875Z" fill="#F8AF3E"/>
<path fill-rule="evenodd" clip-rule="evenodd" d="M97.7915 157.792C97.7915 157.653 97.7915 157.514 97.7915 157.375C98.3423 157.304 98.8286 157.443 99.2498 157.792C99.8132 159.633 100.299 161.438 100.708 163.208C100.708 163.764 100.708 164.319 100.708 164.875C100.153 164.875 99.5969 164.875 99.0415 164.875C98.9028 164.875 98.7636 164.875 98.6248 164.875C98.6248 164.736 98.6248 164.597 98.6248 164.458C99.1519 164.036 99.4294 163.411 99.4582 162.583C99.3178 161.115 99.1094 159.657 98.8332 158.208C98.5536 157.895 98.2065 157.756 97.7915 157.792Z" fill="#B8D64E"/>
<path fill-rule="evenodd" clip-rule="evenodd" d="M100.708 163.208C100.986 163.208 101.264 163.208 101.542 163.208C101.542 163.764 101.542 164.32 101.542 164.875C101.264 164.875 100.986 164.875 100.708 164.875C100.708 164.32 100.708 163.764 100.708 163.208Z" fill="#3A845F"/>
<path fill-rule="evenodd" clip-rule="evenodd" d="M133.625 164.042C134.241 163.932 134.796 164.071 135.292 164.458C138.273 171.244 140.287 178.327 141.333 185.708C141.62 186.92 142.106 188.031 142.792 189.042C143.327 191.426 143.466 193.787 143.208 196.125C113.062 195.984 82.9223 195.984 52.7915 196.125C52.8961 191.955 53.1044 187.788 53.4165 183.625C53.7961 180.992 54.5598 178.492 55.7082 176.125C60.6073 174.494 65.6073 173.105 70.7082 171.958C71.2998 176.964 72.4803 181.825 74.2498 186.542C75.9728 188.08 77.9869 188.566 80.2915 188C95.3248 184.855 110.325 181.66 125.292 178.417C127.138 176.837 127.972 174.823 127.792 172.375C127.482 169.262 126.926 166.207 126.125 163.208C128.568 163.898 131.068 164.176 133.625 164.042Z" fill="#FDDEDE"/>
<path fill-rule="evenodd" clip-rule="evenodd" d="M179.458 154.875C179.801 156.184 180.009 157.573 180.083 159.042C180.153 164.597 180.222 170.153 180.292 175.708C180.291 181.41 180.014 186.965 179.458 192.375C179.458 179.875 179.458 167.375 179.458 154.875Z" fill="#392827"/>
<path fill-rule="evenodd" clip-rule="evenodd" d="M97.375 176.125C91.2858 177.276 85.1746 178.248 79.0417 179.042C79.0746 178.446 78.9358 177.89 78.625 177.375C84.235 176.397 89.7904 175.425 95.2917 174.458C104.489 173.25 113.655 171.86 122.792 170.292C122.862 170.843 122.724 171.329 122.375 171.75C114.107 173.612 105.774 175.07 97.375 176.125Z" fill="#0D0F0F"/>
<path fill-rule="evenodd" clip-rule="evenodd" d="M101.542 179.042C99.4929 178.842 97.6871 178.079 96.125 176.75C96.6404 176.653 97.0571 176.445 97.375 176.125C105.774 175.07 114.107 173.612 122.375 171.75C122.724 171.329 122.862 170.842 122.792 170.292C113.655 171.86 104.489 173.25 95.2917 174.458C94.7408 174.529 94.2546 174.39 93.8333 174.042C93.3471 173.07 92.8613 172.097 92.375 171.125C92.8342 170.843 93.2508 170.566 93.625 170.292C103.219 168.603 112.802 166.797 122.375 164.875C122.89 167.285 123.307 169.716 123.625 172.167C123.61 173.039 123.471 173.872 123.208 174.667C116.044 176.347 108.822 177.805 101.542 179.042Z" fill="#7A7F81"/>
<path fill-rule="evenodd" clip-rule="evenodd" d="M5.2915 103.208C7.1435 107.993 9.43517 112.576 12.1665 116.958C11.8961 130.842 11.6878 144.732 11.5415 158.625C11.6225 171.682 11.8309 184.738 12.1665 197.792C12.3984 200.277 13.0234 202.638 14.0415 204.875C13.3839 204.639 12.8283 204.222 12.3748 203.625C11.8976 202.272 11.5504 200.883 11.3332 199.458C11.1943 192.653 11.0554 185.847 10.9165 179.042C10.7611 178.126 10.5528 177.223 10.2915 176.333C10.8454 164.739 10.8454 153.142 10.2915 141.542C10.4998 140.708 10.7082 139.875 10.9165 139.042C11.2636 131.26 11.1941 123.482 10.7082 115.708C9.60225 114.534 8.97725 113.145 8.83317 111.542C8.27763 110.986 7.72205 110.43 7.1665 109.875C6.02609 107.815 5.40109 105.593 5.2915 103.208Z" fill="#EAEAEA"/>
<path fill-rule="evenodd" clip-rule="evenodd" d="M93.625 170.292C93.2508 170.566 92.8342 170.843 92.375 171.125C92.8613 172.097 93.3471 173.07 93.8333 174.042C94.2546 174.39 94.7408 174.529 95.2917 174.458C89.7904 175.425 84.235 176.397 78.625 177.375C78.9358 177.89 79.0746 178.446 79.0417 179.042C85.1746 178.248 91.2858 177.276 97.375 176.125C97.0571 176.445 96.6404 176.653 96.125 176.75C97.6871 178.079 99.4929 178.843 101.542 179.042C93.9917 180.893 86.3525 182.56 78.625 184.042C77.5567 183.992 76.9317 183.436 76.75 182.375C76.0525 179.173 75.4275 175.979 74.875 172.792C81.1388 172.061 87.3888 171.228 93.625 170.292Z" fill="#636769"/>
<path fill-rule="evenodd" clip-rule="evenodd" d="M143.208 196.125C143.208 196.264 143.208 196.403 143.208 196.542C112.951 196.953 82.6739 197.093 52.3752 196.958C52.2364 196.958 52.0972 196.958 51.9585 196.958C51.9585 196.403 52.2364 196.125 52.7918 196.125C82.9227 195.984 113.062 195.984 143.208 196.125Z" fill="#F9E2E0"/>
<path fill-rule="evenodd" clip-rule="evenodd" d="M143.208 196.542C144.32 196.82 144.32 197.097 143.208 197.375C112.86 197.514 82.5825 197.375 52.375 196.958C82.6738 197.093 112.951 196.953 143.208 196.542Z" fill="#FED6DB"/>
<path fill-rule="evenodd" clip-rule="evenodd" d="M51.9585 196.958C52.0972 196.958 52.2364 196.958 52.3752 196.958C82.5827 197.375 112.861 197.514 143.208 197.375C143.208 197.653 143.208 197.93 143.208 198.208C112.097 198.208 80.9864 198.208 49.8752 198.208C41.0539 197.93 32.1652 197.653 23.2085 197.375C32.7877 196.958 42.371 196.82 51.9585 196.958Z" fill="#FEC9D1"/>
<path fill-rule="evenodd" clip-rule="evenodd" d="M49.875 198.208C80.9862 198.208 112.097 198.208 143.208 198.208C155.161 197.934 166.967 198.212 178.625 199.042C126.537 198.487 74.4533 198.487 22.375 199.042C22.375 198.903 22.375 198.764 22.375 198.625C31.5104 198.213 40.6771 198.074 49.875 198.208Z" fill="#FCE9E6"/>
<path fill-rule="evenodd" clip-rule="evenodd" d="M4.4585 94.4583C4.79254 97.3916 5.487 100.239 6.54183 103C8.0467 105.571 9.22725 108.28 10.0835 111.125C11.3616 112.461 12.3338 113.989 13.0002 115.708C12.7794 130.01 12.571 144.316 12.3752 158.625C12.4827 171.821 12.6911 185.015 13.0002 198.208C13.2822 200.644 14.185 202.797 15.7085 204.667C18.981 205.894 22.3143 206.032 25.7085 205.083C75.7085 204.875 125.708 204.805 175.708 204.875C175.755 205.132 175.893 205.34 176.125 205.5C125.986 205.639 75.8472 205.778 25.7085 205.917C23.0927 206.412 20.4535 206.62 17.7918 206.542C16.3863 206.306 15.1363 205.75 14.0418 204.875C13.0237 202.638 12.3987 200.277 12.1668 197.792C11.8312 184.738 11.6229 171.682 11.5418 158.625C11.6881 144.732 11.8965 130.842 12.1668 116.958C9.4355 112.576 7.14383 107.993 5.29183 103.208C4.73112 99.982 4.03666 96.7878 3.2085 93.6249C3.27795 93.0695 3.34737 92.5137 3.41683 91.9583C3.8415 92.7924 4.1887 93.6258 4.4585 94.4583Z" fill="#D3D3D3"/>
<path fill-rule="evenodd" clip-rule="evenodd" d="M197.791 103.625C197.985 105.946 197.29 107.96 195.708 109.667C195.769 109.988 195.907 110.266 196.125 110.5C193.617 113.919 191.603 117.6 190.083 121.542C190.562 146.677 190.701 171.815 190.5 196.958C190.085 198.614 189.738 200.281 189.458 201.958C189.545 202.203 189.684 202.411 189.875 202.583C188.742 203.455 187.909 204.566 187.375 205.917C183.066 208.05 178.622 208.328 174.042 206.75C121.884 206.554 69.8007 206.484 17.7915 206.542C20.4532 206.62 23.0923 206.412 25.7082 205.917C75.8469 205.778 125.986 205.639 176.125 205.5C175.893 205.34 175.754 205.132 175.708 204.875C178.184 205.255 180.684 205.394 183.208 205.292C181.465 205.569 179.659 205.847 177.792 206.125C182.996 207.988 186.677 206.461 188.833 201.542C189.656 191.63 190.004 181.7 189.875 171.75C189.604 154.179 189.396 136.609 189.25 119.042C190.365 118.065 191.337 116.953 192.166 115.708C194.056 111.653 195.931 107.625 197.791 103.625Z" fill="#E9E9E9"/>
</g>
<defs>
<clipPath id="clip0_781_376">
<rect width="200" height="200" fill="white" transform="translate(0.5 0.5)"/>
</clipPath>
</defs>
</svg>
