<svg width="185" height="201" viewBox="0 0 185 201" fill="none" xmlns="http://www.w3.org/2000/svg">
<path fill-rule="evenodd" clip-rule="evenodd" d="M88.1952 12.8502C88.2217 12.4682 88.3629 12.1389 88.6186 11.8622C89.5722 12.2211 90.5132 12.621 91.4415 13.0619C93.7962 13.4271 96.1015 13.9916 98.3575 14.7556C99.8582 15.4585 101.246 16.3289 102.521 17.3667C102.694 15.9134 102.765 14.455 102.733 12.9913C103.206 12.968 103.676 12.9915 104.144 13.0619C112.568 15.2108 120.895 17.7044 129.127 20.5425C133.098 22.4575 137.003 24.4805 140.842 26.6116C141.618 27.3879 142.394 28.1642 143.171 28.9405C144.355 30.6646 145.508 32.4054 146.629 34.1628C146.764 34.7683 146.741 35.3799 146.558 35.9977C145.998 36.5584 145.433 37.123 144.864 37.6914C144.798 37.8434 144.822 37.9845 144.935 38.1148C144.84 38.4912 144.606 38.7264 144.229 38.8205C144.159 38.5968 144.017 38.5262 143.806 38.6088C141.042 40.9662 137.843 42.354 134.208 42.7725C127.659 40.288 120.978 38.1943 114.166 36.4917C110.357 35.8647 106.546 35.2531 102.733 34.6568C100.007 34.4609 97.2785 34.3433 94.5467 34.3039C93.1172 34.0983 91.6586 34.0043 90.1712 34.0216C88.3478 33.978 86.5601 34.1192 84.8078 34.4451C73.8549 35.4822 63.081 37.4816 52.486 40.4437C50.3275 41.1708 48.2103 41.9941 46.1345 42.9137C45.1008 43.0036 44.0892 43.1917 43.0999 43.4782C43.0692 41.9111 42.9516 40.3586 42.7471 38.8205C42.9682 38.6538 43.086 38.4187 43.0999 38.1148C43.2583 37.4653 43.3289 36.8067 43.3116 36.1388C43.6171 35.4859 43.7582 34.7801 43.7351 34.0216C43.6941 31.9862 44.5644 30.4806 46.3462 29.5051C48.1735 24.431 51.3258 20.3848 55.8028 17.3667C55.7136 19.6032 55.9723 21.7909 56.5791 23.9299C56.7603 24.0264 56.9251 24.0029 57.0731 23.8593C57.9006 21.8003 58.7005 19.7302 59.4725 17.649C60.0672 16.4907 60.7729 15.4087 61.5897 14.4027C62.0247 14.8486 62.3541 15.366 62.5777 15.9553C63.1122 17.3413 63.5592 18.7528 63.9186 20.1896C64.1538 20.1896 64.389 20.1896 64.6243 20.1896C64.6243 19.9543 64.6243 19.7192 64.6243 19.4839C64.8257 19.2513 64.9433 18.969 64.9771 18.637C65.1092 17.1005 65.0387 15.595 64.7654 14.1204C64.7277 12.4168 64.5866 10.7231 64.342 9.03929C64.5358 9.01717 64.7241 9.0407 64.9066 9.10986C68.1077 11.9557 71.6363 14.3316 75.4923 16.2376C75.5879 15.4657 75.4703 14.713 75.1395 13.9793C74.8167 12.9989 74.3698 12.0815 73.7986 11.227C73.9397 11.1564 74.0809 11.0859 74.222 11.0153C78.7867 13.3913 83.5856 15.132 88.6186 16.2376C88.6092 15.0898 88.468 13.9607 88.1952 12.8502Z" fill="#231F20"/>
<path fill-rule="evenodd" clip-rule="evenodd" d="M88.6185 11.8621C88.3627 12.1388 88.2216 12.4682 88.195 12.8501C88.0572 12.4568 88.0102 12.0333 88.0539 11.5798C88.3193 11.5416 88.5074 11.6357 88.6185 11.8621Z" fill="#8B8989"/>
<path fill-rule="evenodd" clip-rule="evenodd" d="M64.7654 14.1204C65.0387 15.5949 65.1092 17.1005 64.9771 18.6369C64.9433 18.9689 64.8257 19.2512 64.6243 19.4838C64.7476 17.6992 64.7948 15.9113 64.7654 14.1204Z" fill="#ACABAB"/>
<path fill-rule="evenodd" clip-rule="evenodd" d="M42.747 38.8204C42.9515 40.3585 43.0691 41.911 43.0999 43.4781C44.0891 43.1916 45.1007 43.0035 46.1345 42.9136C43.1205 44.7959 40.3916 47.0541 37.9481 49.6884C38.0657 49.7354 38.1834 49.7826 38.301 49.8296C44.1261 48.3847 49.9836 48.22 55.8733 49.3356C61.1472 50.5843 65.8049 52.9837 69.8465 56.5339C74.469 58.4687 78.8916 60.774 83.114 63.4499C83.5374 63.5441 83.9609 63.5441 84.3843 63.4499C86.0986 63.1251 87.7923 62.7253 89.4654 62.2502C90.8671 62.0311 92.2786 61.9371 93.6997 61.9679C96.2074 62.7362 98.748 63.3242 101.321 63.7322C105.52 60.949 109.99 58.6437 114.73 56.8162C120.401 51.7604 127.058 49.1493 134.702 48.9827C137.844 49.0865 140.973 49.2982 144.088 49.6179C141.007 47.0196 137.713 44.7377 134.208 42.7724C137.843 42.3539 141.042 40.9661 143.806 38.6087C144.017 38.5261 144.158 38.5967 144.229 38.8204C142.842 40.2086 141.572 41.6906 140.418 43.2664C142.27 44.6237 144.105 46.0115 145.923 47.4302C146.801 46.5676 147.506 45.5796 148.04 44.4661C148.679 42.923 149.292 41.3704 149.875 39.8084C150.575 39.6416 150.998 39.9004 151.145 40.5847C150.836 41.5817 150.6 42.5932 150.439 43.6193C149.83 44.415 149.406 45.3089 149.169 46.301C150.58 46.301 151.992 46.301 153.403 46.301C153.933 46.2858 154.449 46.3563 154.956 46.5127C155.324 46.9593 155.324 47.4063 154.956 47.8536C153.022 47.8135 151.093 47.8841 149.169 48.0653C148.612 48.2496 148.095 48.5083 147.616 48.8416C148.485 49.7805 149.379 50.6979 150.298 51.5939C151.329 52.2148 152.435 52.6618 153.615 52.9347C154.18 52.6049 154.58 52.1345 154.815 51.5233C157.237 48.3745 158.342 44.799 158.132 40.7964C156.496 36.8376 153.556 35.2615 149.31 36.0681C148.438 36.2695 147.638 36.6224 146.911 37.1267C146.216 37.3798 145.557 37.709 144.935 38.1147C144.822 37.9844 144.798 37.8433 144.864 37.6913C145.433 37.1229 145.998 36.5583 146.558 35.9975C146.741 35.3798 146.764 34.7682 146.628 34.1627C150.482 32.5863 154.151 32.9391 157.638 35.2213C160.418 37.6345 161.523 40.6691 160.955 44.325C160.02 48.027 158.445 51.4145 156.226 54.4873C156.911 55.5604 157.899 56.172 159.19 56.3222C159.979 56.4887 160.779 56.6769 161.59 56.8868C162.238 57.0724 162.897 57.2135 163.566 57.3102C164.007 57.6616 164.524 57.8498 165.118 57.8748C169.189 59.3727 173.235 60.9253 177.257 62.5325C177.393 62.8001 177.44 63.0824 177.398 63.3793C177.19 66.0183 177.003 68.6529 176.833 71.2834C176.674 71.3712 176.532 71.4887 176.41 71.6362C174.946 71.6654 173.535 71.9477 172.175 72.4831C171.831 73.6042 171.643 74.7568 171.611 75.9411C171.101 78.0594 170.772 80.2235 170.623 82.4337C170.144 85.1833 169.58 87.912 168.929 90.62C168.627 91.0858 168.438 91.6033 168.365 92.1726C167.065 95.8121 165.347 99.2467 163.213 102.476C163.142 103.745 163.118 105.016 163.142 106.287C163.118 107.417 163.142 108.546 163.213 109.674C163.234 110.462 163.351 111.215 163.566 111.933C164.531 133.847 164.789 155.772 164.342 177.705C164.312 180.441 164.171 183.169 163.919 185.892C162.868 187.106 161.998 187.011 161.307 185.609C161.449 181.892 161.614 178.175 161.801 174.459C161.872 157.52 161.731 140.583 161.378 123.648C161.241 117.802 160.912 111.968 160.39 106.146C159.919 106.734 159.425 107.299 158.908 107.839C154.95 111.675 150.199 113.792 144.652 114.191C142.676 114.191 140.7 114.191 138.724 114.191C134.15 114.216 129.586 114.028 125.034 113.626C118.279 112.277 112.633 109.031 108.096 103.887C107.861 105.628 107.344 107.275 106.544 108.827C104.692 110.433 102.527 111.139 100.051 110.945C99.8245 112.582 99.6834 114.229 99.6278 115.885C99.323 117.74 98.4762 119.316 97.0872 120.613C96.492 120.959 95.8804 121.218 95.2523 121.389C93.3308 121.64 91.4018 121.711 89.4654 121.601C88.1503 121.413 86.9741 120.919 85.9369 120.119C84.9452 119.03 84.2865 117.759 83.9609 116.308C83.8669 114.899 83.8199 113.487 83.8197 112.074C80.8251 112.629 78.3786 111.735 76.4803 109.392C75.7717 107.875 75.3483 106.275 75.21 104.593C70.5682 109.408 64.9225 112.278 58.2728 113.203C57.383 113.194 56.5361 113.335 55.7322 113.626C51.2091 113.562 46.6925 113.703 42.1824 114.05C41.3237 114.047 40.4769 113.953 39.6419 113.767C38.8245 113.559 37.9776 113.418 37.1013 113.344C33.6064 112.89 30.5013 111.549 27.7858 109.321C25.8177 107.472 23.9829 105.519 22.2812 103.464C21.5239 110.83 21.0299 118.216 20.7992 125.624C20.7042 145.571 20.7277 165.52 20.8698 185.468C20.6375 186.549 19.9788 186.949 18.8938 186.668C18.6314 186.448 18.4197 186.19 18.2587 185.892C17.9397 166.651 17.8457 147.408 17.9764 128.164C18.304 118.879 18.8921 109.61 19.7407 100.359C19.7171 100.124 19.6937 99.8884 19.6701 99.6532C18.1798 96.6259 16.8859 93.5208 15.7886 90.3377C15.7847 89.8556 15.6436 89.4321 15.3652 89.0674C15.0619 87.2215 14.6855 85.3867 14.2361 83.5628C14.1578 82.7648 14.0872 81.9651 14.0244 81.1634C13.967 80.7058 13.8494 80.2824 13.6715 79.8931C13.7126 79.074 13.6185 78.2742 13.3892 77.4937C13.4418 76.5501 13.3006 75.6561 12.9658 74.8119C13.0359 73.6797 12.8477 72.5977 12.4012 71.5656C11.0065 70.9465 9.54804 70.57 8.02577 70.4365C7.98235 70.3225 7.91178 70.2283 7.81405 70.1542C7.54513 67.2884 7.40399 64.4186 7.39062 61.5445C10.5514 60.1222 13.7742 58.8519 17.0589 57.7336C17.8338 57.6472 18.5395 57.4119 19.1761 57.0279C21.9004 56.1395 24.6763 55.4574 27.5035 54.9813C27.8056 54.844 28.0409 54.6323 28.2093 54.3462C26.1397 52.5102 24.5165 50.346 23.3398 47.8536C22.0413 44.4485 21.806 40.9669 22.6341 37.409C23.736 34.4725 25.8296 32.7082 28.915 32.1161C34.8883 31.598 39.499 33.8328 42.747 38.8204Z" fill="#20201F"/>
<path fill-rule="evenodd" clip-rule="evenodd" d="M94.5465 34.3039C91.2985 34.2767 88.0522 34.3238 84.8076 34.4451C86.5599 34.1192 88.3476 33.978 90.1711 34.0216C91.6584 34.0043 93.117 34.0983 94.5465 34.3039Z" fill="#67717B"/>
<path fill-rule="evenodd" clip-rule="evenodd" d="M94.5465 34.3039C97.2783 34.3432 100.007 34.4608 102.733 34.6567C106.546 35.2531 110.357 35.8646 114.165 36.4916C120.978 38.1942 127.659 40.2879 134.208 42.7725C137.713 44.7377 141.006 47.0196 144.088 49.6179C140.972 49.2982 137.844 49.0865 134.702 48.9828C127.058 49.1493 120.4 51.7605 114.73 56.8162C109.99 58.6437 105.52 60.949 101.321 63.7322C98.7479 63.3242 96.2073 62.7362 93.6996 61.968C92.6426 61.8048 91.5606 61.7814 90.4533 61.8974C90.0858 61.9524 89.7563 62.0701 89.4653 62.2502C87.7922 62.7253 86.0985 63.1252 84.3841 63.45C83.9607 63.5441 83.5373 63.5441 83.1138 63.45C78.8914 60.774 74.4688 58.4687 69.8464 56.5339C65.8047 52.9838 61.147 50.5843 55.8732 49.3356C49.9834 48.22 44.126 48.3847 38.3009 49.8296C38.1833 49.7826 38.0656 49.7355 37.948 49.6885C40.3915 47.0542 43.1203 44.7959 46.1343 42.9136C48.2101 41.9941 50.3273 41.1708 52.4858 40.4436C63.0808 37.4816 73.8547 35.4821 84.8076 34.445C88.0522 34.3238 91.2985 34.2766 94.5465 34.3039Z" fill="#A9C1D4"/>
<path fill-rule="evenodd" clip-rule="evenodd" d="M43.7351 34.0215C43.7582 34.78 43.6171 35.4857 43.3116 36.1386C43.3005 35.3862 43.4416 34.6805 43.7351 34.0215Z" fill="#646262"/>
<path fill-rule="evenodd" clip-rule="evenodd" d="M40.6298 40.6553C40.467 42.3932 39.573 42.9342 37.948 42.2784C37.3677 41.6587 36.8737 40.9765 36.466 40.2319C36.3321 40.4567 36.1675 40.6448 35.972 40.7964C34.9071 40.0328 34.3425 40.3151 34.2783 41.6433C34.2783 41.8314 34.2783 42.0197 34.2783 42.2079C33.4262 42.1614 32.5794 42.2084 31.7377 42.349C31.8786 42.8437 32.1609 43.2436 32.5846 43.5487C32.5524 43.605 32.5053 43.6285 32.4435 43.6193C31.6268 43.3236 30.8035 43.0413 29.9735 42.7724C29.6641 42.8237 29.4052 42.9648 29.1972 43.1959C28.1527 42.692 27.4234 41.8923 27.0094 40.7964C26.5228 39.5228 26.2639 38.2053 26.2332 36.8444C26.8842 35.7871 27.8253 35.105 29.056 34.7978C34.1784 34.3243 38.0363 36.2767 40.6298 40.6553Z" fill="#A8BFD2"/>
<path fill-rule="evenodd" clip-rule="evenodd" d="M154.815 51.5233C152.709 51.3916 151.768 50.2624 151.992 48.1358C153.011 48.157 153.999 48.0629 154.956 47.8535C155.324 47.4063 155.324 46.9593 154.956 46.5127C154.449 46.3563 153.933 46.2857 153.403 46.301C153.552 45.7055 153.928 45.3055 154.532 45.1013C153.546 44.9986 152.558 44.9046 151.568 44.819C151.019 44.5707 150.643 44.1708 150.439 43.6192C150.6 42.5931 150.836 41.5817 151.145 40.5847C150.998 39.9004 150.575 39.6415 149.875 39.8084C149.292 41.3704 148.679 42.923 148.04 44.4661C146.328 44.5899 145.386 43.7902 145.217 42.0667C145.316 40.9926 145.576 39.9576 145.993 38.9615C146.376 38.3845 146.682 37.773 146.911 37.1267C147.638 36.6224 148.438 36.2695 149.31 36.0681C153.556 35.2614 156.496 36.8376 158.132 40.7964C158.342 44.7989 157.237 48.3745 154.815 51.5233Z" fill="#A8C0D2"/>
<path fill-rule="evenodd" clip-rule="evenodd" d="M26.2331 36.8445C26.2639 38.2054 26.5227 39.5228 27.0094 40.7965C27.4234 41.8923 28.1527 42.692 29.1971 43.1959C29.1623 43.6201 29.3034 43.9729 29.6206 44.2545C31.8493 45.194 33.8724 46.4408 35.6897 47.9948C34.7453 49.1508 33.8279 50.3269 32.9374 51.5234C32.2652 52.2482 31.4419 52.601 30.4674 52.582C26.1785 49.1759 24.2731 44.7299 24.7511 39.2439C25.1072 38.3405 25.6012 37.5406 26.2331 36.8445Z" fill="#92A6B6"/>
<path fill-rule="evenodd" clip-rule="evenodd" d="M146.911 37.1267C146.682 37.773 146.376 38.3846 145.993 38.9616C145.576 39.9576 145.316 40.9926 145.217 42.0667C145.386 43.7902 146.328 44.5899 148.04 44.4662C147.506 45.5796 146.801 46.5676 145.923 47.4302C144.105 46.0115 142.27 44.6237 140.418 43.2664C141.572 41.6906 142.842 40.2086 144.229 38.8204C144.606 38.7263 144.84 38.4911 144.935 38.1147C145.557 37.7091 146.216 37.3798 146.911 37.1267Z" fill="#92A5B4"/>
<path fill-rule="evenodd" clip-rule="evenodd" d="M40.6299 40.6554C41.1743 41.201 41.5977 41.8362 41.9002 42.5608C40.4166 43.7625 38.9346 44.9622 37.4542 46.16C37.2209 46.1148 37.0797 45.9736 37.0307 45.7365C36.6137 44.0974 36.2608 42.4507 35.9722 40.7965C36.1677 40.6449 36.3322 40.4568 36.4662 40.2319C36.8738 40.9766 37.3678 41.6588 37.9482 42.2785C39.5732 42.9343 40.4672 42.3933 40.6299 40.6554Z" fill="#91A4B4"/>
<path fill-rule="evenodd" clip-rule="evenodd" d="M34.2784 41.6433C34.5899 42.6289 34.8722 43.6403 35.1252 44.6779C35.0741 44.8508 35.0036 45.0154 34.9135 45.1719C34.0931 44.6331 33.2696 44.1157 32.4435 43.6193C32.5053 43.6285 32.5525 43.6051 32.5847 43.5487C32.1609 43.2436 31.8787 42.8437 31.7378 42.349C32.5794 42.2084 33.4263 42.1614 34.2784 42.2079C34.2784 42.0197 34.2784 41.8315 34.2784 41.6433Z" fill="#8EA0B0"/>
<path fill-rule="evenodd" clip-rule="evenodd" d="M150.439 43.6194C150.642 44.171 151.019 44.5708 151.568 44.8191C152.558 44.9048 153.546 44.9988 154.532 45.1014C153.928 45.3056 153.551 45.7056 153.403 46.3011C151.992 46.3011 150.58 46.3011 149.169 46.3011C149.406 45.309 149.829 44.4152 150.439 43.6194Z" fill="#90A4B2"/>
<path fill-rule="evenodd" clip-rule="evenodd" d="M154.956 47.8537C153.999 48.063 153.011 48.1571 151.992 48.136C151.767 50.2626 152.709 51.3917 154.815 51.5234C154.58 52.1345 154.18 52.605 153.615 52.9348C152.435 52.6619 151.329 52.2148 150.298 51.594C149.379 50.698 148.484 49.7806 147.616 48.8417C148.095 48.5084 148.612 48.2497 149.169 48.0654C151.093 47.8842 153.022 47.8136 154.956 47.8537Z" fill="#8D9FAF"/>
<path fill-rule="evenodd" clip-rule="evenodd" d="M53.1917 51.8056C51.8124 51.9123 50.448 52.124 49.0985 52.4408C49.2902 52.5726 49.4785 52.6903 49.6631 52.7936C49.0892 52.8209 48.5246 52.7739 47.9694 52.6525C45.8768 52.4927 43.7596 52.3751 41.6179 52.2996C41.7423 52.1997 41.8363 52.082 41.9002 51.9468C45.6793 51.4506 49.443 51.4035 53.1917 51.8056Z" fill="#C9C9C9"/>
<path fill-rule="evenodd" clip-rule="evenodd" d="M53.1915 51.8057C55.2222 52.0546 57.1982 52.5251 59.1196 53.2171C58.5361 53.3561 57.9244 53.4031 57.2847 53.3582C56.1532 53.3581 55.024 53.3111 53.8973 53.2171C53.0929 52.9393 52.246 52.7982 51.3567 52.7937C50.7921 52.7937 50.2275 52.7937 49.663 52.7937C49.4783 52.6904 49.2901 52.5726 49.0984 52.4408C50.4479 52.1241 51.8123 51.9124 53.1915 51.8057Z" fill="#EDEDED"/>
<path fill-rule="evenodd" clip-rule="evenodd" d="M140.418 52.229C139.523 52.2056 138.629 52.229 137.736 52.2996C136.686 52.4555 135.698 52.7612 134.772 53.217C132.954 53.3004 131.167 53.4886 129.409 53.7816C128.802 53.8804 128.191 53.9274 127.574 53.9227C127.007 53.8993 126.443 53.9229 125.88 53.9933C125.706 54.026 125.565 54.0966 125.457 54.205C124.981 54.3322 124.51 54.3322 124.045 54.205C129.304 51.8225 134.762 51.1638 140.418 52.229Z" fill="#C5C5C4"/>
<path fill-rule="evenodd" clip-rule="evenodd" d="M41.9002 51.9468C41.8363 52.082 41.7423 52.1997 41.6179 52.2996C43.7596 52.3751 45.8768 52.4927 47.9694 52.6525C45.5665 52.6158 43.1671 52.6628 40.7711 52.7936C40.3451 52.8169 39.9217 52.7934 39.5008 52.7231C39.4223 52.669 39.3753 52.5984 39.3596 52.5114C40.1854 52.2343 41.0323 52.0461 41.9002 51.9468Z" fill="#959594"/>
<path fill-rule="evenodd" clip-rule="evenodd" d="M140.418 52.229C141.903 52.338 143.361 52.5732 144.794 52.9347C144.809 53.0218 144.856 53.0924 144.935 53.1464C144.043 53.217 143.148 53.2404 142.253 53.217C139.759 53.217 137.266 53.217 134.772 53.217C135.698 52.7612 136.686 52.4555 137.736 52.2996C138.629 52.229 139.523 52.2056 140.418 52.229Z" fill="#F2F2F2"/>
<path fill-rule="evenodd" clip-rule="evenodd" d="M39.3595 52.5112C39.3752 52.5983 39.4222 52.6689 39.5006 52.7229C39.9215 52.7932 40.345 52.8168 40.7709 52.7935C39.7675 53.0432 38.7325 53.1138 37.6658 53.0052C38.2133 52.7656 38.7778 52.6009 39.3595 52.5112Z" fill="#4D4D4C"/>
<path fill-rule="evenodd" clip-rule="evenodd" d="M51.3567 52.7935C52.246 52.798 53.0929 52.9391 53.8973 53.2169C53.0031 53.2539 52.1563 53.1127 51.3567 52.7935Z" fill="#8F8F8E"/>
<path fill-rule="evenodd" clip-rule="evenodd" d="M144.794 52.9348C145.89 53.1265 146.971 53.3853 148.04 53.7111C147.954 53.8339 147.837 53.9045 147.687 53.9228C145.886 53.6703 144.074 53.5292 142.253 53.4994C142.253 53.4052 142.253 53.3112 142.253 53.2171C143.148 53.2405 144.043 53.2171 144.935 53.1465C144.856 53.0925 144.809 53.0219 144.794 52.9348Z" fill="#BCBCBC"/>
<path fill-rule="evenodd" clip-rule="evenodd" d="M59.1195 53.217C59.5445 53.3668 59.9679 53.5314 60.3898 53.711C59.3088 53.841 58.2738 53.7235 57.2847 53.3582C57.9243 53.4031 58.536 53.3561 59.1195 53.217Z" fill="#B0B0B0"/>
<path fill-rule="evenodd" clip-rule="evenodd" d="M134.772 53.217C137.266 53.217 139.759 53.217 142.253 53.217C142.253 53.3112 142.253 53.4052 142.253 53.4993C137.967 53.445 133.686 53.5391 129.409 53.7816C131.167 53.4886 132.954 53.3005 134.772 53.217Z" fill="#555555"/>
<path fill-rule="evenodd" clip-rule="evenodd" d="M127.574 53.9228C126.906 54.155 126.2 54.249 125.457 54.2051C125.565 54.0967 125.706 54.0261 125.88 53.9934C126.443 53.923 127.008 53.8994 127.574 53.9228Z" fill="#5C5C5B"/>
<path fill-rule="evenodd" clip-rule="evenodd" d="M159.19 56.322C160.075 56.2258 160.874 56.4139 161.59 56.8866C160.779 56.6767 159.979 56.4886 159.19 56.322Z" fill="#979797"/>
<path fill-rule="evenodd" clip-rule="evenodd" d="M19.176 57.0278C18.5394 57.4119 17.8337 57.6472 17.0588 57.7335C17.6866 57.305 18.3924 57.0699 19.176 57.0278Z" fill="#6D6D6C"/>
<path fill-rule="evenodd" clip-rule="evenodd" d="M163.566 57.3101C164.154 57.3336 164.672 57.5218 165.118 57.8746C164.524 57.8496 164.007 57.6615 163.566 57.3101Z" fill="#7A7A7A"/>
<path fill-rule="evenodd" clip-rule="evenodd" d="M49.8042 58.7216C46.3427 58.7494 42.8611 58.8436 39.3596 59.0039C39.6385 58.7906 39.9678 58.6731 40.3476 58.651C43.5239 58.5339 46.6761 58.5575 49.8042 58.7216Z" fill="#BDBDBD"/>
<path fill-rule="evenodd" clip-rule="evenodd" d="M49.8042 58.7217C54.5543 58.7484 59.212 59.4069 63.7774 60.6977C64.1709 61.0472 64.6415 61.1883 65.1888 61.1211C65.6341 61.3436 66.1046 61.4847 66.6003 61.5445C67.0054 61.8683 67.4758 62.0566 68.0117 62.1091C69.7901 62.516 71.3661 63.3159 72.74 64.5086C73.808 66.5025 74.6783 68.5726 75.3512 70.7189C75.3221 71.1416 75.4161 71.518 75.6334 71.848C76.9037 76.6009 77.092 81.3997 76.198 86.2446C76.0706 86.6527 76.0236 87.0761 76.0569 87.5149C73.3918 97.2834 67.4166 104.223 58.1317 108.334C57.3157 108.671 56.4689 108.883 55.5911 108.969C54.5538 108.976 53.5187 109.023 52.4859 109.11C47.6261 109.375 43.1095 108.269 38.9362 105.793C34.6525 103.347 30.9122 100.218 27.7153 96.4069C21.375 86.0069 21.2339 75.5153 27.2919 64.932C28.1983 63.7294 29.0686 62.5062 29.903 61.2623C31.9653 60.2997 34.1294 59.6881 36.3956 59.4274C37.1468 59.3527 37.8996 59.2822 38.6539 59.2157C38.7324 59.1616 38.7794 59.0911 38.795 59.004C38.9832 59.004 39.1715 59.004 39.3596 59.004C42.8611 58.8436 46.3427 58.7495 49.8042 58.7217Z" fill="#FDFDFD"/>
<path fill-rule="evenodd" clip-rule="evenodd" d="M142.112 59.4274C138.019 59.4274 133.925 59.4274 129.832 59.4274C131.299 59.0923 132.804 58.9512 134.349 59.0039C136.965 59.0367 139.552 59.1778 142.112 59.4274Z" fill="#B5B5B5"/>
<path fill-rule="evenodd" clip-rule="evenodd" d="M38.7949 59.0039C38.7793 59.091 38.7323 59.1616 38.6538 59.2156C37.8995 59.2821 37.1467 59.3527 36.3955 59.4273C37.1398 59.0741 37.9395 58.9329 38.7949 59.0039Z" fill="#AAAAA9"/>
<path fill-rule="evenodd" clip-rule="evenodd" d="M129.832 59.4272C133.926 59.4272 138.019 59.4272 142.112 59.4272C145.583 59.6038 148.97 60.2154 152.274 61.2621C157.051 63.7996 159.849 67.7516 160.672 73.1181C161.574 85.4433 157.646 95.9114 148.887 104.523C145.708 106.908 142.18 108.579 138.301 109.533C132.835 108.301 127.942 105.925 123.622 102.405C121.674 100.598 119.768 98.7397 117.906 96.8302C112.078 88.1433 111.09 78.922 114.942 69.1661C116.177 66.5513 117.659 64.1049 119.388 61.8267C119.388 61.7325 119.388 61.6385 119.388 61.5444C119.435 61.5444 119.482 61.5444 119.529 61.5444C120.029 61.5963 120.453 61.4552 120.799 61.121C123.748 60.2114 126.759 59.6469 129.832 59.4272Z" fill="#FDFDFD"/>
<path fill-rule="evenodd" clip-rule="evenodd" d="M63.7773 60.6976C64.3078 60.6828 64.7783 60.8239 65.1888 61.121C64.6414 61.1882 64.1709 61.0471 63.7773 60.6976Z" fill="#757575"/>
<path fill-rule="evenodd" clip-rule="evenodd" d="M120.799 61.1211C120.452 61.4553 120.029 61.5964 119.529 61.5445C119.875 61.2103 120.299 61.0691 120.799 61.1211Z" fill="#A5A5A5"/>
<path fill-rule="evenodd" clip-rule="evenodd" d="M29.903 61.2621C29.0686 62.506 28.1983 63.7293 27.2919 64.9318C21.2339 75.5151 21.375 86.0067 27.7153 96.4067C30.9122 100.218 34.6525 103.346 38.9362 105.793C43.1095 108.269 47.6261 109.374 52.486 109.11C50.3492 109.331 48.185 109.425 45.9934 109.392C41.566 109.108 37.4258 107.862 33.5728 105.652C31.9262 104.546 30.2325 103.511 28.4916 102.546C25.885 99.6165 23.909 96.2996 22.5636 92.5959C22.4006 91.9894 22.1654 91.4248 21.8579 90.9022C21.568 89.3022 21.2621 87.7026 20.9404 86.1033C20.87 85.3048 20.8464 84.505 20.8699 83.7039C20.8339 79.6559 20.8809 75.6097 21.011 71.5655C21.1862 69.6633 21.8683 67.9696 23.0576 66.4844C24.7907 64.7034 26.649 63.0803 28.6327 61.6149C29.0147 61.3456 29.4381 61.2281 29.903 61.2621Z" fill="#D7D7D7"/>
<path fill-rule="evenodd" clip-rule="evenodd" d="M152.274 61.2622C156.192 62.3335 159.368 64.4976 161.801 67.7548C163.375 70.1245 164.151 72.7356 164.13 75.5882C164.088 79.9599 163.783 84.3117 163.213 88.644C162.167 93.5763 160.143 98.0458 157.144 102.053C156.645 102.599 156.103 103.093 155.52 103.535C151.979 105.729 148.263 107.54 144.37 108.969C141.213 109.685 138.014 110.062 134.772 110.098C134.018 110.121 133.265 110.098 132.514 110.027C132.339 109.994 132.198 109.924 132.091 109.815C134.19 109.87 136.26 109.775 138.301 109.533C142.179 108.579 145.708 106.909 148.887 104.523C157.646 95.9115 161.574 85.4434 160.672 73.1182C159.849 67.7517 157.05 63.7997 152.274 61.2622Z" fill="#C9C9C9"/>
<path fill-rule="evenodd" clip-rule="evenodd" d="M66.6001 61.5444C67.1741 61.5029 67.6446 61.6912 68.0115 62.109C67.4756 62.0565 67.0052 61.8682 66.6001 61.5444Z" fill="#7A7A7A"/>
<path fill-rule="evenodd" clip-rule="evenodd" d="M93.6996 61.9679C92.2785 61.9371 90.867 62.0311 89.4653 62.2502C89.7564 62.0701 90.0858 61.9524 90.4533 61.8973C91.5606 61.7813 92.6426 61.8047 93.6996 61.9679Z" fill="#768490"/>
<path fill-rule="evenodd" clip-rule="evenodd" d="M119.388 61.5444C119.388 61.6386 119.388 61.7326 119.388 61.8267C118.359 62.0983 117.324 62.3336 116.283 62.5324C117.252 62.0372 118.287 61.7079 119.388 61.5444Z" fill="#999999"/>
<path fill-rule="evenodd" clip-rule="evenodd" d="M119.388 61.8267C117.659 64.1049 116.177 66.5513 114.942 69.1661C111.09 78.9219 112.078 88.1432 117.906 96.8302C119.768 98.7397 121.673 100.598 123.622 102.405C127.942 105.925 132.835 108.301 138.301 109.533C136.26 109.775 134.189 109.869 132.091 109.815C130.816 109.752 129.545 109.635 128.28 109.463C116.598 104.999 109.917 96.5544 108.237 84.1273C108.043 81.0665 108.09 78.0083 108.378 74.953C108.912 70.8806 110.37 67.1873 112.754 63.8732C113.866 63.2439 115.043 62.7969 116.283 62.5324C117.324 62.3335 118.359 62.0982 119.388 61.8267Z" fill="#D9D9D9"/>
<path fill-rule="evenodd" clip-rule="evenodd" d="M149.31 63.6616C150.983 63.5798 152.582 63.8855 154.109 64.5791C155.553 65.4635 156.376 66.7572 156.579 68.4605C156.942 71.4238 156.024 73.8938 153.827 75.8705C151.962 77.0216 149.94 77.398 147.758 76.9997C143.916 75.7897 142.245 73.1785 142.747 69.1662C144.187 66.4322 146.374 64.5973 149.31 63.6616Z" fill="#20201E"/>
<path fill-rule="evenodd" clip-rule="evenodd" d="M146.77 65.2142C148.916 64.9845 149.834 65.9253 149.522 68.0371C148.48 69.2212 147.351 69.3152 146.134 68.3194C145.691 67.1322 145.903 66.0972 146.77 65.2142Z" fill="#E5ECF0"/>
<path fill-rule="evenodd" clip-rule="evenodd" d="M177.398 63.3794C177.561 64.719 177.584 66.0834 177.468 67.4725C177.307 68.5255 177.19 69.5841 177.115 70.6483C177.105 70.9286 177.011 71.1403 176.833 71.2834C177.002 68.6529 177.19 66.0184 177.398 63.3794Z" fill="#A8A8A8"/>
<path fill-rule="evenodd" clip-rule="evenodd" d="M102.592 95.4187C101.949 95.1092 101.314 94.7799 100.686 94.4307C100.702 92.864 100.114 91.5938 98.9219 90.6199C98.5926 90.3376 98.2632 90.0553 97.9339 89.773C97.9977 86.1463 97.5037 82.5708 96.4519 79.0461C95.2005 75.5363 92.7777 73.3016 89.183 72.3418C87.6729 72.0611 86.4261 72.5079 85.4427 73.6827C85.377 75.6883 85.2124 77.6643 84.9487 79.6107C85.0369 77.2594 85.0839 74.907 85.0899 72.5535C86.4958 72.2338 87.8602 71.7868 89.183 71.2127C90.9655 70.9988 92.7532 70.9518 94.5465 71.0715C96.1297 71.6386 97.7294 72.1326 99.3453 72.5535C98.9612 80.363 100.09 87.9377 102.733 95.2776C102.715 95.3633 102.668 95.4103 102.592 95.4187Z" fill="#8699A8"/>
<path fill-rule="evenodd" clip-rule="evenodd" d="M75.3511 70.7188C75.5943 71.0406 75.6883 71.417 75.6334 71.8479C75.416 71.5179 75.322 71.1415 75.3511 70.7188Z" fill="#A7A7A6"/>
<path fill-rule="evenodd" clip-rule="evenodd" d="M97.934 89.7732C94.4511 88.4739 90.8756 88.1211 87.2071 88.7146C85.9103 89.0456 84.7106 89.5866 83.608 90.3377C83.4747 90.2301 83.4041 90.0889 83.3962 89.9143C84.1794 86.5187 84.6969 83.0843 84.9488 79.6109C85.2125 77.6645 85.377 75.6885 85.4428 73.6828C86.4262 72.5081 87.673 72.0612 89.1831 72.342C92.7778 73.3018 95.2006 75.5365 96.452 79.0463C97.5038 82.5709 97.9978 86.1465 97.934 89.7732Z" fill="#A8C0D3"/>
<path fill-rule="evenodd" clip-rule="evenodd" d="M38.5128 79.4696C38.5259 80.3677 38.4789 81.2615 38.3716 82.1513C37.9222 85.1925 36.2756 87.2861 33.4316 88.4322C28.187 88.7962 25.1759 86.3733 24.3984 81.1633C24.5602 78.6752 25.6893 76.7698 27.7859 75.447C30.553 73.7557 33.3759 73.6615 36.2545 75.1647C37.6566 76.2515 38.4093 77.6864 38.5128 79.4696Z" fill="#20201E"/>
<path fill-rule="evenodd" clip-rule="evenodd" d="M12.9658 74.812C13.3007 75.6562 13.4418 76.5502 13.3892 77.4937C13.0377 76.6514 12.8966 75.7575 12.9658 74.812Z" fill="#A0A0A0"/>
<path fill-rule="evenodd" clip-rule="evenodd" d="M108.379 74.9531C108.09 78.0085 108.043 81.0666 108.237 84.1274C108.124 83.9225 108.054 83.6874 108.026 83.4217C107.932 81.3516 107.932 79.2816 108.026 77.2114C108.078 76.4286 108.195 75.6758 108.379 74.9531Z" fill="#ADADAD"/>
<path fill-rule="evenodd" clip-rule="evenodd" d="M28.6326 76.6468C30.8 76.5309 31.6704 77.5189 31.2438 79.6108C30.1038 80.9185 28.9746 80.9185 27.8563 79.6108C27.6693 79.0564 27.6223 78.4918 27.7152 77.9171C28.0553 77.5082 28.3612 77.0848 28.6326 76.6468Z" fill="#E3EBEF"/>
<path fill-rule="evenodd" clip-rule="evenodd" d="M171.611 75.9412C171.492 78.1571 171.163 80.3213 170.623 82.4338C170.772 80.2236 171.101 78.0594 171.611 75.9412Z" fill="#AAAAAA"/>
<path fill-rule="evenodd" clip-rule="evenodd" d="M21.0109 71.5657C20.8807 75.6099 20.8337 79.656 20.8697 83.704C20.6612 81.6614 20.5671 79.5914 20.5874 77.4937C20.611 76.1764 20.6344 74.859 20.658 73.5417C20.6621 72.8419 20.7797 72.1833 21.0109 71.5657Z" fill="#909090"/>
<path fill-rule="evenodd" clip-rule="evenodd" d="M38.5127 79.4697C38.7311 79.7953 38.8251 80.1716 38.795 80.5989C38.7864 81.0792 38.7158 81.5496 38.5833 82.0103C38.5292 82.0888 38.4587 82.1358 38.3716 82.1514C38.4789 81.2617 38.5259 80.3678 38.5127 79.4697Z" fill="#B2B2B1"/>
<path fill-rule="evenodd" clip-rule="evenodd" d="M13.6714 79.8931C13.8493 80.2823 13.9669 80.7058 14.0242 81.1634C14.0871 81.965 14.1577 82.7648 14.236 83.5628C13.8649 82.3864 13.6767 81.1631 13.6714 79.8931Z" fill="#999999"/>
<path fill-rule="evenodd" clip-rule="evenodd" d="M105.132 81.4456C105.222 82.3839 105.269 83.3247 105.273 84.2684C105.316 84.6756 105.269 85.052 105.132 85.3976C104.928 84.4703 104.834 83.5294 104.85 82.5747C104.859 82.1614 104.953 81.785 105.132 81.4456Z" fill="#67757E"/>
<path fill-rule="evenodd" clip-rule="evenodd" d="M105.273 84.2686C105.889 87.3425 106.618 90.4007 107.461 93.4429C106.355 90.8543 105.579 88.1726 105.132 85.3977C105.27 85.0522 105.317 84.6758 105.273 84.2686Z" fill="#363B3E"/>
<path fill-rule="evenodd" clip-rule="evenodd" d="M15.3652 89.0674C15.6435 89.4321 15.7846 89.8555 15.7886 90.3377C15.4552 89.9962 15.3141 89.5728 15.3652 89.0674Z" fill="#939393"/>
<path fill-rule="evenodd" clip-rule="evenodd" d="M98.922 90.6199C100.114 91.5938 100.702 92.8641 100.686 94.4307C101.314 94.7799 101.949 95.1092 102.592 95.4187C103.617 97.2561 104.699 99.0674 105.838 100.853C105.179 100.868 104.614 100.632 104.144 100.147C103.962 100.078 103.773 100.054 103.58 100.076C102.874 99.2766 102.121 98.5239 101.321 97.8182C101.226 97.2712 100.967 96.8008 100.545 96.4067C99.6266 94.7095 98.9443 92.9216 98.4985 91.0433C98.552 90.8015 98.6932 90.6604 98.922 90.6199Z" fill="#181817"/>
<path fill-rule="evenodd" clip-rule="evenodd" d="M92.0059 91.1844C89.7496 90.9479 88.2912 91.9124 87.6305 94.0779C87.7979 94.9775 88.2213 95.7302 88.9008 96.3362C90.0898 97.195 91.4071 97.736 92.8528 97.9593C89.5601 98.6734 86.7608 97.7793 84.4548 95.2776C83.8861 94.2725 84.0507 93.4022 84.9488 92.6664C87.1496 91.3487 89.5019 90.8547 92.0059 91.1844Z" fill="#434140"/>
<path fill-rule="evenodd" clip-rule="evenodd" d="M92.0061 91.1846C93.8157 91.1936 95.5094 91.6406 97.0872 92.5255C97.6099 93.0048 97.7744 93.5929 97.5812 94.2898C96.598 96.2754 95.022 97.4985 92.8529 97.9595C91.4072 97.7362 90.0899 97.1952 88.9009 96.3363C88.2214 95.7304 87.798 94.9777 87.6306 94.078C88.2913 91.9126 89.7497 90.948 92.0061 91.1846Z" fill="#575553"/>
<path fill-rule="evenodd" clip-rule="evenodd" d="M21.8577 90.9023C22.1652 91.425 22.4004 91.9896 22.5634 92.5961C22.0563 92.1599 21.8211 91.5954 21.8577 90.9023Z" fill="#606060"/>
<path fill-rule="evenodd" clip-rule="evenodd" d="M168.929 90.6199C168.904 91.2138 168.716 91.7312 168.365 92.1724C168.438 91.6032 168.627 91.0856 168.929 90.6199Z" fill="#9F9F9F"/>
<path fill-rule="evenodd" clip-rule="evenodd" d="M93.6997 92.1726C95.5893 92.4185 96.4362 93.5006 96.2403 95.4189C95.9879 95.4591 95.7526 95.4121 95.5346 95.2778C95.1727 94.3756 94.5845 93.6699 93.7703 93.1606C93.7001 92.8346 93.6767 92.5053 93.6997 92.1726Z" fill="#21201E"/>
<path fill-rule="evenodd" clip-rule="evenodd" d="M101.321 97.8183C102.121 98.524 102.874 99.2768 103.58 100.077C105.196 102.168 105.502 104.426 104.497 106.851C103.781 107.715 102.864 108.186 101.745 108.263C99.1988 107.866 96.6583 107.442 94.1232 106.993C93.576 106.832 93.0114 106.667 92.4295 106.499C89.9813 106.444 87.5349 106.35 85.09 106.216C84.7016 105.922 84.4193 105.545 84.2432 105.087C84.882 103.237 86.1523 102.061 88.054 101.559C89.8408 101.356 91.6286 101.168 93.4175 100.994C93.7342 100.987 93.9695 100.869 94.1232 100.641C96.2195 99.8398 97.9837 98.5695 99.4161 96.8303C100.086 97.1064 100.721 97.4357 101.321 97.8183Z" fill="#C8B9AA"/>
<path fill-rule="evenodd" clip-rule="evenodd" d="M94.123 100.641C93.9693 100.869 93.734 100.987 93.4173 100.994C91.6284 101.168 89.8406 101.356 88.0538 101.559C86.1521 102.061 84.8818 103.237 84.243 105.087C84.4191 105.545 84.7014 105.922 85.0898 106.216C87.5347 106.35 89.9812 106.445 92.4293 106.499C93.0112 106.667 93.5758 106.832 94.123 106.993C90.4787 106.949 86.9971 107.679 83.6784 109.18C79.2935 109.709 77.5762 107.804 78.5267 103.464C79.3422 101.049 80.8006 99.12 82.9021 97.6772C84.4898 99.0715 86.3011 100.083 88.3361 100.712C90.2718 101.01 92.2008 100.987 94.123 100.641Z" fill="#93897D"/>
<path fill-rule="evenodd" clip-rule="evenodd" d="M109.225 97.1125C110.237 98.7562 111.39 100.309 112.683 101.77C112.777 101.958 112.777 102.147 112.683 102.335C111.163 100.838 110.011 99.0973 109.225 97.1125Z" fill="#5E6972"/>
<path fill-rule="evenodd" clip-rule="evenodd" d="M37.1011 113.344C37.8894 113.717 38.7363 113.858 39.6417 113.768C40.4767 113.953 41.3236 114.047 42.1823 114.05C46.6924 113.703 51.209 113.562 55.732 113.626C56.6194 113.607 57.4663 113.466 58.2726 113.203C64.9223 112.278 70.568 109.408 75.2098 104.593C75.3481 106.275 75.7716 107.875 76.4801 109.392C76.9123 110.79 77.665 111.989 78.7384 112.991C79.9764 113.482 81.1996 114 82.4081 114.544C82.9066 115.159 83.4242 115.747 83.9607 116.308C84.2863 117.76 84.945 119.03 85.9367 120.119C86.0812 120.664 86.4105 121.064 86.9247 121.319C89.568 122.421 92.2967 122.68 95.111 122.095C95.0921 121.842 95.1391 121.607 95.2521 121.389C95.8802 121.218 96.4918 120.959 97.087 120.613C98.476 119.316 99.3229 117.74 99.6276 115.885C100.203 115.348 100.603 114.689 100.827 113.909C101.817 112.767 103.064 112.084 104.568 111.862C105.671 111.137 106.33 110.125 106.544 108.828C107.344 107.275 107.861 105.628 108.096 103.888C112.633 109.031 118.279 112.277 125.033 113.626C125.021 113.767 125.068 113.885 125.175 113.979C133.523 117.256 141.944 117.444 150.439 114.544C153.443 113.233 156.054 111.375 158.273 108.969C158.577 108.642 158.789 108.265 158.908 107.84C159.424 107.299 159.918 106.734 160.39 106.146C160.912 111.969 161.241 117.802 161.378 123.648C161.731 140.583 161.872 157.521 161.801 174.459C161.613 178.175 161.448 181.892 161.307 185.609C114.505 185.293 67.6921 185.247 20.8696 185.468C20.7275 165.521 20.7041 145.571 20.7991 125.624C21.0297 118.216 21.5237 110.83 22.2811 103.464C23.9827 105.519 25.8176 107.472 27.7857 109.322C30.5011 111.549 33.6063 112.89 37.1011 113.344Z" fill="#A9C1D4"/>
<path fill-rule="evenodd" clip-rule="evenodd" d="M163.142 106.287C163.468 108.134 163.609 110.016 163.566 111.933C163.351 111.215 163.234 110.462 163.213 109.674C163.142 108.546 163.118 107.417 163.142 106.287Z" fill="#535351"/>
<path fill-rule="evenodd" clip-rule="evenodd" d="M158.908 107.839C158.789 108.265 158.578 108.641 158.273 108.969C156.054 111.375 153.443 113.233 150.439 114.544C141.944 117.444 133.523 117.255 125.175 113.979C125.069 113.884 125.021 113.767 125.034 113.626C129.586 114.028 134.15 114.216 138.725 114.191C140.702 114.552 142.678 114.552 144.653 114.191C150.199 113.792 154.95 111.675 158.908 107.839Z" fill="#90A3B3"/>
<path fill-rule="evenodd" clip-rule="evenodd" d="M55.5909 108.969C54.7796 109.216 53.9328 109.381 53.0503 109.463C50.6738 109.579 48.3213 109.556 45.9932 109.392C48.1848 109.425 50.349 109.331 52.4858 109.11C53.5185 109.022 54.5536 108.975 55.5909 108.969Z" fill="#666666"/>
<path fill-rule="evenodd" clip-rule="evenodd" d="M106.544 108.827C106.33 110.125 105.671 111.136 104.568 111.862C103.064 112.084 101.817 112.767 100.827 113.909C100.603 114.689 100.203 115.348 99.6277 115.885C99.6833 114.229 99.8244 112.582 100.051 110.945C102.527 111.138 104.691 110.433 106.544 108.827Z" fill="#91A3B3"/>
<path fill-rule="evenodd" clip-rule="evenodd" d="M144.37 108.969C143.94 109.372 143.423 109.63 142.818 109.745C141.783 109.933 140.747 110.121 139.712 110.309C139.831 110.452 139.878 110.617 139.854 110.803C138.77 110.827 137.688 110.803 136.607 110.733C137.048 110.704 137.472 110.61 137.878 110.451C136.819 110.35 135.784 110.232 134.772 110.098C138.014 110.062 141.213 109.685 144.37 108.969Z" fill="#363636"/>
<path fill-rule="evenodd" clip-rule="evenodd" d="M76.4802 109.392C78.3786 111.735 80.825 112.629 83.8197 112.074C83.8198 113.487 83.8668 114.899 83.9608 116.308C83.4243 115.747 82.9068 115.159 82.4082 114.544C81.1998 114 79.9765 113.482 78.7385 112.991C77.6651 111.989 76.9124 110.79 76.4802 109.392Z" fill="#90A3B3"/>
<path fill-rule="evenodd" clip-rule="evenodd" d="M96.6638 110.239C93.8611 110.69 92.5908 112.337 92.8529 115.179C92.8059 115.179 92.7588 115.179 92.7118 115.179C92.5177 113.302 92.3765 111.42 92.2883 109.533C93.8137 109.463 95.2722 109.698 96.6638 110.239Z" fill="#B1B1B1"/>
<path fill-rule="evenodd" clip-rule="evenodd" d="M90.5946 112.356C88.9617 113.37 88.4205 114.829 88.9714 116.731C89.0202 117.406 89.1378 118.064 89.3243 118.707C88.1847 118.486 87.4084 117.827 86.9954 116.731C86.3392 114.847 86.2215 112.942 86.6425 111.015C87.8886 110.398 89.2058 110.092 90.5946 110.098C90.5946 110.85 90.5946 111.603 90.5946 112.356Z" fill="#B3B3B3"/>
<path fill-rule="evenodd" clip-rule="evenodd" d="M96.6636 110.239C96.962 110.36 97.1265 110.595 97.1576 110.944C97.2218 112.895 97.0337 114.824 96.593 116.731C96.2263 118.056 95.3559 118.714 93.9819 118.707C93.6526 118.707 93.3231 118.707 92.9939 118.707C93.0277 117.525 92.9807 116.349 92.8527 115.179C92.5906 112.337 93.8609 110.69 96.6636 110.239Z" fill="#F8F8F8"/>
<path fill-rule="evenodd" clip-rule="evenodd" d="M90.5945 112.356C90.8467 112.988 91.0113 113.647 91.0885 114.332C91.193 115.888 91.1695 117.441 91.0179 118.99C90.4086 119.049 89.8441 118.954 89.3242 118.707C89.1378 118.064 89.0202 117.405 88.9714 116.731C88.4205 114.829 88.9616 113.37 90.5945 112.356Z" fill="#F0F0F0"/>
<path fill-rule="evenodd" clip-rule="evenodd" d="M37.1013 113.344C37.9777 113.418 38.8245 113.559 39.6419 113.767C38.7365 113.858 37.8896 113.717 37.1013 113.344Z" fill="#495054"/>
<path fill-rule="evenodd" clip-rule="evenodd" d="M58.2728 113.203C57.4664 113.466 56.6195 113.607 55.7322 113.626C56.5361 113.336 57.383 113.194 58.2728 113.203Z" fill="#6C7983"/>
<path fill-rule="evenodd" clip-rule="evenodd" d="M138.724 114.191C140.7 114.191 142.676 114.191 144.652 114.191C142.678 114.552 140.702 114.552 138.724 114.191Z" fill="#626E77"/>
<path fill-rule="evenodd" clip-rule="evenodd" d="M92.7117 115.179C92.7587 115.179 92.8058 115.179 92.8528 115.179C92.9808 116.349 93.0278 117.525 92.994 118.708C93.3232 118.708 93.6527 118.708 93.982 118.708C93.6117 118.957 93.1883 119.051 92.7117 118.99C92.7117 117.72 92.7117 116.449 92.7117 115.179Z" fill="#7F7F7E"/>
<path fill-rule="evenodd" clip-rule="evenodd" d="M85.9368 120.119C86.974 120.919 88.1502 121.413 89.4653 121.601C91.4017 121.711 93.3307 121.64 95.2522 121.389C95.1392 121.607 95.0922 121.842 95.1111 122.095C92.2968 122.68 89.5681 122.421 86.9248 121.319C86.4106 121.064 86.0813 120.664 85.9368 120.119Z" fill="#8EA2B0"/>
<path fill-rule="evenodd" clip-rule="evenodd" d="M108.237 126.47C97.6181 134.699 86.9382 142.861 76.1979 150.959C76.0641 151.026 75.923 151.05 75.7745 151.029C73.6703 148.717 71.0356 147.471 67.8705 147.289C65.942 147.218 64.0132 147.194 62.0836 147.218C61.8483 147.218 61.6132 147.218 61.3779 147.218C61.1497 141.093 60.8438 134.977 60.4604 128.87C60.7282 127.849 61.3163 127.073 62.2247 126.541C77.5622 126.47 92.8998 126.447 108.237 126.47Z" fill="#CDCFD0"/>
<path fill-rule="evenodd" clip-rule="evenodd" d="M108.238 126.47C112.143 126.447 116.048 126.47 119.952 126.541C120.907 126.79 121.542 127.378 121.858 128.305C122.022 131.143 121.905 133.966 121.505 136.774C116.503 140.669 111.516 144.597 106.544 148.559C106.176 148.792 106.176 149.004 106.544 149.194C106.51 149.463 106.369 149.652 106.12 149.759C106.147 149.533 106.076 149.344 105.909 149.194C95.2117 157.585 84.5554 166.031 73.9397 174.53C76.245 174.624 78.5505 174.624 80.8558 174.53C87.8456 168.928 94.8556 163.352 101.886 157.804C102.039 157.969 102.157 158.157 102.239 158.369C102.293 157.492 102.41 156.645 102.592 155.828C102.383 158.633 103.088 161.173 104.709 163.45C100.278 167.056 95.95 170.796 91.7238 174.671C100.428 174.741 109.131 174.765 117.835 174.741C118.151 174.7 118.433 174.747 118.682 174.882C100.428 174.882 82.173 174.882 63.9186 174.882C64.1715 174.768 64.4538 174.698 64.7654 174.671C63.6501 173.883 62.9208 172.825 62.5777 171.495C62.1299 171.793 61.6359 171.934 61.0957 171.918C64.4518 170.65 67.6981 169.121 70.8346 167.331C75.5733 163.848 77.5728 159.166 76.8332 153.287C76.5917 152.476 76.2388 151.722 75.7746 151.029C75.9231 151.05 76.0642 151.026 76.198 150.959C86.9383 142.861 97.6182 134.699 108.238 126.47Z" fill="#C5C7C9"/>
<path fill-rule="evenodd" clip-rule="evenodd" d="M121.505 136.774C121.47 138.797 121.423 140.82 121.364 142.843C115.995 144.003 111.055 146.12 106.544 149.195C106.176 149.004 106.176 148.792 106.544 148.559C111.516 144.597 116.503 140.669 121.505 136.774Z" fill="#CBCDCE"/>
<path fill-rule="evenodd" clip-rule="evenodd" d="M124.187 166.978C123.043 167.014 121.914 167.155 120.799 167.402C117.462 167.917 114.122 167.941 110.778 167.472C108.325 166.764 106.302 165.423 104.709 163.45C103.088 161.173 102.383 158.633 102.592 155.828C102.684 154.777 102.99 153.789 103.509 152.864C104.254 151.719 105.125 150.685 106.12 149.759C106.369 149.652 106.51 149.463 106.544 149.194C111.055 146.12 115.995 144.003 121.364 142.843C125.07 142.211 128.693 141.246 132.232 139.949C132.759 139.863 133.277 139.91 133.784 140.091C138.112 144.017 140.676 148.887 141.477 154.699C141.571 157.522 141.571 160.345 141.477 163.168C141.293 163.7 140.987 164.147 140.559 164.508C135.002 164.802 129.544 165.625 124.187 166.978Z" fill="#080806"/>
<path fill-rule="evenodd" clip-rule="evenodd" d="M89.7477 143.408C93.6668 143.211 96.1368 145 97.1577 148.771C97.6078 151.796 96.7844 154.407 94.6877 156.605C89.592 158.82 86.4633 157.197 85.3017 151.735C85.0075 147.995 86.4895 145.218 89.7477 143.408Z" fill="#BABCBE"/>
<path fill-rule="evenodd" clip-rule="evenodd" d="M137.878 156.393C137.878 156.957 137.878 157.522 137.878 158.086C135.145 158.754 132.416 159.437 129.691 160.133C124.815 160.727 119.922 160.916 115.012 160.698C111.752 160.477 108.882 159.324 106.403 157.24C106.265 156.923 106.218 156.593 106.261 156.252C106.623 155.208 107.187 154.291 107.955 153.499C113.296 149.585 119.271 147.28 125.88 146.583C127.978 145.835 130.096 145.153 132.232 144.537C132.894 144.61 133.388 144.939 133.714 145.525C136.203 148.717 137.591 152.34 137.878 156.393Z" fill="#F1CE9F"/>
<path fill-rule="evenodd" clip-rule="evenodd" d="M62.0836 147.218C64.0132 147.194 65.942 147.218 67.8705 147.289C71.0356 147.471 73.6703 148.717 75.7745 151.029C76.2387 151.722 76.5916 152.476 76.8331 153.288C77.5727 159.166 75.5732 163.848 70.8345 167.331C67.698 169.121 64.4517 170.65 61.0956 171.919C56.6034 173.024 52.2751 174.576 48.1104 176.576C47.1409 176.873 46.247 177.32 45.4287 177.917C44.3489 178.242 43.5257 177.937 42.9587 177C40.1509 169.165 39.7745 161.214 41.8295 153.147C42.098 152.455 42.592 152.007 43.3115 151.806C49.4389 149.655 55.6963 148.125 62.0836 147.218Z" fill="#080808"/>
<path fill-rule="evenodd" clip-rule="evenodd" d="M106.12 149.759C105.125 150.685 104.254 151.719 103.509 152.864C102.99 153.789 102.684 154.777 102.592 155.828C102.41 156.645 102.293 157.492 102.239 158.369C102.157 158.157 102.039 157.969 101.886 157.804C94.8556 163.352 87.8456 168.928 80.8557 174.53C78.5504 174.624 76.245 174.624 73.9397 174.53C84.5554 166.031 95.2117 157.585 105.909 149.194C106.076 149.344 106.147 149.533 106.12 149.759Z" fill="#CDCFD0"/>
<path fill-rule="evenodd" clip-rule="evenodd" d="M131.103 149.9C132.275 149.87 132.627 150.388 132.161 151.453C131.291 152.201 130.327 152.342 129.268 151.876C129.008 151.59 128.938 151.261 129.056 150.888C129.553 150.619 130.094 150.453 130.679 150.394C130.899 150.293 131.04 150.127 131.103 149.9Z" fill="#12100C"/>
<path fill-rule="evenodd" clip-rule="evenodd" d="M126.163 150.465C127.765 150.353 128.095 150.942 127.151 152.229C125.782 152.785 124.394 152.856 122.987 152.441C122.861 151.958 122.931 151.512 123.199 151.1C124.237 151.038 125.225 150.826 126.163 150.465Z" fill="#16130F"/>
<path fill-rule="evenodd" clip-rule="evenodd" d="M44.1583 165.99C44.1301 163.729 44.1772 161.471 44.2995 159.216C44.2455 158.528 44.3397 157.871 44.5818 157.24C44.8077 156.809 44.9489 156.339 45.0052 155.828C52.6879 152.674 60.6859 151.333 68.9995 151.806C70.6214 152.061 71.9623 152.789 73.0221 153.993C73.5723 155.172 73.6663 156.394 73.3044 157.663C72.3685 160.434 70.6512 162.575 68.1527 164.085C63.4104 166.479 58.4704 168.362 53.3326 169.731C50.6724 170.874 47.9906 171.933 45.2875 172.907C44.6927 170.638 44.3163 168.332 44.1583 165.99Z" fill="#F2CF9F"/>
<path fill-rule="evenodd" clip-rule="evenodd" d="M127.01 154.558C128.051 154.531 129.086 154.602 130.115 154.769C130.741 155.417 130.647 155.934 129.832 156.322C129.041 156.517 128.241 156.565 127.433 156.463C126.891 155.916 126.75 155.28 127.01 154.558Z" fill="#191612"/>
<path fill-rule="evenodd" clip-rule="evenodd" d="M45.0054 155.828C44.949 156.339 44.8079 156.809 44.5819 157.24C44.5147 156.692 44.6559 156.222 45.0054 155.828Z" fill="#907E61"/>
<path fill-rule="evenodd" clip-rule="evenodd" d="M106.262 156.251C106.218 156.593 106.265 156.923 106.403 157.239C108.882 159.324 111.752 160.477 115.012 160.697C119.922 160.916 124.815 160.727 129.691 160.133C132.416 159.437 135.145 158.754 137.878 158.086C137.878 158.887 137.878 159.685 137.878 160.486C137.285 160.441 136.72 160.489 136.184 160.627C134.723 160.703 133.264 160.822 131.808 160.98C127.499 161.869 123.171 162.668 118.823 163.379C116.565 163.474 114.307 163.474 112.048 163.379C108.615 162.534 106.592 160.37 105.979 156.887C105.983 156.621 106.077 156.41 106.262 156.251Z" fill="#C0A47F"/>
<path fill-rule="evenodd" clip-rule="evenodd" d="M137.878 156.393C138.018 157.779 138.065 159.19 138.019 160.627C137.407 160.627 136.795 160.627 136.184 160.627C136.72 160.489 137.284 160.441 137.878 160.486C137.878 159.686 137.878 158.887 137.878 158.087C137.878 157.522 137.878 156.957 137.878 156.393Z" fill="#8A765B"/>
<path fill-rule="evenodd" clip-rule="evenodd" d="M51.9214 158.228C53.2552 158.291 53.5374 158.878 52.7682 159.992C51.8734 160.467 50.9324 160.609 49.9453 160.415C48.8276 161.588 47.4868 161.988 45.9228 161.615C45.682 161.127 45.6585 160.633 45.8522 160.133C46.9709 159.93 48.0765 159.671 49.1691 159.357C49.3253 159.369 49.4664 159.416 49.5925 159.498C49.8042 159.286 50.0159 159.074 50.2276 158.863C50.843 158.744 51.4076 158.532 51.9214 158.228Z" fill="#15120F"/>
<path fill-rule="evenodd" clip-rule="evenodd" d="M48.5338 162.885C49.765 162.775 50.1648 163.292 49.7335 164.438C49.1312 165.062 48.402 165.321 47.5458 165.214C47.3554 165.106 47.2378 164.94 47.1929 164.72C47.0988 164.343 47.0988 163.968 47.1929 163.591C47.7016 163.447 48.1485 163.211 48.5338 162.885Z" fill="#171411"/>
<path fill-rule="evenodd" clip-rule="evenodd" d="M44.2996 159.216C44.1774 161.471 44.1302 163.729 44.1585 165.99C43.9127 164.184 43.8422 162.349 43.9467 160.486C43.9755 160.02 44.0931 159.597 44.2996 159.216Z" fill="#7C6A52"/>
<path fill-rule="evenodd" clip-rule="evenodd" d="M104.709 163.45C106.302 165.423 108.325 166.764 110.778 167.473C114.122 167.941 117.462 167.917 120.799 167.402C120.788 167.578 120.694 167.696 120.517 167.755C120.238 167.825 119.956 167.848 119.67 167.825C119.736 169.636 119.571 171.423 119.176 173.189C118.849 173.821 118.403 174.338 117.835 174.741C109.131 174.765 100.427 174.741 91.7236 174.671C95.9499 170.796 100.278 167.056 104.709 163.45Z" fill="#CCCFD0"/>
<path fill-rule="evenodd" clip-rule="evenodd" d="M48.1103 176.576C52.2751 174.576 56.6034 173.024 61.0955 171.919C61.6357 171.934 62.1297 171.793 62.5775 171.495C62.9207 172.825 63.6499 173.883 64.7653 174.671C64.4536 174.698 64.1713 174.768 63.9184 174.883C63.6516 174.854 63.4399 174.947 63.2832 175.165C62.9068 176.511 63.4008 177.099 64.7653 176.929C82.8799 177.045 100.993 177.021 119.105 176.859C119.283 176.352 119.353 175.835 119.317 175.306C119.158 175.075 118.946 174.933 118.682 174.883C118.433 174.747 118.151 174.7 117.835 174.741C118.403 174.338 118.849 173.821 119.176 173.189C119.571 171.423 119.736 169.636 119.67 167.825C119.956 167.848 120.238 167.825 120.517 167.755C120.694 167.696 120.788 167.578 120.799 167.402C121.914 167.155 123.043 167.014 124.187 166.979C124.987 166.942 125.787 166.895 126.586 166.837C127.648 171.652 128.801 176.451 130.044 181.234C130.115 182.315 130.138 183.398 130.115 184.48C102.592 184.605 75.0689 184.699 47.5458 184.763C47.4295 182.01 47.6176 179.281 48.1103 176.576Z" fill="#CBD9E4"/>
<path fill-rule="evenodd" clip-rule="evenodd" d="M63.9184 174.882C82.1729 174.882 100.427 174.882 118.682 174.882C118.946 174.933 119.158 175.074 119.317 175.306C119.353 175.835 119.283 176.352 119.105 176.858C100.993 177.021 82.8798 177.045 64.7652 176.929C63.4008 177.098 62.9068 176.511 63.2832 175.165C63.4399 174.947 63.6516 174.854 63.9184 174.882Z" fill="#BABCBE"/>
</svg>
